<svg id="Слой_1" data-name="Слой 1" xmlns="http://www.w3.org/2000/svg" viewBox="0 0 30 30"><defs><style>.cls-1{fill:#bdbdbd}.cls-2{fill:#fff}</style></defs><title>account-icon</title><circle class="cls-1" cx="15" cy="15" r="15"/><path class="cls-2" d="M1489.22 43.5h-.7v-1.43a3.52 3.52 0 1 0-7 0v1.43h-.7a1.42 1.42 0 0 0-1.41 1.43v7.14a1.42 1.42 0 0 0 1.41 1.43h8.43a1.43 1.43 0 0 0 1.41-1.43v-7.14a1.42 1.42 0 0 0-1.41-1.43zm-4.22 6.43a1.43 1.43 0 1 1 1.41-1.43 1.42 1.42 0 0 1-1.41 1.43zm2.18-6.43h-4.36v-1.43a2.18 2.18 0 1 1 4.36 0v1.43zm0 0" transform="translate(-1470 -31)"/></svg>