<?xml version="1.0" encoding="utf-8"?>
<!-- Generator: Adobe Illustrator 19.2.1, SVG Export Plug-In . SVG Version: 6.00 Build 0)  -->
<svg version="1.1" id="Слой_1" xmlns="http://www.w3.org/2000/svg" xmlns:xlink="http://www.w3.org/1999/xlink" x="0px" y="0px"
	 viewBox="0 0 17.3 40" style="enable-background:new 0 0 17.3 40;" xml:space="preserve">
<style type="text/css">
	.st0{fill:#010202;}
</style>
<g>
	<ellipse class="st0" cx="8.6" cy="3.4" rx="3.5" ry="3.4"/>
	<path class="st0" d="M9.8,8.3C8.9,8.2,8,8.2,7.2,8.4C1.4,9-0.4,15.5,0.1,20.4c0.2,2.1,3.7,2.2,3.4,0c-0.2-1.8-0.1-4.5,0.9-6.4v7
		c0,0.1,0,0.2,0,0.2c0,0,0,0.1,0,0.1c0,5.6,0,11.2-0.2,16.8c-0.1,2.5,3.8,2.5,3.9,0c0.2-4.4,0.2-8.8,0.2-13.1c0.2,0,0.4,0,0.6,0
		c0,4.4,0.1,8.8,0.2,13.1c0.1,2.5,4.1,2.5,3.9,0c-0.2-5.6-0.2-11.2-0.2-16.8c0-0.2,0-0.3-0.1-0.5c0-2.4-0.1-4.9-0.1-7.3
		c1.2,1.9,1.3,4.9,1.1,6.8c-0.2,2.2,3.2,2.1,3.4,0C17.8,15.4,15.8,8.8,9.8,8.3z"/>
</g>
</svg>
