<?xml version="1.0" encoding="utf-8"?>
<!-- Generator: Adobe Illustrator 19.2.1, SVG Export Plug-In . SVG Version: 6.00 Build 0)  -->
<svg version="1.1" id="Слой_1" xmlns="http://www.w3.org/2000/svg" xmlns:xlink="http://www.w3.org/1999/xlink" x="0px" y="0px"
	 viewBox="0 0 206 246" style="enable-background:new 0 0 206 246;" xml:space="preserve">
<style type="text/css">
	.st0{fill:#F5F5F5;}
	.st1{fill:#BDBCBC;}
	.st2{fill:#F5F5F5;stroke:#BDBCBC;stroke-width:3;stroke-miterlimit:10;}
	.st3{opacity:0.25;}
	.st4{fill:#434649;}
</style>
<g>
	<g>
		<polygon class="st0" points="1.5,244.5 1.5,1.5 173.6,1.5 204.5,32.4 204.5,244.5 		"/>
		<path class="st1" d="M173,3l30,30v210H3V3H173 M174.2,0H173H3H0v3v240v3h3h200h3v-3V33v-1.2l-0.9-0.9l-30-30L174.2,0L174.2,0z"/>
	</g>
	<polyline class="st2" points="171.5,3 171.5,34.5 203,34.5 	"/>
	<g class="st3">
		<g>
			<path class="st4" d="M103,172.3c-13.4,0-25.5,7.3-34.5,19.2c-0.7,1-0.7,2.3,0,3.3C77.5,206.7,89.6,214,103,214
				c13.4,0,25.5-7.3,34.5-19.2c0.7-1,0.7-2.3,0-3.3C128.5,179.6,116.4,172.3,103,172.3L103,172.3z M104,207.8
				c-8.9,0.6-16.2-6.8-15.7-15.7c0.5-7.3,6.4-13.3,13.7-13.7c8.9-0.6,16.2,6.8,15.7,15.7C117.2,201.4,111.3,207.4,104,207.8
				L104,207.8z M103.5,201c-4.8,0.3-8.7-3.6-8.4-8.4c0.2-4,3.5-7.1,7.4-7.4c4.8-0.3,8.7,3.6,8.4,8.4
				C110.7,197.6,107.5,200.8,103.5,201L103.5,201z M103.5,201"/>
		</g>
	</g>
</g>
</svg>
