<?xml version="1.0" encoding="utf-8"?>
<!-- Generator: Adobe Illustrator 19.2.1, SVG Export Plug-In . SVG Version: 6.00 Build 0)  -->
<svg version="1.1" id="Слой_1" xmlns="http://www.w3.org/2000/svg" xmlns:xlink="http://www.w3.org/1999/xlink" x="0px" y="0px"
	 viewBox="0 0 150 126.7" style="enable-background:new 0 0 150 126.7;" xml:space="preserve">
<style type="text/css">
	.st0{fill:#F18825;}
	.st1{fill:#FFFFFF;}
	.st2{fill:#56BFCE;}
	.st3{fill-rule:evenodd;clip-rule:evenodd;fill:#F3F9FE;}
	.st4{fill:#0DB3B8;}
	.st5{fill:#CEE2F2;}
	.st6{fill:#ED6D43;}
	.st7{fill:#E74919;}
	.st8{fill:#2A455E;}
	.st9{fill:#E1EFFA;}
	.st10{fill:#21374E;}
	.st11{fill:#B8D1E6;}
	.st12{fill:#F3F9FE;}
	.st13{fill:#51677F;}
</style>
<g>
	<circle class="st0" cx="63.3" cy="63.3" r="63.3"/>
	<g>
		<path class="st1" d="M13,61.9c0.3,0,0.5,0,0.7,0.1c0,0,0,0,0,0c0-3.2,2.6-5.9,5.9-5.9c2.7,0,5,1.9,5.7,4.4
			c0.3-0.1,0.6-0.1,0.9-0.1c2.4,0,4.3,1.9,4.3,4.3c0,2.4-1.9,4.3-4.3,4.3H13c-1.9,0-3.5-1.6-3.5-3.5C9.5,63.5,11.1,61.9,13,61.9z"/>
		<path class="st1" d="M72.2,23.8L72.2,23.8c0-0.1,0-0.2,0-0.2c0-4.8,3.9-8.6,8.6-8.6c3.9,0,7.2,2.6,8.3,6.1
			c0.7-0.3,1.4-0.5,2.1-0.5c2.8,0,5,2.3,5,5c0,0.6-0.1,1.3-0.3,1.8c0.1,0,0.1,0,0.2,0c1.8,0,3.2,1.4,3.2,3.2c0,1.8-1.4,3.2-3.2,3.2
			H72.2c-2.8,0-5-2.3-5-5C67.1,26,69.4,23.8,72.2,23.8z"/>
		<g>
			<circle class="st2" cx="63.3" cy="63.3" r="36.1"/>
			<path class="st3" d="M54.9,93.5c0.1,0,0.5-0.1,0.6-0.1c-0.3-0.2-0.9-0.2-1.2-0.4c0,0-1.1-0.7-0.8-0.1c0.1,0.1,0.3,0,0.4,0.1
				c-0.1,0.2-0.2,0.1,0,0.2c0,0-1.2-0.7,0-0.7c-0.9-0.8,0.1-0.5-0.2-1c-0.2-0.3,0.7-0.7,0.2-0.9c-0.2-0.1-0.5-0.1-0.7-0.3
				c-0.3-0.2,0-0.7,0.3-0.6c0,0,0.2-0.8,0.3-0.9c-0.1,0-0.7-0.8-0.6-1c0.2-0.2,1,0.5,1.2,0c0.1-0.2-0.3-0.7-0.3-0.9
				c0.4,0,2.8,0.1,2.4-1.1c-0.1-0.4-1.2-1-1.1-1.3c0.4,0.1,1,0.6,1.3,0.4c0.3-0.2,0.6,0.2,0.9-0.2c0.1-0.1,0.6-0.7,0.4-0.8
				c-0.2,0-0.3,0.1-0.3,0.3c-0.2-0.3,0.1-0.5,0.3-0.6c0,0.1,0.1,0.1,0.1,0.2c0.2-0.3,1.3-1.8,1.4-1.8c0.6-0.7,0.1-1.6,0.7-2.1
				c0.5-0.5,1.1-0.8,1.8-1.1c0.2-0.1,0.9-0.5,1.1-0.4c1.2,0.4,1.1-1.1,1.8-1.7c0.8-0.7,0.2-4,0.8-4.3c0.3-0.1,1.4-1.4,1.9-2
				c0.5-0.6,0.6-1.3,0.4-2c-0.3-1.1-0.6-0.5-1.4-0.9c-0.6-0.4-1.1-1.1-1.9-1.2c-0.5-0.1-0.9,0.1-1.4-0.1c-0.2-0.1-0.7-0.4-0.9-0.1
				c0,0-0.4,0.2-0.4,0.2c-0.1,0,0-0.6-0.2-0.7c-0.2-0.2-1-0.5-1.3-0.5c-0.7-0.2-0.8,0.6-1-0.3c-0.6-0.2-1.1-0.8-1-1
				c0.1-0.1-0.9-2-1-1.8c0-0.6-2-1.5-2.5-1.1c-0.5,0.3-1.3-0.3-1.6-0.6c-0.3-0.3-0.3-0.7-0.8-0.9c-0.2-0.1-0.6-0.1-0.5-0.4
				c0.1-0.4-1-0.5-1.1-0.9c0.2,0,0.3,0,0.4-0.1c-0.4,0.1-0.9-0.2-1.3,0.2c-0.6,0.5-1-0.2-1.6-0.1c-0.8,0.2-0.3-0.1-0.8-0.5
				c0.2,0.1-1-0.5-0.7-0.5c-0.3,0,0,0.4-0.2,0.5c-0.4,0.2-0.8,0.3-0.5,0.8c0.5,1-1,0.5-0.3-0.1c0.1-0.1,0.2-1.4,0.3-1.3
				c-0.2-0.1-1.5,0.8-1.7,1c-0.4-0.7-1.2,1.7-1.4,1.7c-0.1-0.6-0.7-0.8-1.2-1c-0.4-0.2-0.9,0.8-1.4,0.3c-1-1-0.6-2.6-0.1-3.7
				c0.2-0.5-1.8-0.7-2-0.5c-0.5,0.4,0.1-0.8,0.1-0.8c0.1-0.5,0.2-0.8,0.4-0.8c0.1-0.3,0.9-1.6,0.8-1.8c-0.3-0.7-1.6,0.5-1.7,0.9
				c-0.1,0.3-0.4,0.5-0.5,0.8c-0.1,0.3-0.4-0.1-0.6,0.1c-0.5,0.3-1.3,0.1-1.2-0.6c0.1-1-0.2-2.9,0.8-3.5c0.3-0.2,0.4-1.2,0.8-1.5
				c0,0,1.1-0.7,1-0.8c0.2,0.2,1-0.2,1.1,0.1c0.1,0.2,0.6,0.4,0.8,0.3c0,0,0.1-0.4,0.1-0.4c0,0-0.3,0-0.3-0.2c0-0.1,1.1,0,1.1,0
				c0.5,0,0.8,0.4,1.2,0.2c0.6-0.4,0.2,2.1,0.4,2.3c0.1,0.1,0,0.4,0.3,0.4c0.3,0,0.4-3.2,1.2-3.9c0.6-0.5,1.3-0.9,1.9-1.3
				c0.2-0.1,0.8-0.4,0.9-0.6c0-0.1-0.1-0.2-0.2-0.1c0-0.2,0.3-0.1,0.4-0.3c0.1-0.2-0.2-0.3-0.1-0.3c0,0,0.2-0.4,0.1-0.4c0,0,0,0,0,0
				c0.3,0.1-0.1-0.3-0.1-0.4c0.4,0.2,0.3-0.5,0.7-0.5c-0.3,0.1-0.2,0.5-0.2,0.7c0.1,0.5,0.5-0.6,0.4-0.6c0.4-0.2,1-0.5,1.5-0.8
				c-0.1,0-0.2,0-0.3,0c0.4-0.2,0.9-0.1,1.4-0.3c0-0.4,0.2-0.9,0.7-1c0.8-0.1,1.7-0.6,2.4-0.9c-0.1,0.3,0.1,0.1,0.3,0.2
				c-0.3-0.7-1.6,1.2-1,0.8c0.5-0.3,2.4-0.6,2.7-1.1c0,0-0.1-0.4-0.1-0.4c-0.5,0-0.5,0.6-1.1,0.6c-1,0-0.4-0.6-0.6-0.9
				c-0.2,0-0.3,0-0.5-0.1c0.1,0,1.4-0.3,0.7-0.5c-1.1-0.2-1.8,1-2.7,0.9c0.7-0.4,1.6-1.3,2.4-1.4c0.9-0.1,2,0.3,2.8-0.2
				c0.7-0.5,1.1-0.1,1.5-0.9c0.1-0.2-0.5-0.5-0.7-0.5c0.1-0.1,0.2,0,0.3-0.1c-1-0.4-1.2-0.9-1.3-2.1c-0.5,0.4-2.2,1.2-1.3-0.1
				c-0.3-0.1-1.4-1-1.8-0.4c-0.2,0.3-0.5,0.7-0.8,0.9c-0.7,0.3-0.1,0.3-0.3,0.7c-0.4,0.8-1.3,0.7-1.8,1.3c-0.3,0.4-0.4,0.7-0.8,0.9
				c-0.4,0.2-0.5-0.3-0.3-0.6c0.1,0.1,0.3,0.2,0.4,0.1c0-0.2-0.2-0.1-0.3-0.1c0.1-0.2,0.3-0.4,0.5-0.6c-0.1,0-1-0.2-1-0.4
				c0.1-0.5-0.6-0.2-0.7-0.4c0.5-0.7,0.5-1,1.5-1.5c0.4-0.2,2.3-1.2,2.7-0.9c0,0.2-0.3,0.2-0.4,0.3c0.3,0.1,1.1,0.2,1.4,0
				c-0.1,0-0.4-0.6-0.2-0.7c0,0,0.6,0,0.6,0c0.3-0.1,0.7-0.1,0.8-0.4c0.2-0.3,1.2-0.6,1.4-0.5c1.3,0.8-1.8,1.6-1.9,1.5
				c0.1,0.2,0.9-0.2,1.1,0.4c0.1,0.1,1,0.5,1.1,0.3c0.1-0.1-0.3-0.4-0.3-0.5c1,0.5,1,0.2,0.8-0.4c-0.2-0.7,0.6,0,0.6,0.1
				c0.2,0.1,0.9-0.3,1-0.4c-0.2-0.2-0.7-0.2-0.9-0.4c-0.2-0.2,0.5-0.2,0.3-0.5c-0.3-0.3-0.8-0.2-0.6-0.7c-0.2,0-0.3,0-0.5,0.1
				c0,0.1,0.1,0,0.2,0.1c-0.2,0.1-0.4,0.1-0.6,0.1c0.1-0.1,0.2-0.1,0.2-0.3c-0.5-0.1-0.8,0.3-1.3,0.4c0.1-0.2,0.3-0.2,0.5-0.4
				c-0.5,0.1-1,0.3-1.4,0.6c0.1,0.1,0.1,0.1,0.2,0.2c-0.4,0.3-0.9,0.4-1.4,0.7c0.1-0.3,0.4-0.2,0.5-0.5c-0.2,0-0.3,0-0.5,0.1
				c0.2,0,0.8-0.6,0.9-0.7c-0.8-0.1-1.2,1-1.9,0.8c0.2-0.2,0.5-0.1,0.6-0.4c-0.3,0-1.4,0.8-1.6,0.4c0,0,2-0.8,2.2-1.1
				c-0.1,0-0.3,0.1-0.4,0c0.1-0.1,0.3-0.1,0.4-0.2c-0.7,0-2.6,0.8-2.5,1.2c-0.3,0.2-0.5,0.3-0.8,0.1c0.1-0.2,0.5-0.2,0.2-0.5
				c-0.6,0.2-1.2,0.5-1.9,0.8c-1.4,0.6-2.8,1.4-4.1,2.2c-2.2,1.3-4,2.9-5.7,4.7c-0.9,1-4.6,5.2-4.6,6.1c0,0.6-0.4,1.2-0.6,1.8
				c-0.2,0.5-0.2,1.1-0.5,1.6c-0.5,0.9-0.3,2-0.5,3.1c0.3-0.2,0.9-5.1,1.4-5c0.1,0-0.3,2-0.4,2.3c-0.4,1,0.1,2.3-0.2,3.4
				c0,0.1-0.2,0.7-0.2,0.8c-0.5,0.4,0.1,1,0.1,1.4c0,0.2,1.3,1.4,1.5,1.5c0.5,0.3,0.6-0.2,1.1-0.1c0.4,0.1,0.6,0.9,0.8,1.2
				c0.3,0.5,1.5,0.4,1.7,0.6c0.1,0.2,0,1.1,0.6,1.2c0-0.1,0-0.4,0.1-0.4c0.2-0.1,0.5,0.5,0.4,0.6c-0.2,0-0.3,0-0.5-0.2
				c0,0.1-0.1,1.3,0.3,1c0-0.1,0-0.1,0-0.2c0.4,0.2,0.4,0.9,0.7,1c0.4,0.1,0.8,0.7,1.1,0.8c0.3,0.2,0.2-1,0.8-1.1
				c0.5,0,0.7,1.1,0.9,1.4c0.2,0.4-0.3,1.4,0,1.7c0.3,0.3-0.8,1.1-0.8,1.5c0,0.3-0.6,0.5-0.6,0.6c0,0.3-0.1,0.7-0.2,0.9
				c-0.3,0.7-0.1,0.8,0.3,1.2c0,0-0.9,1.8-0.4,2.3c0.8,0.7,1.9,2.3,2.2,3.4c0.5,1.4,1.4,2.3,2.7,3c1.1,0.6,1.9,1.6,1.9,2.9
				c0,0.8-0.1,1.8,0.3,2.5c0.2,0.5-0.2,1.4,0.1,1.8c0.2,0.3-0.1,0.5,0.1,0.7c0.1,0.3,0.4,0.8,0.4,1.1c0,0.6,0,1.2,0,1.8
				c0,0.2-0.2,0.5-0.1,0.6c0.1,0.2,0.9,2,0.9,2.6c0,0.1,0.6,0,0.1-0.6c0.6-0.4,0.5,1.1,0.5,1.1c-0.6-0.2-0.2,0-0.2,0.7
				c0,0.4-0.1,0.2,0.2,0.3c0.6,0.1,0,0.5,0.2,0.8c0.4,0.6,1.1,1.2,1.5,1.6C52.8,93.5,54,93.4,54.9,93.5C55,93.6,54.7,93.5,54.9,93.5
				z M57.2,34.6c-0.2,0.2-0.4,0.2-0.6,0.3C56.7,34.7,57,34.7,57.2,34.6z M55.3,34.5c0.1,0,0.3,0,0.3,0.1c0,0.1-0.8,0.1-0.9,0.3
				C54.9,34.6,55.2,34.6,55.3,34.5C55.4,34.6,55.2,34.6,55.3,34.5z M53.5,35.8C53.6,35.9,53.2,35.8,53.5,35.8
				C53.5,35.8,53.4,35.8,53.5,35.8z M52.4,33.8c0.1-0.1,0.1-0.1,0.2,0C52.5,34,52.5,33.9,52.4,33.8C52.4,33.8,52.4,33.9,52.4,33.8z
				 M51.4,36.9C51.1,36.9,51.7,36.9,51.4,36.9C51.3,36.9,51.4,36.9,51.4,36.9z M51.7,35.7c-1,0.9-0.2,0-0.5,0.3c0,0,0,0,0,0
				C51.1,36,51.7,35.7,51.7,35.7C51.6,35.8,51.5,35.8,51.7,35.7z M51.3,34.6c-0.2,0.2-0.2,0.2-0.4,0.2C51,34.7,51.2,34.7,51.3,34.6z
				 M55.8,31.1c-0.1,0-0.1,0-0.2,0C55.9,30.8,55.8,31.1,55.8,31.1C55.7,31.1,55.9,31.1,55.8,31.1z M56.5,30.6
				c-0.1,0.1-0.3,0.1-0.4,0.1C56.3,30.4,56.3,30.4,56.5,30.6z M52.5,30.9c0.1-0.1,0.2-0.1,0.3-0.1C52.9,30.9,52.1,31,52.5,30.9
				C52.5,30.8,52.4,30.9,52.5,30.9z M52.3,30.7c0.1,0.1,0.1,0.1,0,0.2C52.2,30.8,52.2,30.8,52.3,30.7C52.3,30.7,52.2,30.7,52.3,30.7
				z M47,39.7c0,0-1.6,0.6-1.5,0.2c0,0.1,0.5-0.4,0.4-0.4c0.1-0.1,1.2-0.1,1.5-0.1C47.3,39.6,47.2,39.6,47,39.7
				C46.7,39.8,47.2,39.6,47,39.7z M48.3,38.9c1.3,0.1-0.8,0.5-1,0.3C47.6,39,47.9,38.9,48.3,38.9C48.4,38.9,47.9,38.9,48.3,38.9z
				 M48.1,30.8c0.3-0.2,0.7-0.4,1.2-0.5C48.9,30.6,48.5,30.7,48.1,30.8L48.1,30.8z M48.1,37.9c-0.1,0.1-0.1,0.1-0.2,0
				C48.1,37.8,48.1,37.8,48.1,37.9C48.2,37.9,48.1,37.8,48.1,37.9z M47.8,38.6C47.7,38.6,47.6,38.6,47.8,38.6
				C47.8,38.6,47.7,38.6,47.8,38.6z M47.4,38c0.5,0.2,0.2,1-0.2,0.4c0,0.3-0.6,0.9-0.9,1c0.1-0.1,0.2-0.3,0.1-0.4
				c-0.1-0.1-0.3,0.1-0.4,0.1c0,0.2,0.9-1.4,0.2-0.9c-0.3,0.2-1.9,1.9-2,1.8c-0.2-0.2,0.7-1.4,0.8-1.5C45.5,38,46.7,37.6,47.4,38z
				 M46.5,31.9c0.1,0,0.6-0.4,0.7-0.3c0.2,0.2-0.8,0.5-0.9,0.5C46.3,32,46.4,31.9,46.5,31.9C46.6,31.8,46.4,31.9,46.5,31.9z
				 M46.6,36.2c0,0-0.2,0.4-0.3,0.3C46.1,36.3,46.5,36,46.6,36.2C46.5,36.3,46.6,36.1,46.6,36.2z M45.4,32.9c0.1,0,0.9-0.5,0.9-0.3
				C46.4,32.6,45.3,32.9,45.4,32.9z M45.2,33.7c-0.1,0.1-0.1,0.1-0.2,0.1C45,33.8,45.1,33.8,45.2,33.7z M44.6,35.8
				c0.1-0.1,0.4-0.5,0.3-0.7c0.1,0.1-0.5-0.1-0.2-0.2c0.1,0,0.8-0.4,0.9-0.3c0.2,0.2-0.8,1.3-1,1.4C44.5,35.9,44.5,35.8,44.6,35.8
				C44.8,35.7,44.5,35.8,44.6,35.8z M45.2,37.1c0.7-0.2,1-0.6,1.4-0.1c0.2,0.2,0.1,0.7-0.3,0.6c0.1,0-1.2-0.1-0.9-0.2
				c-0.3,0.2-0.8,0.3-1.1,0.1C44.6,37.4,44.9,37.2,45.2,37.1C45.4,37.1,44.9,37.2,45.2,37.1z M44.2,35.8c0.1,0.2,0,0.3-0.2,0.3
				C44.1,35.9,44.1,35.9,44.2,35.8z M33.8,51.5C33.5,51.5,34,51.5,33.8,51.5C33.7,51.5,33.8,51.5,33.8,51.5z M38,54.5
				C37.9,54.6,38.2,54.5,38,54.5C38,54.6,38,54.5,38,54.5z M48.2,57.9C48,57.9,48.4,57.9,48.2,57.9C48.2,57.9,48.2,57.9,48.2,57.9z
				 M49.9,87.9C49.6,87.8,50,87.6,49.9,87.9C49.8,87.9,49.9,87.9,49.9,87.9z M50.6,72.9C50.5,72.8,50.7,73,50.6,72.9
				C50.6,72.9,50.6,72.9,50.6,72.9z M50.7,82.2C50.5,82.3,50.9,82.2,50.7,82.2C50.7,82.2,50.7,82.2,50.7,82.2z M51.7,92.3
				c-0.1-0.1-0.1-0.1,0-0.1C51.8,92.2,51.8,92.2,51.7,92.3C51.6,92.3,51.8,92.3,51.7,92.3z M53,92.9c-0.1,0-0.1-0.1,0-0.2
				C53.2,92.7,53.1,92.8,53,92.9C52.9,92.9,53,92.8,53,92.9z M50.2,89.1C50.2,89.1,50.2,89.2,50.2,89.1
				C50.2,89.1,50.3,89.1,50.2,89.1z M53.5,29C53.5,29,53.5,29,53.5,29C53.5,29,53.5,29,53.5,29L53.5,29z M41.2,34.8
				C41.2,34.8,41.2,34.8,41.2,34.8L41.2,34.8z M41.5,34.5L41.5,34.5L41.5,34.5z M98.9,56.9L98.9,56.9c-0.7-2.6-1.2-5.2-2.3-7.7
				c-1.3-3-3-5.8-5-8.4c-1.9-2.4-4.1-4.6-6.6-6.4c-1.2-0.9-2.4-1.7-3.7-2.5c-0.6-0.4-1.3-0.7-1.9-1c-0.3-0.1-1.3-0.4-1.4-0.6
				c0,0.1,0.6,0.4,0.6,0.5c-0.4-0.1-1.4-0.5-1.4-0.6c0,0,0.1,0,0.1-0.1c-0.6-0.4-2.7-1.1-3.1-0.6c0.1-0.1,1.5,1.5,1.5,1.8
				c0.1,0.6,1.1,1.3,1.7,1.5c0.9,0.3,0.2-0.1,0.6-0.3c0.2-0.1,0.4,0.4,0.7,0.3c0,0,0,0,0,0c-0.1-0.1-0.1-0.2-0.2-0.4
				c-0.1,0,1.6,1.7,1.8,1.3c-0.2-0.5-0.5-1-0.9-1.4c-0.4-0.4-1.1-0.4-1.5-0.8c-0.2-0.2-1-0.8-1.1-1.1c1.1,0,2.3,2.3,3.4,1.4
				c-0.2-0.1-0.3-0.2-0.4-0.3c0.2,0.1,1.1,0.3,0.8,0.7c-0.9-0.2,0.7,0.7,0.8,0.8c-0.2,0-0.3-0.1-0.4-0.1c0.1,0.3,0.9,0.6,1,1.1
				c-0.5,0.1-0.3-0.3-0.6,0.1c-0.1,0.1-0.6,0.1-0.8,0.1c-0.6,0-1.3-1-1.7-1.3c0.2,0.6,0.5,0.8,1.1,1.2c0.3,0.2-0.4,0.3-0.4,0.5
				c0,0,0.2,0.1,0.2,0.1c0,0-0.2-0.1-0.2-0.1c0.1,0-0.1,1-0.1,1c0.5,0.6-0.7,0.4-0.7,0.4c0.1,0.1,0.3,0.2,0.3,0.4
				c-0.3,0-0.6,0-0.9,0.1c0.5,0.1,3.1,1.3,2.5,2.2c-0.2,0.3-1.9-0.1-2.3-0.1c-0.7,0,0,0.6,0,0.7c0.1,0.5,0.5,0.7,0.5,1.3
				c0,0.4,0.4,0.4,0.5,0.8c0.1,0.3,0,0.3,0.4,0.4c0.6,0.1,0.6,0,1.1,0.4c0.3,0.3,0.5-0.3,0.9-0.3c1,0,0.2-0.3,0.6-0.4
				c0.6-0.2-0.2-1.1-0.1-1.3c0-0.3,0-0.5,0.3-0.6c0.5-0.1-0.1-0.7-0.2-0.8c-0.1-0.4,1.4,0.4,1.3-0.7c0.9,0.3,1.8,1.1,2.6,1.5
				c0.5,0.3,1,0.6,1.3,1c0.4,0.5-0.6,0.3-0.7,0.5c-0.1,0.2,0.9,0.6,1.1,0.6c0-0.1-0.1-0.7-0.1-0.7c0-0.4-0.6-0.8-0.6-1.1
				c0.2,0,0.3,0.1,0.5,0.2c-0.5-0.6-1.4-0.7-1.9-1.2c-0.4-0.3-0.8-0.5-1.2-0.8c0,0-0.6-0.8-0.2-0.6c0.7,0.2,1.4,0.9,2.1,1.3
				c0.6,0.3,0.7,0.5,1.1,1c0.2,0.2,1,1.2,1.2,1.2c0,0,0.7,0.6,1,0.7c-0.1-0.3-0.2-0.7-0.4-0.9c-0.2-0.3-1-0.5-1-1
				c0.2,0,0.2-0.2,0.6-0.2c-0.2,0,0.3-0.3,0.2-0.3c-0.7-0.4-1.8-1.7-2-2.5c0.2,0,0.3,0.3,0.5,0.1c-0.1-0.1-0.1-0.3-0.1-0.4
				c0.1,0.1,0.8,0.7,0.6,0.8c-0.2,0-0.4-0.1-0.5-0.2c0.1,0.4,0.5,0.4,0.6,0.6c0-0.1-0.1-0.2,0-0.3c0.6,0.3,1.9,1.2,2.1,1.9
				c-0.3,0-0.8-0.5-1-0.4c-0.1,0.1-0.1,0.3,0,0.4c-0.1,0-0.2,0-0.2,0.1c0.1,0.1,0.2,0.2,0.2,0.3C89.1,40,89,40,88.9,40
				c0.1,0.3,1.9,2.1,2,1.9c0-0.1-0.1-0.2,0-0.3c0.1-0.1,0.4,0.4,0.5,0.3c0.1-0.1-0.1-0.2,0-0.3c0.3-0.1,1.4,2,1.5,2.3
				c0.5,1,0.2,0.4-0.2,0.5c-0.1,0.1-0.1,0.2-0.1,0.3c-0.6-0.1-1.3-0.5-1.9-0.9c-0.8-0.6,0.3,1.6-0.2,1.3c-0.3-0.2-0.4-0.4-0.8-0.4
				c-0.5,0-0.6-0.6-1.1-0.7c-0.4-0.1-1.9-0.3-1.7-0.9c0.2-0.6-0.6-1.1-0.8-1.3c-0.1-0.1-1.8,0.1-2.1,0.2c-0.5,0.1-1.2,0.3-1.4,0.7
				c-0.4,0.8-1.5-0.3-1.9-0.1c-0.2,0.1,0,0.7-0.1,0.9c-0.2,0.3-0.6,0.3-0.7,0.7c-0.2,0.7,0.3,1.2,0.1,1.9c-0.2,0.5-1.1,0.7-1.2,1.1
				c0,0.2,0,0.5-0.2,0.6c-0.4,0.2,0,0.8-0.3,1.1c-1.5,1.5,0.5,3,0.1,4.6c-0.2,0.9-0.3,1.1,0.1,1.9c0.1,0.2,0,1.6,0.8,1.1
				c0.1,0.8,1.2,1,1.4,1.8c0.2,1,1.2,1.4,1.9,1.9c0.3,0.2,0.5,0.5,0.9,0.7c0.6,0.3,1-0.2,1.6-0.3c0.5-0.1,1-0.1,1.5,0.1
				c0.3,0.1,2.3-1.3,2.9-1.1c0.4,0.2,0.4,0.7,0.6,1.1c0.3,0.5,0.8-0.2,1.2,0c0.7,0.3,0.9,2.8,0.3,3.2c-0.4,0.3,0.6,1.7,0.7,2
				c0.4,0.8,0.7,2.1,0.6,3c-0.1,0.7,0.1,1.8-0.3,2.4c-0.4,0.6-0.6,1.3-0.9,1.9c-0.8,1.8,0,3.8-0.7,5.6c-0.4,0.9-0.4,1.9-0.6,2.9
				c-0.2,0.6-0.9,1.5-0.6,2.2c0.5-0.4,1.2-0.4,1.7-0.6c1.1-0.5,1.6-1.8,2.4-2.6c0.4-0.4,0.7-1,0.9-1.5c0.2-0.5,0.7-0.8,0.9-1.3
				c0.5-1.3,1-2.5,1.6-3.8c1.1-2.7,1.3-5.3,1.7-8.3C99.4,62.9,99.5,59.9,98.9,56.9z M96.2,49.7c-0.1-0.4-2.1-3.2-1.8-3.3
				c0.3-0.2,4.4,7.1,3.9,8.3C97.6,52.9,96.9,51.3,96.2,49.7C96.1,49.7,96.3,50,96.2,49.7z M97.9,62.6c-0.1-0.2,0-0.4,0.1-0.6
				C98.1,62.2,98,62.4,97.9,62.6z M97.7,63.7c0-0.1,0-0.2,0.1-0.3C97.8,63.5,97.8,63.6,97.7,63.7z M97,73.1c-0.1,0-0.1,0.1-0.2,0.1
				c-0.1,0,0.2-0.2,0.3-0.2C97,73,97,73,97,73.1C97,73.2,97,73,97,73.1z M97.1,69.3c0-0.3,0-0.4,0.4-0.6
				C97.4,68.9,97.2,69,97.1,69.3z M97.5,67.5c0-0.6,0-1.4,0.1-2c0,1.1,0.1,2.2,0,3.2C97.5,68.5,97.5,67.8,97.5,67.5
				C97.5,67.3,97.5,67.7,97.5,67.5z M98.1,69.5c0,0.6-0.1,2.2-0.5,2.6c0-1,0.4-1.9,0.4-2.8C98.1,69.4,98.1,69.5,98.1,69.5
				C98.1,69.6,98.1,69.5,98.1,69.5z M98.5,63.6c-0.2,0.7,0,0.9-0.4,1.3c0-0.5-0.2-1.5,0.3-1.8C98.5,63.3,98.6,63.4,98.5,63.6
				C98.5,63.9,98.6,63.4,98.5,63.6z M75.8,97.2c0.1,0.1-4.5,1.4-5,1.5c-1.9,0.4-3.8,0.7-5.8,0.8c-3.7,0.2-7.6-0.2-11.2-1.2
				c0.5,0,1,0.3,1.5,0.2c-0.4-0.3-1-0.2-1.4-0.5c1.5,0.2,2.9,0.1,4.3,0.3c-0.1-0.2-1.4-0.5-1.4-0.6c0.2,0,1.1,0,1.2-0.1
				c0.5-0.3-0.7-0.3-0.6-0.6c0-0.1,0.4,0,0.5-0.1c0.2-0.2,0-0.4,0.1-0.5c0.1-0.1,1.9-0.4,2-0.3c-0.2,0.1-0.5,0-0.4,0.3
				c-0.2,0-0.7,0-0.8,0.2c0-0.1,0.6,0.8,0.6,0.8c0.2,0.3,0.9,0.5,1,0.9c0.1,0.7,3.5,0.6,4.1,0.5c1.3-0.1,2.5-0.6,3.7-0.8
				c0.7-0.1,1.5-0.3,2.3-0.4c0.4,0,1.5-0.4,1.8-0.4C72.5,97.9,75.2,97.1,75.8,97.2C75.9,97.2,75.7,97.2,75.8,97.2z M96.7,77.2
				c0.1-0.4,0.3-0.8,0.4-1.1C97,76.5,96.8,76.9,96.7,77.2z M97.3,75.7c0,0,0-0.1,0.1-0.1C97.3,75.7,97.3,75.7,97.3,75.7z M57.7,28.4
				c-0.2,0-0.4,0-0.6,0c0.1-0.1,0.7-0.1,0.4-0.3c0.8-0.5,2.6-0.6,3.5-0.5c1.1,0.1,2.2-0.2,3.2,0c0.4,0.1,0.8,0.1,1.2,0.1
				c0.4,0-0.1,0.4,0.4,0.5c0.2,0,0.7,0.6,1,0.5c0,0.4-0.2,0.1-0.1,0.5c0,0.1,0.5,0.3,0.5,0.4c0,0.1-1.2,0-1.2,0
				c-0.1,0,0,0.2,0.1,0.2c0.2,0.1,0.8,0,1,0c-0.6,0.5-1.5,0.5-2.2,0.9c-0.4,0.3-1,0.2-1.5,0.4c0,0.5-0.4,1-0.7,1.5
				c-0.2,0.3-1.7-0.4-1.9-0.6c-0.3-0.4-1.1-1.5-0.3-1.8c1-0.4,0-0.1-0.3-0.3c0.2-0.3,0.5-0.2,0.9-0.2c-0.2-0.3-0.4-0.3-0.7-0.2
				c-0.1-0.3,0.4-0.5,0-0.9c-0.2-0.1-1.3,0-1.3-0.2c-0.1-0.5,1.3-0.2,1.5-0.6C59.8,27.6,58.7,28.6,57.7,28.4
				C57.5,28.4,57.9,28.5,57.7,28.4z M76.8,35.3c0.2,0-0.2-0.5-0.3-0.6c0.1,0,0.2,0,0.3,0c-0.1-0.2-1.1-0.8-1.2-0.8
				c-0.4,0.2-0.9-0.9-0.9-1c0.7-0.1,1.1,0.6,1.7,0.9c0.5,0.3,2.4,1.2,2.5,1.7c0,0.3-1.4,0.2-1.6,0.5c-0.2-0.4,0.4-0.4,0.3-0.5
				C77.5,35.3,76.8,35.3,76.8,35.3C76.7,35.3,77,35.3,76.8,35.3z M57.5,35.8c-0.1,0.1-1.4,1.3-1.3,1.4c0,0.1,1.3,0,1.6,0.2
				c0,0.1-0.2,0.1-0.2,0.2c0.2,0,0.7-0.3,0.8-0.2c0,0.1,0,0.2,0,0.2c0.6,0.6,0.5-0.7,0.5-0.7c-0.4-0.1,0.1-0.6-0.6-0.4
				c0,0-0.7-0.2-0.7-0.2c-0.1-0.1,0.6-0.6,0.6-0.7C57.7,35.6,57.7,35.7,57.5,35.8C57.3,36,57.6,35.8,57.5,35.8z M58.8,37.2
				C58.8,37.2,58.7,37.2,58.8,37.2C58.8,37.2,58.8,37.2,58.8,37.2z M58.5,37.2c0,0,0.3-0.1,0.1,0C58.6,37.2,58.4,37.3,58.5,37.2
				C58.5,37.1,58.4,37.2,58.5,37.2z M57.6,35.7L57.6,35.7C57.6,35.7,57.6,35.7,57.6,35.7C57.6,35.7,57.6,35.7,57.6,35.7z M56.4,36.8
				C56.5,36.8,56.5,36.8,56.4,36.8C56.5,36.9,56.3,36.9,56.4,36.8C56.5,36.8,56.4,36.8,56.4,36.8z M43.9,51.9
				c-0.4,0,0.2-0.3,0.2-0.4c-0.2-0.5-1.9-0.7-2-1.1c0.1,0,0.1-0.1,0.1-0.1c-0.6-0.2-0.8,0.5-1.4,0.4c1.1-1.8,3.7,0.3,4.7,1.1
				C45,51.8,44.4,51.8,43.9,51.9C43.8,51.9,44.2,51.9,43.9,51.9z M45.2,52.9c-0.3-0.1,0.9-0.1,1-0.2c-0.2-0.3,0-0.5-0.5-0.7
				c0.4-0.5,1.7,0.1,2.1,0.3c0,0.1-0.1,0-0.2,0.1c0,0,0.9,0.7,0.3,0.5c-0.6-0.3-1,0.1-1.4,0.4C46.3,52.7,45.7,53.1,45.2,52.9
				C45.2,52.8,45.3,52.9,45.2,52.9z M75.8,34.6c0.6,0.6-0.3,1.1-0.8,0.7c-0.2-0.2-0.1-0.7-0.6-0.9c0.1,0,0.3-0.1,0.4-0.1
				C74.6,33.5,75.7,34.4,75.8,34.6C76,34.7,75.8,34.5,75.8,34.6z M67.8,30.7c0-0.1,0.9-0.1,1-0.1c0.2,0,2.1,0.1,1.4,0.4
				c-0.5,0.2-1.2,0.5-1.7,0C68.5,31,67.8,30.8,67.8,30.7C67.8,30.6,67.9,30.8,67.8,30.7z M84.6,39.8c0.2,0,0.7,0.8,0.7,1
				c-0.3,0.4-0.7-0.6-0.9-0.8C84.4,40,84.5,39.9,84.6,39.8z M56,28.7c0.6-0.5,0.8-0.2,1.5-0.1C57.3,28.8,56.7,28.8,56,28.7
				C56.1,28.5,56.7,28.8,56,28.7z M69.8,28.1c-0.5-0.1-0.9-0.1-1.4-0.3c0.5-0.1,1.2,0.1,1.6,0.3C70.1,28.1,69.7,28.1,69.8,28.1
				C69.3,28,69.8,28.1,69.8,28.1z M68.4,27.8c0,0-0.1,0-0.2,0C68.3,27.8,68.3,27.8,68.4,27.8C68.3,27.8,68.4,27.8,68.4,27.8z
				 M44,52.9c0.1,0,0.2,0.1,0.2,0.2c-0.1,0.3-0.9-0.1-1-0.2C43.5,52.7,43.8,52.8,44,52.9z M49.8,52.9C49.4,53.9,48.3,52.1,49.8,52.9
				C49.8,53,49.6,52.8,49.8,52.9z M51.5,58L51.5,58C51.5,58,51.6,57.9,51.5,58C51.6,58,51.6,58,51.5,58z M51.7,58
				c0,0,0.1-0.4,0.4-0.5C52.4,57.7,51.8,58,51.7,58C51.6,58,52,58,51.7,58z M55.1,28.5c-0.3,0.2-0.6,0.1-0.9,0.2
				C54.6,28.3,54.8,28.4,55.1,28.5C54.8,28.6,55,28.4,55.1,28.5z M44.2,49.6c-0.1-0.4-0.3-0.4,0-0.8C44.4,49.2,44.4,49.5,44.2,49.6
				C44.2,49.5,44.4,49.5,44.2,49.6z M36.4,64.6c0,0.2-0.1,0.2-0.2,0.2c-0.1,0-0.1-0.6,0-0.7C36.3,64.2,36.3,64.4,36.4,64.6
				C36.4,64.7,36.3,64.4,36.4,64.6z M54.5,36.3c0.3,0,0.6,0.1,0.9,0.3C55,36.7,54.8,36.6,54.5,36.3z M84.4,39.7L84.4,39.7
				c-0.1,0-0.7-0.4-0.4-0.6C84.2,39,84.4,39.6,84.4,39.7z M90.5,42.7c-0.1-0.1-0.4,0-0.4-0.3c0.2,0.1,0.4,0.1,0.6,0.2
				C90.6,42.7,90.6,42.7,90.5,42.7C90.4,42.6,90.6,42.7,90.5,42.7z M55.6,28.7c-0.1-0.1-0.2,0-0.2-0.1c0.2-0.2,0.4-0.1,0.6-0.2
				C56,28.4,55.7,28.8,55.6,28.7C55.5,28.6,55.6,28.7,55.6,28.7z M54.6,28.9c-0.3,0.2-0.5,0.4-0.9,0.4C53.9,29,54.3,28.9,54.6,28.9z
				 M54.5,37.8c0.1,0,0.2,0,0.3,0c-0.4,0.4-0.8-0.2-0.7-0.2C54,37.6,54.5,37.8,54.5,37.8C54.6,37.8,54.4,37.8,54.5,37.8z M54.6,29.1
				c0.2-0.2,0.5-0.2,0.8-0.2C55.2,29,55,29.1,54.6,29.1z M82.9,40.7c-0.3,0,0.5-0.3,0.2,0.1C83.1,40.7,83,40.7,82.9,40.7
				C82.9,40.7,83,40.7,82.9,40.7z M91.9,42.7c-0.2-0.1-0.2-0.2-0.2-0.4C91.9,42.4,92,42.6,91.9,42.7z M55.3,30.4
				c0.1-0.2,0.2-0.2,0.6-0.2C55.7,30.3,55.5,30.4,55.3,30.4z M52.7,31.6c-0.2,0.1-0.4,0.2-0.6,0.2C52.2,31.6,52.4,31.6,52.7,31.6z
				 M74.3,33.1c0,0.1,0,0.1,0.1,0.2c-0.1,0-0.3-0.3-0.1-0.4C74.4,32.9,74.4,33,74.3,33.1C74.3,33.1,74.4,33,74.3,33.1z M41.7,50.8
				c0,0.1-0.1,0.2-0.2,0.2C41.4,50.8,41.6,50.5,41.7,50.8C41.7,50.8,41.6,50.7,41.7,50.8z M53.8,88.3c0.1,0,0.2,0.1,0.2,0.2
				C54,88.8,53.4,88.3,53.8,88.3C53.9,88.3,53.7,88.3,53.8,88.3z M53,31.8c-0.1,0.1-0.2,0.2-0.3,0.2C52.8,31.8,52.9,31.8,53,31.8z
				 M36.7,64.5C36.6,64.9,36.6,64.2,36.7,64.5C36.7,64.6,36.6,64.5,36.7,64.5z M55.4,32.4C55.4,32.4,55.4,32.4,55.4,32.4
				C55.4,32.4,55.3,32.4,55.4,32.4z M53.8,28.9c0,0-0.1,0-0.1,0C53.7,28.9,53.8,28.9,53.8,28.9z M53.7,28.9
				C53.6,28.9,53.7,28.9,53.7,28.9C53.7,28.9,53.7,28.9,53.7,28.9z M53.5,29C53.5,29,53.5,29,53.5,29C53.5,29,53.5,29,53.5,29z
				 M53.5,29c0-0.1,0.1,0,0.2,0C53.6,29,53.6,29,53.5,29z M54.6,29.1L54.6,29.1C54.6,29.1,54.6,29.1,54.6,29.1z M54.6,29.1
				c0,0.1-0.1,0.1-0.1,0.1C54.5,29.1,54.6,29,54.6,29.1z M41.3,66.1C41.3,66,41.4,66.1,41.3,66.1C41.3,66.1,41.4,66.1,41.3,66.1z
				 M80,31.9C80.2,32,80,31.9,80,31.9C80,31.9,80,31.9,80,31.9z M74.4,33.3C74.4,33.3,74.4,33.3,74.4,33.3
				C74.4,33.3,74.4,33.3,74.4,33.3C74.4,33.3,74.4,33.3,74.4,33.3C74.4,33.3,74.4,33.3,74.4,33.3z M54.5,29.1
				C54.5,29.1,54.5,29.1,54.5,29.1C54.5,29.1,54.5,29.1,54.5,29.1C54.5,29.1,54.5,29.1,54.5,29.1z M54.4,29.1
				C54.5,29.1,54.5,29.1,54.4,29.1C54.5,29.2,54.5,29.2,54.4,29.1C54.5,29.1,54.5,29.1,54.4,29.1z M87.4,40.3L87.4,40.3L87.4,40.3
				L87.4,40.3z M58.7,63.6C58.6,63.5,58.8,63.5,58.7,63.6C58.7,63.6,58.7,63.6,58.7,63.6z M75.9,97.2C75.9,97.2,75.9,97.2,75.9,97.2
				C75.8,97.2,75.9,97.2,75.9,97.2C75.9,97.2,75.9,97.2,75.9,97.2z M75.8,97.2C75.8,97.2,75.8,97.2,75.8,97.2L75.8,97.2z M47,38
				c0,0,0.4,0,0.2,0.1C47.1,38.2,47,38.1,47,38C47,38,47,38.1,47,38z M44.9,35.1c-0.1-0.1-0.1-0.1,0.1-0.2C45,34.9,45,35,44.9,35.1
				C44.8,35.1,44.9,35.1,44.9,35.1z"/>
			<path class="st4" d="M78.5,30.5c8.3,6.3,13.7,16.2,13.7,27.4c0,18.9-15.3,34.3-34.3,34.3c-11.2,0-21.1-5.4-27.4-13.7
				c5.7,12.4,18.3,21,32.8,21c20,0,36.1-16.2,36.1-36.1C99.5,48.8,90.9,36.3,78.5,30.5z"/>
			<path class="st5" d="M91.9,42.7c-0.2-0.1-0.2-0.2-0.2-0.4C91.9,42.4,92,42.6,91.9,42.7z M54.9,93.5c-0.9-0.2-2.1-0.1-2.8-0.8
				c-0.4-0.4-0.8-0.8-1.2-1.3c0.9,0.2,1.7,0.3,2.6,0.4c-0.1,0.1,0,0.2,0.4,0.6c-1.2,0,0,0.7,0,0.7c-0.1-0.1-0.1,0,0-0.2
				c-0.1-0.1-0.3,0.1-0.4-0.1c-0.2-0.6,0.9,0.1,0.8,0.1c0.3,0.2,0.9,0.2,1.2,0.4C55.4,93.4,55,93.6,54.9,93.5
				C54.8,93.5,54.8,93.5,54.9,93.5z M51.7,92.1c-0.1,0-0.1,0.1,0,0.1C51.8,92.2,51.8,92.2,51.7,92.1z M53,92.7
				c-0.2,0.1-0.2,0.1,0,0.2C53.1,92.8,53.2,92.7,53,92.7z M90.7,42.6c-0.2-0.2-0.4-0.1-0.6-0.2c0.1,0.2,0.3,0.2,0.4,0.3
				c-0.1-0.1,0,0,0,0C90.6,42.7,90.6,42.7,90.7,42.6z M87.3,40.2c0,0,0.1,0,0.1,0.1C87.3,40.2,87.3,40.2,87.3,40.2
				C87.2,40.2,87.2,40.2,87.3,40.2z M87.4,40.3L87.4,40.3L87.4,40.3L87.4,40.3z M54.9,93.5C54.9,93.5,54.9,93.5,54.9,93.5
				C54.9,93.6,54.9,93.5,54.9,93.5z M96.2,49.8C96.2,49.7,96.1,49.7,96.2,49.8C96.2,49.7,96.2,49.7,96.2,49.8z M75.8,97.2
				c-0.7-0.1-3.3,0.7-3.5,0.1c-0.3-0.1-1.4,0.3-1.8,0.4c-0.8,0.1-1.5,0.3-2.3,0.4c-1.3,0.2-2.5,0.7-3.7,0.8
				c-0.5,0.1-3.9,0.1-4.1-0.5c-0.1-0.4-0.8-0.6-1-0.9c0,0-0.6-0.9-0.6-0.8c0-0.2,0.6-0.3,0.8-0.2C59.5,96,59.8,96.1,60,96
				c-0.2-0.1-2,0.2-2,0.3c-0.1,0.1,0.1,0.2-0.1,0.5c-0.1,0.1-0.4,0-0.5,0.1c-0.1,0.3,1.1,0.2,0.6,0.6c0,0-1,0.1-1.2,0.1
				c0,0.1,1.2,0.4,1.4,0.6c-1.4-0.2-2.8-0.1-4.3-0.3c0.4,0.4,0.9,0.3,1.4,0.5c-0.5,0.1-1-0.2-1.5-0.2c3.6,1.1,7.5,1.4,11.2,1.2
				c2-0.1,3.9-0.3,5.8-0.8C71.3,98.6,75.9,97.3,75.8,97.2C75.8,97.2,75.8,97.2,75.8,97.2z M98.5,63.6C98.5,63.6,98.5,63.6,98.5,63.6
				C98.5,63.8,98.5,63.7,98.5,63.6z M97.7,52.5c0.2,0.6,0.4,1.3,0.5,1.9C98.3,54.1,98.1,53.4,97.7,52.5z M99,66
				c-0.4,2.9-0.6,5.5-1.7,8.3c-0.5,1.3-1,2.5-1.6,3.8c-0.2,0.5-0.7,0.8-0.9,1.3c-0.2,0.5-0.5,1.1-0.9,1.5c-0.8,0.8-1.3,2.1-2.4,2.6
				c-0.5,0.3-1.2,0.2-1.7,0.6c-0.3-0.7,0.5-1.6,0.6-2.2c0.2-1,0.2-2,0.6-2.9c0.7-1.8-0.1-3.9,0.7-5.6c0.3-0.7,0.5-1.3,0.9-1.9
				c0.4-0.6,0.2-1.7,0.3-2.4c0.1-0.9-0.2-2.2-0.6-3c-0.1-0.3-1.1-1.6-0.7-2c0.4-0.3,0.4-1.4,0.2-2.2c0.1-1.3,0.2-2.6,0.2-3.9
				c0-4.7-0.9-9.1-2.6-13.2c0.1,0,0.1,0.1,0.2,0.1c0.4,0,0.5,0.3,0.8,0.4c0.5,0.3-0.6-1.9,0.2-1.3c0.5,0.4,1.2,0.7,1.9,0.9
				c0-0.1,0.1-0.2,0.1-0.3c0.4-0.1,0.8,0.5,0.2-0.5c-0.1-0.3-1.2-2.4-1.5-2.3c-0.1,0.1,0.1,0.2,0,0.3c-0.1,0.1-0.4-0.4-0.5-0.3
				c0,0,0.1,0.2,0,0.3c-0.1,0.2-2-1.6-2-1.9c0.1,0,0.2-0.1,0.3-0.1c0-0.1-0.1-0.2-0.2-0.3c0.1,0,0.1-0.1,0.2-0.1
				c-0.1-0.1-0.1-0.3,0-0.4c0.2-0.1,0.7,0.4,1,0.4c-0.2-0.7-1.4-1.7-2.1-1.9c-0.1,0.1,0,0.2,0,0.3c-0.1-0.2-0.5-0.3-0.6-0.6
				c0.1,0.2,0.3,0.2,0.5,0.2c0.1-0.1-0.6-0.7-0.6-0.8c0,0.2,0,0.3,0.1,0.4c-0.2,0.1-0.3-0.1-0.5-0.1c0.3,0.8,1.3,2.1,2,2.5
				c0,0-0.4,0.3-0.2,0.3c-0.4,0-0.4,0.2-0.6,0.2c0,0.5,0.8,0.6,1,1c0.1,0.2,0.3,0.6,0.4,0.9c-0.3-0.1-1-0.7-1-0.7
				c-0.2,0-1.1-1-1.2-1.2c-0.3-0.4-0.5-0.6-0.8-0.8c-1.7-2.6-3.8-5-6.2-7.1c0-0.2-0.3-0.3-0.5-0.4c-0.4-0.3-0.8-0.6-1.2-1
				c0.3,0.1,0.5,0.2,0.6,0.2c0.6,0.3,1.3,0.7,1.9,1c1.3,0.7,2.5,1.6,3.7,2.5c2.5,1.8,4.7,4,6.6,6.4c2,2.5,3.7,5.4,5,8.4
				c0.5,1.1,0.8,2.2,1.2,3.4c-1-2.5-3.2-6.3-3.4-6.2c-0.2,0.2,1.7,3,1.8,3.3c0.1,0.2,0.1,0.2,0,0.1c0.7,1.6,1.4,3.2,2,4.8
				c0,0,0-0.1,0-0.1c0.2,0.8,0.4,1.6,0.6,2.4l0,0C99.5,59.9,99.4,62.9,99,66z M97.9,62.6c0-0.2,0.2-0.4,0.1-0.6
				C97.9,62.2,97.8,62.4,97.9,62.6z M97.7,63.7c0.1-0.1,0.1-0.2,0.1-0.3C97.7,63.5,97.7,63.6,97.7,63.7z M97.1,73
				c0,0-0.4,0.2-0.3,0.2c0.1,0,0.2,0,0.2-0.1c-0.1,0.1,0,0,0,0C97,73,97,73,97.1,73z M97.5,68.7c-0.3,0.2-0.4,0.2-0.4,0.6
				C97.2,69,97.4,68.9,97.5,68.7z M97.5,67.5c0,0.3,0,1,0.2,1.2c0-1.1,0-2.2,0-3.2C97.5,66.1,97.5,66.9,97.5,67.5
				C97.5,67.3,97.5,67.7,97.5,67.5z M98.1,69.5c0-0.1,0-0.1-0.1-0.2c0,1-0.4,1.9-0.4,2.8C98,71.7,98.1,70.1,98.1,69.5
				C98.1,69.6,98.1,69.5,98.1,69.5z M98.5,63.6c0.1-0.2,0-0.3-0.1-0.5c-0.5,0.3-0.3,1.3-0.3,1.8C98.5,64.5,98.4,64.3,98.5,63.6
				C98.5,63.6,98.6,63.5,98.5,63.6z M75.9,97.2C75.9,97.2,75.9,97.2,75.9,97.2C75.9,97.2,75.8,97.2,75.9,97.2
				C75.9,97.2,75.9,97.2,75.9,97.2z M97.3,75.6c0,0,0,0.1-0.1,0.1C97.3,75.7,97.3,75.7,97.3,75.6z M97.1,76.1
				c-0.2,0.4-0.3,0.7-0.4,1.1C96.8,76.9,97,76.5,97.1,76.1z"/>
		</g>
		<g>
			<path class="st1" d="M111.2,53.1c-3.6,3.5-7.5,7-11.7,10.4c-1.4,1.1-2.8,2.2-4.2,3.3C75.8,81.6,54.7,91.3,41,91.8
				c-0.3,0-0.6,0-0.9,0c-5.2,0-9-1.4-11.1-4.2c-2.5-3.3-2.5-8.3-0.4-14.2c-0.1-0.3-0.2-0.7-0.3-1c-2.5,6.5-2.7,12,0.1,15.6
				c2.3,3,6.2,4.5,11.7,4.5c0.6,0,1.2,0,1.8-0.1C55.7,91.6,76.5,82,95.7,67.4c1.3-1,2.5-2,3.8-3c4.4-3.5,8.5-7.2,12.2-10.8
				c0.9-0.9,1.7-1.7,2.5-2.6l0.9-1.9C113.8,50.5,112.5,51.8,111.2,53.1z"/>
			<path class="st1" d="M106.4,42.1c-0.9,0.8-1.7,1.6-2.6,2.5c-2.1,1.9-4.3,3.9-6.6,5.9c-2.8,2.4-5.8,4.8-8.9,7.1
				C67.7,73.2,46.7,83.6,35.9,83.6c-1,0-1.8-0.1-2.6-0.3c-1.4-0.3-2.5-1-3.2-1.9c-1.1-1.4-1.2-3.4-0.7-5.8c-0.1-0.4-0.3-0.8-0.4-1.1
				c-0.9,3.1-0.8,5.6,0.5,7.4c0.9,1.2,2.4,2,4.4,2.3c0.6,0.1,1.3,0.1,2,0.1c10.9,0,32.1-10.5,52.7-26.3c3-2.3,6-4.7,8.7-7
				c2.4-2,4.7-4,6.9-6c1.3-1.2,2.5-2.3,3.7-3.5L106.4,42.1z"/>
		</g>
		<g>
			<path class="st6" d="M107.1,49.4c-1.2-1.3-3-1.6-6.4,1.3c-1.6,1.4-4.3,4.7-7.4,10.7c6.4-2.2,9.9-4.4,11.6-5.8
				C108.3,52.6,108.2,50.7,107.1,49.4z"/>
			<path class="st7" d="M107.1,49.4c-0.7-0.8-1.9-1-4,0.8c-1,0.9-2.7,2.9-4.6,6.7c4-1.4,6.2-2.7,7.2-3.6
				C107.8,51.4,107.8,50.2,107.1,49.4z"/>
			<path class="st8" d="M112.4,44.7c4.8,5.5,6.2,12.5,3.8,17.1c1.3-0.7,2.6-1.5,3.8-2.6c7.2-6.3,8.3-16.7,2.5-23.4
				c-5.8-6.6-16.3-6.9-23.5-0.6c-1.2,1-2.2,2.2-3,3.4C100.8,36.9,107.5,39.2,112.4,44.7z"/>
			<path class="st9" d="M115.7,49.8c5.5-1.7,10.8-4.6,15.5-8.7c7.8-6.8,12.5-15.7,14.2-25.2c-9.6,0.3-19.1,3.9-26.9,10.6
				c-4.6,4.1-8.2,8.9-10.7,14.1L115.7,49.8z"/>
			<path class="st6" d="M109.4,37.6c-0.6,1-1.2,2.1-1.7,3.2l7.9,9.1c1.1-0.4,2.3-0.8,3.4-1.2L109.4,37.6z"/>
			<polygon class="st8" points="112.5,54.6 102.6,43.2 108.4,41.4 115.1,49.2 			"/>
			<path class="st10" d="M113.3,42.1c-3.2,2.8-5.8,5.8-7.3,8.2c2.6-1.1,5.9-3.3,9.1-6.1c3.2-2.8,5.8-5.8,7.3-8.2
				C119.8,37.1,116.6,39.3,113.3,42.1z"/>
			<ellipse transform="matrix(0.7533 -0.6577 0.6577 0.7533 12.7995 92.7611)" class="st8" cx="130" cy="29.3" rx="5" ry="5"/>
			<ellipse transform="matrix(0.7536 -0.6573 0.6573 0.7536 12.7665 92.7004)" class="st11" cx="130" cy="29.3" rx="3.7" ry="3.7"/>
			<path class="st12" d="M132.8,26.9c-1.3-1.5-3.7-1.7-5.2-0.4c-1.5,1.3-1.7,3.7-0.4,5.2L132.8,26.9z"/>
			<path class="st6" d="M145.3,16c-4.3,0.2-8.7,1-12.8,2.4l8.7,10C143.2,24.5,144.6,20.3,145.3,16z"/>
			<polygon class="st8" points="150,11.9 145.1,17 144.3,16 			"/>
			<path class="st13" d="M122.4,36c-2.6,1.1-5.9,3.3-9.1,6.1c-3.2,2.8-5.8,5.8-7.3,8.2L122.4,36z"/>
		</g>
	</g>
</g>
</svg>
