<?xml version="1.0" encoding="utf-8"?>
<!-- Generator: Adobe Illustrator 19.2.1, SVG Export Plug-In . SVG Version: 6.00 Build 0)  -->
<svg version="1.1" id="Слой_1" xmlns="http://www.w3.org/2000/svg" xmlns:xlink="http://www.w3.org/1999/xlink" x="0px" y="0px"
	 viewBox="0 0 150 150" style="enable-background:new 0 0 150 150;" xml:space="preserve">
<style type="text/css">
	.st0{clip-path:url(#SVGID_2_);}
	.st1{fill:#434649;}
	.st2{fill:#F3F9FE;}
	.st3{fill:#CEE2F2;}
	.st4{fill:#B8D1E6;}
	.st5{fill:#2A455E;}
	.st6{fill:#21374E;}
	.st7{fill:#51677F;}
</style>
<g>
	<g>
		<defs>
			<circle id="SVGID_1_" cx="75" cy="75" r="75"/>
		</defs>
		<use xlink:href="#SVGID_1_"  style="overflow:visible;fill:#F18825;"/>
		<clipPath id="SVGID_2_">
			<use xlink:href="#SVGID_1_"  style="overflow:visible;"/>
		</clipPath>
		<g class="st0">
			<rect x="-33.5" y="95" class="st1" width="36.2" height="36.2"/>
			<rect x="2.7" y="95" class="st2" width="36.2" height="36.2"/>
			<rect x="38.8" y="95" class="st1" width="36.2" height="36.2"/>
			<rect x="75" y="95" class="st2" width="36.2" height="36.2"/>
			<rect x="111.2" y="95" class="st1" width="36.2" height="36.2"/>
			<rect x="-33.5" y="131.1" class="st2" width="36.2" height="36.2"/>
			<rect x="2.7" y="131.1" class="st1" width="36.2" height="36.2"/>
			<rect x="38.8" y="131.1" class="st2" width="36.2" height="36.2"/>
			<rect x="75" y="131.1" class="st1" width="36.2" height="36.2"/>
			<rect x="111.2" y="131.1" class="st2" width="36.2" height="36.2"/>
			<rect x="-33.5" y="167.3" class="st1" width="36.2" height="36.2"/>
			<rect x="2.7" y="167.3" class="st2" width="36.2" height="36.2"/>
			<rect x="38.8" y="167.3" class="st1" width="36.2" height="36.2"/>
			<rect x="75" y="167.3" class="st2" width="36.2" height="36.2"/>
			<rect x="147.3" y="95" class="st2" width="36.2" height="36.2"/>
			<rect x="147.3" y="131.1" class="st1" width="36.2" height="36.2"/>
			<rect x="147.3" y="167.3" class="st2" width="36.2" height="36.2"/>
			<rect x="111.2" y="167.3" class="st1" width="36.2" height="36.2"/>
		</g>
	</g>
	<g>
		<g>
			<path class="st3" d="M59.8,34.2c4.4-3.3,4.4-3.3,4.4-3.3l-13.9-2.8l-5.2,5.1c-2.3,2.3-4.2,5.1-5.3,8.4c-1.2,3.3-1.5,6.7-1.1,9.9
				L41.8,77C41.8,77,47,39.8,59.8,34.2z"/>
			<path class="st2" d="M52,34.2l7.8,0l3.7,3.4c0.1,0.1,0.3,0.3,0.4,0.5c0.1,0.2,0.2,0.4,0.2,0.6l0.2,1l5.6,7l0.9,0.5
				c0.2,0.1,0.4,0.3,0.4,0.6c0.1,0.3,0.1,0.5-0.1,0.7l-2.3,4.9c0,0-4.7,0.8-7.3-0.9c0.2-1.9-0.7-3.2-1.1-3.7
				c-2.6,1.5-6.3,0.8-7.9,0.3C53.9,64.7,73.2,75,73.2,75s-1.1,3.8-5.4,5.7c-7.7,0-22.7,0-22.7,0L41.8,77l0.3-24
				c0-3.1,0.7-6.3,2.1-9.3c1.4-3,3.4-5.6,5.7-7.7L52,34.2z"/>
			<path class="st3" d="M70,73.1c0,0-1.1,3.8-5.4,5.7c-6.2,0-17.3,0-21.2,0l1.7,2c0,0,15,0,22.7,0c4.3-1.9,5.4-5.7,5.4-5.7L70,73.1z
				"/>
			<circle class="st4" cx="61" cy="39" r="0.8"/>
		</g>
		<g>
			<path class="st2" d="M70,81.6c0,0.2-0.1,0.4-0.3,0.6c-0.2,0.2-0.4,0.3-0.6,0.3H43.7c-0.2,0-0.4-0.1-0.6-0.3
				c-0.2-0.2-0.3-0.4-0.3-0.6l0,0c0-0.2,0.1-0.4,0.3-0.6c0.2-0.2,0.4-0.2,0.6-0.2h25.4c0.2,0,0.4,0.1,0.6,0.2
				C69.9,81.1,70,81.4,70,81.6L70,81.6z"/>
			<path class="st2" d="M39.2,87.2v2.2c0,0.3,0.1,0.6,0.3,0.9c0.2,0.2,0.5,0.4,0.9,0.4h32c0.3,0,0.6-0.1,0.9-0.4
				c0.2-0.2,0.4-0.5,0.4-0.9v-2.2H39.2z"/>
			<path class="st3" d="M68.9,82.5H44c0,2.6-2.1,4.7-4.7,4.7h34.4C71,87.2,68.9,85.1,68.9,82.5z"/>
			<rect x="40.5" y="90.6" class="st4" width="32" height="0.9"/>
			<rect x="40.5" y="94.1" class="st4" width="32" height="0.9"/>
			<path class="st2" d="M73.6,92.9c0,0.3-0.1,0.6-0.4,0.9c-0.2,0.2-0.5,0.3-0.9,0.3h-32c-0.3,0-0.6-0.1-0.9-0.3
				c-0.2-0.2-0.3-0.5-0.3-0.9v-0.2c0-0.3,0.1-0.6,0.3-0.9c0.2-0.2,0.5-0.3,0.9-0.3h32c0.3,0,0.6,0.1,0.9,0.3
				c0.2,0.2,0.4,0.6,0.4,0.9V92.9z"/>
		</g>
		<g>
			<polygon class="st2" points="51,35 52.9,35.5 55.7,34.2 55.1,30.2 			"/>
			<polygon class="st4" points="52.6,34.5 54.5,32.2 54.7,33.7 			"/>
		</g>
	</g>
	<g>
		<path class="st5" d="M102.7,84.8H82.5c0,2.1-1.7,3.9-3.8,3.9h27.9C104.4,88.7,102.7,86.9,102.7,84.8z"/>
		<rect x="79.6" y="91.5" class="st6" width="25.9" height="3.5"/>
		<circle class="st5" cx="92.3" cy="54.6" r="8.1"/>
		<path class="st6" d="M96.4,47.5c1.4,1.4,2.2,3.3,2.2,5.5c0,4.3-3.5,7.9-7.9,7.9c-2.1,0-4-0.8-5.5-2.2c1.4,2.4,4,4.1,7.1,4.1
			c4.5,0,8.1-3.6,8.1-8.1C100.5,51.5,98.8,48.9,96.4,47.5z"/>
		<path class="st7" d="M100.5,63.1c0,0.2-0.1,0.4-0.3,0.6c-0.2,0.2-0.4,0.2-0.6,0.2H85c-0.2,0-0.4-0.1-0.6-0.2
			c-0.2-0.2-0.2-0.4-0.2-0.6V63c0-0.2,0.1-0.4,0.2-0.6c0.2-0.2,0.4-0.2,0.6-0.2h14.6c0.2,0,0.4,0.1,0.6,0.2c0.2,0.2,0.3,0.4,0.3,0.6
			V63.1z"/>
		<path class="st5" d="M95,69.2v-1.6c0-2,1.6-3.7,3.7-3.7H95h-5.4h-3.7c2,0,3.7,1.6,3.7,3.7v1.6c0,5.8-2.8,11-7.1,14.2h7.1H95h7.1
			C97.8,80.2,95,75,95,69.2z"/>
		<path class="st6" d="M95,69.2v-1.6c0-2,1.6-3.7,3.7-3.7h-1.3c-2,0-3.7,1.6-3.7,3.7v1.6c0,5.8,2.8,11,7.1,14.2h1.3
			C97.8,80.2,95,75,95,69.2z"/>
		<path class="st7" d="M103.6,84.1c0,0.2-0.1,0.4-0.2,0.5c-0.1,0.1-0.3,0.2-0.5,0.2H82.3c-0.2,0-0.4-0.1-0.5-0.2
			c-0.1-0.1-0.2-0.3-0.2-0.5l0,0c0-0.2,0.1-0.4,0.2-0.5c0.1-0.1,0.3-0.2,0.5-0.2h20.6c0.2,0,0.4,0.1,0.5,0.2
			C103.5,83.8,103.6,83.9,103.6,84.1L103.6,84.1z"/>
		<path class="st7" d="M78.6,88.7v1.8c0,0.3,0.1,0.5,0.3,0.7c0.2,0.2,0.4,0.3,0.7,0.3h26c0.3,0,0.5-0.1,0.7-0.3
			c0.2-0.2,0.3-0.4,0.3-0.7v-1.8H78.6z"/>
		<path class="st7" d="M106.6,93.3c0,0.3-0.1,0.5-0.3,0.7c-0.2,0.2-0.4,0.3-0.7,0.3h-26c-0.3,0-0.5-0.1-0.7-0.3
			c-0.2-0.2-0.3-0.4-0.3-0.7v-0.1c0-0.2,0.1-0.5,0.3-0.7c0.2-0.2,0.4-0.3,0.7-0.3h26c0.3,0,0.5,0.1,0.7,0.3c0.2,0.2,0.3,0.4,0.3,0.7
			V93.3z"/>
	</g>
</g>
</svg>
