<?xml version="1.0" encoding="utf-8"?>
<!-- Generator: Adobe Illustrator 19.2.1, SVG Export Plug-In . SVG Version: 6.00 Build 0)  -->
<svg version="1.1" id="Слой_1" xmlns="http://www.w3.org/2000/svg" xmlns:xlink="http://www.w3.org/1999/xlink" x="0px" y="0px"
	 viewBox="0 0 150 150" style="enable-background:new 0 0 150 150;" xml:space="preserve">
<style type="text/css">
	.st0{fill:#FAFAFA;}
	.st1{fill:#2A455E;}
	.st2{fill:#21374E;}
	.st3{fill:#51677F;}
	.st4{fill:#CEE2F2;}
	.st5{fill:#FFFFFF;}
	.st6{fill:#B8D1E6;}
	.st7{fill:#FFD55E;}
	.st8{fill:#FAB638;}
	.st9{fill:#ED6D43;}
	.st10{fill:#F18825;}
	.st11{clip-path:url(#SVGID_2_);}
</style>
<g>
	<circle class="st0" cx="75" cy="75" r="75"/>
	<g>
		<path class="st1" d="M118.2,98.5c0,0.7-0.3,1.5-0.8,2c-0.6,0.6-1.3,0.8-2,0.8H34.6c-0.7,0-1.5-0.3-2-0.8c-0.6-0.6-0.8-1.3-0.8-2
			V46.9c0-0.7,0.3-1.5,0.8-2c0.6-0.6,1.3-0.8,2-0.8h80.8c0.7,0,1.5,0.3,2,0.8c0.6,0.6,0.8,1.3,0.8,2V98.5z"/>
		<circle class="st2" cx="75" cy="46.3" r="1"/>
		<circle class="st3" cx="75" cy="46.3" r="0.4"/>
		<path class="st4" d="M128.1,103.1c-1.5,1.8-3.8,2.9-6.4,2.9H28.3c-2.5,0-4.8-1.1-6.4-2.9H128.1z"/>
		<path class="st5" d="M128.1,103.1H21.9v-1.2c0-0.1,0-0.2,0.1-0.3c0.1-0.1,0.2-0.1,0.3-0.1h105.2c0.1,0,0.2,0,0.3,0.1
			c0.1,0.1,0.1,0.2,0.1,0.3V103.1z"/>
		<path class="st6" d="M84.9,101.7c0,0.1-0.1,0.3-0.2,0.4c-0.1,0.1-0.3,0.2-0.4,0.2H65.7c-0.1,0-0.3-0.1-0.4-0.2
			c-0.1-0.1-0.2-0.3-0.2-0.4v-0.3h19.7V101.7z"/>
		<rect x="36.2" y="48.4" class="st4" width="77.5" height="48.4"/>
		<rect x="38.4" y="50.6" class="st7" width="73.1" height="44"/>
		<g>
			<g>
				<path class="st8" d="M111.5,94.7H38.4v-44h73.1V94.7z M38.6,94.5h72.8V50.8H38.6V94.5z"/>
				<rect x="38.5" y="90.5" class="st8" width="72.9" height="0.2"/>
				<rect x="38.5" y="86.5" class="st8" width="72.9" height="0.2"/>
				<rect x="38.5" y="82.5" class="st8" width="72.9" height="0.2"/>
				<rect x="38.5" y="78.6" class="st8" width="72.9" height="0.2"/>
				<rect x="38.5" y="74.6" class="st8" width="72.9" height="0.2"/>
				<rect x="38.5" y="70.6" class="st8" width="72.9" height="0.2"/>
				<rect x="38.5" y="66.6" class="st8" width="72.9" height="0.2"/>
				<rect x="38.5" y="62.6" class="st8" width="72.9" height="0.2"/>
				<rect x="38.5" y="58.6" class="st8" width="72.9" height="0.2"/>
				<rect x="38.5" y="54.6" class="st8" width="72.9" height="0.2"/>
				<rect x="106.8" y="50.7" class="st8" width="0.2" height="43.9"/>
				<rect x="102.3" y="50.7" class="st8" width="0.2" height="43.9"/>
				<rect x="97.7" y="50.7" class="st8" width="0.2" height="43.9"/>
				<rect x="93.1" y="50.7" class="st8" width="0.2" height="43.9"/>
				<rect x="88.6" y="50.7" class="st8" width="0.2" height="43.9"/>
				<rect x="84" y="50.7" class="st8" width="0.2" height="43.9"/>
				<rect x="79.5" y="50.7" class="st8" width="0.2" height="43.9"/>
				<rect x="74.9" y="50.7" class="st8" width="0.2" height="43.9"/>
				<rect x="70.4" y="50.7" class="st8" width="0.2" height="43.9"/>
				<rect x="65.8" y="50.7" class="st8" width="0.2" height="43.9"/>
				<rect x="61.2" y="50.7" class="st8" width="0.2" height="43.9"/>
				<rect x="56.7" y="50.7" class="st8" width="0.2" height="43.9"/>
				<rect x="52.1" y="50.7" class="st8" width="0.2" height="43.9"/>
				<rect x="47.6" y="50.7" class="st8" width="0.2" height="43.9"/>
				<rect x="43" y="50.7" class="st8" width="0.2" height="43.9"/>
			</g>
			<polygon class="st5" points="111.5,66.3 102,62.1 92.9,77.4 83.9,74.2 74.9,86 66,78.2 56.9,82.2 38.4,70 38.4,70.9 56.8,83.1 
				65.9,79.1 75.1,87.2 84.2,75.1 93.3,78.4 102.4,63.2 111.5,67.2 			"/>
			<circle class="st9" cx="75" cy="86.6" r="1.9"/>
			<circle class="st1" cx="102.2" cy="62.7" r="1.9"/>
		</g>
	</g>
	<path class="st10" d="M6.7,106c11.8,26,37.9,44,68.3,44s56.5-18.1,68.3-44H6.7z"/>
	<g>
		
			<rect x="118.2" y="79.5" transform="matrix(0.7071 -0.7071 0.7071 0.7071 -24.6021 110.2326)" class="st5" width="5.1" height="10.6"/>
		
			<rect x="130.4" y="87.1" transform="matrix(0.7071 -0.7071 0.7071 0.7071 -30.3464 124.1087)" class="st2" width="8.5" height="23.2"/>
		
			<rect x="139" y="106.5" transform="matrix(0.7072 -0.707 0.707 0.7072 -34.1461 133.2297)" class="st3" width="9.7" height="2.7"/>
		
			<rect x="120.6" y="88.2" transform="matrix(0.7071 -0.7072 0.7072 0.7071 -26.5502 114.954)" class="st3" width="9.7" height="2.7"/>
		<path class="st2" d="M87.4,51.5c-8.6,8.6-8.6,22.6,0,31.3c8.6,8.6,22.6,8.6,31.3,0c8.6-8.6,8.6-22.6,0-31.3
			C110.1,42.9,96.1,42.9,87.4,51.5z"/>
		<g>
			<defs>
				<path id="SVGID_1_" d="M116.1,80.2c-7.2,7.2-19,7.2-26.2,0c-7.2-7.2-7.2-19,0-26.2c7.2-7.2,19-7.2,26.2,0
					C123.4,61.2,123.4,73,116.1,80.2z"/>
			</defs>
			<clipPath id="SVGID_2_">
				<use xlink:href="#SVGID_1_"  style="overflow:visible;"/>
			</clipPath>
			<g class="st11">
				<path class="st1" d="M126.9,111.3c0,1.1-0.4,2.2-1.2,3c-0.8,0.8-1.9,1.2-3,1.2H2.5c-1.1,0-2.2-0.4-3-1.2c-0.8-0.8-1.2-1.9-1.2-3
					V34.6c0-1.1,0.4-2.2,1.2-3c0.8-0.8,1.9-1.2,3-1.2h120.1c1.1,0,2.2,0.4,3,1.2c0.8,0.8,1.2,1.9,1.2,3V111.3z"/>
				<rect x="4.9" y="36.9" class="st4" width="115.2" height="72"/>
				<rect x="8.2" y="40.2" class="st7" width="108.7" height="65.5"/>
				<g>
					<g>
						<path class="st8" d="M116.9,105.6H8.2V40.2h108.7V105.6z M8.5,105.4h108.2v-65H8.5V105.4z"/>
						<rect x="8.3" y="99.5" class="st8" width="108.5" height="0.2"/>
						<rect x="8.3" y="93.5" class="st8" width="108.5" height="0.2"/>
						<rect x="8.3" y="87.6" class="st8" width="108.5" height="0.2"/>
						<rect x="8.3" y="81.7" class="st8" width="108.5" height="0.2"/>
						<rect x="8.3" y="75.7" class="st8" width="108.5" height="0.2"/>
						<rect x="8.3" y="69.8" class="st8" width="108.5" height="0.2"/>
						<rect x="8.3" y="63.9" class="st8" width="108.5" height="0.2"/>
						<rect x="8.3" y="57.9" class="st8" width="108.5" height="0.2"/>
						<rect x="8.3" y="52" class="st8" width="108.5" height="0.2"/>
						<rect x="8.3" y="46.1" class="st8" width="108.5" height="0.2"/>
						<rect x="109.9" y="40.3" class="st8" width="0.2" height="65.2"/>
						<rect x="103.1" y="40.3" class="st8" width="0.2" height="65.2"/>
						<rect x="96.3" y="40.3" class="st8" width="0.2" height="65.2"/>
						<rect x="89.6" y="40.3" class="st8" width="0.2" height="65.2"/>
						<rect x="82.8" y="40.3" class="st8" width="0.2" height="65.2"/>
						<rect x="76" y="40.3" class="st8" width="0.2" height="65.2"/>
						<rect x="69.2" y="40.3" class="st8" width="0.2" height="65.2"/>
						<rect x="62.4" y="40.3" class="st8" width="0.2" height="65.2"/>
						<rect x="55.7" y="40.3" class="st8" width="0.2" height="65.2"/>
						<rect x="48.9" y="40.3" class="st8" width="0.2" height="65.2"/>
						<rect x="42.1" y="40.3" class="st8" width="0.2" height="65.2"/>
						<rect x="35.3" y="40.3" class="st8" width="0.2" height="65.2"/>
						<rect x="28.5" y="40.3" class="st8" width="0.2" height="65.2"/>
						<rect x="21.8" y="40.3" class="st8" width="0.2" height="65.2"/>
						<rect x="15" y="40.3" class="st8" width="0.2" height="65.2"/>
					</g>
					<polygon class="st5" points="116.9,63.5 102.8,57.3 89.3,79.9 75.8,75.1 62.5,92.8 49.2,81.1 35.7,87.1 8.2,68.9 8.2,70.4 
						35.5,88.4 49,82.5 62.7,94.6 76.3,76.6 89.8,81.4 103.2,58.8 116.9,64.8 					"/>
					<circle class="st9" cx="62.6" cy="93.7" r="2.9"/>
					<circle class="st1" cx="103" cy="58" r="2.9"/>
				</g>
			</g>
		</g>
	</g>
</g>
</svg>
