<?xml version="1.0" encoding="utf-8"?>
<!-- Generator: Adobe Illustrator 19.2.1, SVG Export Plug-In . SVG Version: 6.00 Build 0)  -->
<svg version="1.1" id="Слой_1" xmlns="http://www.w3.org/2000/svg" xmlns:xlink="http://www.w3.org/1999/xlink" x="0px" y="0px"
	 viewBox="0 0 150 150" style="enable-background:new 0 0 150 150;" xml:space="preserve">
<style type="text/css">
	.st0{fill:#FFFFFF;}
	.st1{fill:#ED6D43;}
	.st2{fill:#EA5529;}
	.st3{fill:#2A455E;}
	.st4{fill:#E1EFFA;}
	.st5{fill:#E74919;}
	.st6{clip-path:url(#SVGID_2_);}
	.st7{fill:#FAB638;}
	.st8{fill:#FFD55E;}
	.st9{fill:#FDC542;}
</style>
<g>
	<circle class="st0" cx="75" cy="75" r="75"/>
	<g>
		<path class="st1" d="M119.9,78.5c-0.5,0-1.1-0.1-1.8-0.3c0.8-1.3,1.3-2.7,1.3-4c0-2.7-1.9-4.1-3.6-4.1c-0.9,0-1.9,0.4-2.5,1.1
			c-0.5,0.5-1,1.5-1,3c0,1.9,0.7,3.4,1.7,4.5c-0.5,0.3-1,0.6-1.6,0.9C111,62.6,94.2,49.2,73.7,49.2c-3.8,0-7.6,0.5-11.1,1.4
			c-9.1-3.1-20.6-2.1-21.3-0.5c-0.5,1,1.9,5.1,4.6,9c-4.2,3.7-7.4,8.2-9.2,13.2h-5.9c1.2,0,2.1,3.5,2.1,7.8c0,4.3-0.9,7.8-2.1,7.8
			c-0.1,0-0.1,0-0.2,0c0.1,0,0.1,0.1,0.2,0.1l6,3.1c2.5,6.9,7.7,12.9,14.6,17v11.1c0,0.4,0.1,0.7,0.4,1c0.3,0.3,0.6,0.4,1,0.4h10.5
			c0.5,0,1-0.1,1.5-0.4c0.5-0.3,0.8-0.7,1-1.2l2.4-5.2c1.8,0.2,3.7,0.3,5.6,0.3c3,0,5.9-0.3,8.7-0.8v5.9c0,0.4,0.1,0.7,0.4,1
			c0.3,0.3,0.6,0.4,1,0.4h10.6c0.5,0,1-0.1,1.5-0.4c0.5-0.3,0.8-0.7,1-1.1c0,0,13.2-26.4,13.4-26.7c0.7-1.8,1.3-3.6,1.6-5.5
			c0.3-1.4,0.4-2.9,0.5-4.4c1.5-0.5,2.8-1.2,3.8-2.1c1.2,0.6,2.6,0.9,3.7,0.9c0.8,0,1.4-0.6,1.4-1.4
			C121.3,79.1,120.7,78.5,119.9,78.5z M115.8,76.6c-0.5-0.6-0.8-1.4-0.8-2.4c0-0.8,0.3-1.3,0.8-1.3c0.4,0,0.8,0.4,0.8,1.3
			C116.6,74.9,116.3,75.8,115.8,76.6z"/>
		<path class="st2" d="M39.2,81.7c0-5.2-1.1-9.4-2.5-9.4h-5.9c1.2,0,2.1,3.5,2.1,7.8c0,4.3-0.9,7.8-2.1,7.8c-0.1,0-0.2,0-0.2,0
			c0.1,0,0.1,0.1,0.2,0.1l5.3,2.7l0.5,0.3l0.1,0.1c0,0,0,0,0,0C38.1,91,39.2,86.9,39.2,81.7z"/>
		<ellipse class="st1" cx="30.8" cy="80.2" rx="2.1" ry="7.8"/>
		<path class="st2" d="M119.9,78.5c-0.5,0-1.1-0.1-1.8-0.3c0.8-1.3,1.3-2.7,1.3-4c0-2.7-1.9-4.1-3.6-4.1c-0.9,0-1.9,0.4-2.5,1.1
			c-0.5,0.5-1,1.5-1,3c0,1.9,0.7,3.4,1.7,4.5c-0.5,0.3-1,0.6-1.6,0.9c-0.8-10.1-7.1-18.9-16.3-24.4c6.2,5.6,10,13.2,10,21.4
			c0,17.4-16.8,31.6-37.5,31.6c-11.8,0-22.3-4.6-29.2-11.7c2.8,4.7,7,8.7,12,11.7v11.1c0,0.4,0.1,0.7,0.4,1c0.3,0.3,0.6,0.4,1,0.4
			h10.5c0.5,0,1-0.1,1.5-0.4c0.5-0.3,0.8-0.7,1-1.2l2.4-5.2c1.8,0.2,3.7,0.3,5.6,0.3c3,0,5.9-0.3,8.7-0.8v5.9c0,0.4,0.1,0.7,0.4,1
			c0.3,0.3,0.6,0.4,1,0.4h10.6c0.5,0,1-0.1,1.5-0.4c0.5-0.3,0.8-0.7,1-1.1c0,0,13.2-26.4,13.4-26.7c0.7-1.8,1.3-3.6,1.6-5.5
			c0.3-1.4,0.4-2.9,0.5-4.4c1.5-0.5,2.8-1.2,3.8-2.1c1.2,0.6,2.6,0.9,3.7,0.9c0.8,0,1.4-0.6,1.4-1.4
			C121.3,79.1,120.7,78.5,119.9,78.5z M115.8,76.6c-0.5-0.6-0.8-1.4-0.8-2.4c0-0.8,0.3-1.3,0.8-1.3c0.4,0,0.8,0.4,0.8,1.3
			C116.6,74.9,116.3,75.8,115.8,76.6z"/>
		<path class="st1" d="M54.6,120.2c0.3,0.3,0.6,0.4,1,0.4h-2.8c-0.4,0-0.7-0.1-1-0.4c-0.3-0.3-0.4-0.6-0.4-1v-11.1l2.8,1.5v9.6
			C54.2,119.6,54.3,119.9,54.6,120.2z M85.6,120.2c-0.3-0.3-0.4-0.6-0.4-1v-6.6c-0.9,0.2-1.9,0.5-2.8,0.7v5.9c0,0.4,0.1,0.7,0.4,1
			c0.3,0.3,0.6,0.4,1,0.4h2.8C86.3,120.6,85.9,120.5,85.6,120.2z"/>
		<g>
			<ellipse class="st3" cx="48.6" cy="70.9" rx="3.4" ry="3.4"/>
			<circle class="st4" cx="47.6" cy="69.9" r="1.3"/>
		</g>
		<path class="st5" d="M87.5,59c-0.1,0-0.2,0-0.4-0.1c-8.7-2.6-18-2.6-26.7,0c-0.7,0.2-1.4-0.2-1.6-0.8c-0.2-0.7,0.2-1.4,0.8-1.6
			c9.2-2.8,19-2.8,28.2,0c0.7,0.2,1.1,0.9,0.8,1.6C88.5,58.7,88,59,87.5,59z"/>
		<g>
			<defs>
				<path id="SVGID_1_" d="M87.8,56.5c-0.1,0-0.1,0-0.2-0.1V34.7H59.8v21.8c-0.1,0-0.1,0-0.2,0.1c-0.7,0.2-1.1,0.9-0.8,1.6
					c0.2,0.7,0.9,1,1.6,0.8c8.7-2.6,18-2.6,26.7,0c0.1,0,0.2,0.1,0.4,0.1c0.5,0,1.1-0.4,1.2-0.9C88.9,57.4,88.5,56.7,87.8,56.5z"/>
			</defs>
			<clipPath id="SVGID_2_">
				<use xlink:href="#SVGID_1_"  style="overflow:visible;"/>
			</clipPath>
			<g class="st6">
				<path class="st7" d="M84.5,53.4c0,6-4.8,10.8-10.8,10.8c-6,0-10.8-4.8-10.8-10.8c0-6,4.8-10.8,10.8-10.8
					C79.7,42.6,84.5,47.4,84.5,53.4z"/>
				<path class="st8" d="M84.5,52.1c0,6-4.8,10.8-10.8,10.8c-6,0-10.8-4.8-10.8-10.8c0-6,4.8-10.8,10.8-10.8
					C79.7,41.3,84.5,46.1,84.5,52.1z"/>
				<path class="st9" d="M73.7,60.2c-4.5,0-8.1-3.6-8.1-8.1c0-4.5,3.6-8.1,8.1-8.1c4.5,0,8.1,3.6,8.1,8.1
					C81.8,56.6,78.2,60.2,73.7,60.2z"/>
				<path class="st7" d="M66.5,53c0-4.5,3.6-8.1,8.1-8.1c2,0,3.9,0.7,5.3,2c-1.5-1.7-3.7-2.8-6.1-2.8c-4.5,0-8.1,3.6-8.1,8.1
					c0,2.5,1.1,4.7,2.8,6.1C67.3,56.8,66.5,55,66.5,53z"/>
			</g>
		</g>
		<g>
			<circle class="st7" cx="55.1" cy="33.5" r="5.3"/>
			<circle class="st8" cx="55.1" cy="32.9" r="5.3"/>
			<circle class="st9" cx="55.1" cy="32.9" r="3.9"/>
			<path class="st7" d="M51.6,33.3c0-2.2,1.8-3.9,3.9-3.9c1,0,1.9,0.4,2.6,1c-0.7-0.8-1.8-1.4-3-1.4c-2.2,0-3.9,1.8-3.9,3.9
				c0,1.2,0.5,2.3,1.4,3C52,35.2,51.6,34.3,51.6,33.3z"/>
		</g>
		<g>
			<circle class="st7" cx="81.6" cy="25.8" r="7.9"/>
			<path class="st8" d="M89.6,24.9c0,4.4-3.6,8-7.9,8c-4.4,0-7.9-3.6-7.9-8c0-4.4,3.6-7.9,7.9-7.9C86,17,89.6,20.5,89.6,24.9z"/>
			<circle class="st9" cx="81.6" cy="24.9" r="5.9"/>
			<path class="st7" d="M76.3,25.5c0-3.3,2.7-5.9,5.9-5.9c1.5,0,2.8,0.5,3.9,1.4c-1.1-1.3-2.7-2.1-4.5-2.1c-3.3,0-5.9,2.7-5.9,5.9
				c0,1.8,0.8,3.4,2.1,4.5C76.9,28.4,76.3,27,76.3,25.5z"/>
		</g>
	</g>
</g>
</svg>
