<svg id="Слой_1" data-name="Слой 1" xmlns="http://www.w3.org/2000/svg" viewBox="0 0 149.74 127.21"><defs><style>.cls-1{fill:#fff;opacity:0.35;}.cls-2{fill:#d7d7d7;}.cls-3{fill:#f3f3f3;}.cls-4{fill:#706f6f;}.cls-5{fill:#afafaf;}.cls-6{fill:#f6f6f6;}.cls-7{fill:#ffc20f;}.cls-8{fill:#ededed;}.cls-9{fill:#b2b2b2;}.cls-10{fill:#575756;}.cls-11{fill:#e04327;}.cls-12{fill:#29235c;}.cls-13{fill:#ce3a21;}.cls-14{fill:#c6c6c6;}.cls-15{fill:#7f2e6b;}.cls-16{fill:#ffc00f;}.cls-17{fill:#1d71b8;}.cls-18{fill:#c2185b;}.cls-19{fill:#eedbb0;}.cls-20{fill:#ffeb3b;}</style></defs><title>service-item-3</title><circle id="Background_2" data-name="Background 2" class="cls-1" cx="74.87" cy="63.61" r="60.22"/><g id="Application"><g id="Computer"><path class="cls-2" d="M6401.43,403.66a1.79,1.79,0,0,0-2-1.44h-14.1a1.79,1.79,0,0,0-2,1.44l-3.41,12.62a1.79,1.79,0,0,0,2,1.44h21.77a1.79,1.79,0,0,0,2-1.44Z" transform="translate(-6294.72 -317.77)"/><rect class="cls-3" x="48.14" y="16.34" width="101.6" height="70.07" rx="2" ry="2"/><rect class="cls-4" x="48.14" y="20.22" width="101.6" height="56.38"/><rect class="cls-5" x="75.63" y="94.78" width="45.15" height="6.02" rx="2" ry="2"/><polygon class="cls-6" points="148.43 24.22 48.14 24.22 48.14 71.59 117.61 71.59 127.73 71.59 149.74 71.59 149.74 44.9 149.74 32.62 149.74 28.96 149.74 24.22 148.43 24.22"/><rect class="cls-7" x="48.14" y="24.22" width="101.6" height="4.11"/><circle class="cls-8" cx="146.11" cy="26.31" r="0.88"/><circle class="cls-8" cx="142.7" cy="26.31" r="0.88"/><circle class="cls-8" cx="139.3" cy="26.31" r="0.88"/><path class="cls-8" d="M6361.58,344.08a0.88,0.88,0,0,1-.88.88H6349a0.88,0.88,0,0,1-.88-0.88h0a0.88,0.88,0,0,1,.88-0.88h11.68a0.88,0.88,0,0,1,.88.88h0Z" transform="translate(-6294.72 -317.77)"/><rect class="cls-9" x="57.35" y="30.49" width="7.8" height="1.88"/><rect class="cls-9" x="66.32" y="30.49" width="3.9" height="1.88"/><rect class="cls-9" x="70.98" y="30.49" width="8.52" height="1.88"/><rect class="cls-10" x="64.8" y="36.95" width="5.92" height="1.7"/><rect class="cls-10" x="71.46" y="36.95" width="13.78" height="1.7"/><rect class="cls-10" x="86.32" y="36.95" width="11.77" height="1.7"/><rect class="cls-10" x="66.59" y="40.71" width="9.41" height="1.7"/><rect class="cls-10" x="77.35" y="40.71" width="4.3" height="1.7"/><rect class="cls-10" x="82.73" y="40.71" width="4.3" height="1.7"/><rect class="cls-10" x="88.11" y="40.71" width="15.57" height="1.7"/><rect class="cls-10" x="63.01" y="33.72" width="9.41" height="1.7"/><rect class="cls-10" x="73.76" y="33.72" width="2.96" height="1.7"/><rect class="cls-10" x="84.52" y="33.72" width="7.44" height="1.7"/><rect class="cls-10" x="77.35" y="33.72" width="6.1" height="1.7"/><rect class="cls-11" x="57.35" y="44.66" width="7.8" height="1.88"/><rect class="cls-11" x="66.32" y="44.66" width="3.9" height="1.88"/><rect class="cls-11" x="70.98" y="44.66" width="8.52" height="1.88"/><rect class="cls-12" x="79.95" y="44.66" width="8.52" height="1.88"/><rect class="cls-9" x="57.35" y="58.29" width="7.8" height="1.88"/><rect class="cls-11" x="66.32" y="58.29" width="3.9" height="1.88"/><rect class="cls-11" x="70.98" y="58.29" width="8.52" height="1.88"/><rect class="cls-12" x="79.95" y="58.29" width="8.52" height="1.88"/><rect class="cls-10" x="66.59" y="52.73" width="9.41" height="1.7"/><rect class="cls-10" x="77.35" y="52.73" width="4.3" height="1.7"/><rect class="cls-10" x="82.73" y="52.73" width="4.3" height="1.7"/><rect class="cls-10" x="88.11" y="52.73" width="15.57" height="1.7"/><rect class="cls-10" x="63.01" y="48.6" width="9.41" height="1.7"/><rect class="cls-10" x="73.76" y="48.6" width="2.96" height="1.7"/><rect class="cls-10" x="84.52" y="48.6" width="7.44" height="1.7"/><rect class="cls-10" x="77.35" y="48.6" width="6.1" height="1.7"/><rect class="cls-10" x="63.01" y="62.41" width="5.92" height="1.7"/><rect class="cls-10" x="69.67" y="62.41" width="13.78" height="1.7"/><rect class="cls-10" x="84.52" y="62.41" width="11.77" height="1.7"/><rect class="cls-10" x="64.8" y="66" width="9.41" height="1.7"/><rect class="cls-10" x="75.56" y="66" width="4.3" height="1.7"/><rect class="cls-10" x="80.94" y="66" width="4.3" height="1.7"/><rect class="cls-10" x="86.32" y="66" width="15.57" height="1.7"/></g><g id="Page"><rect class="cls-6" y="38.3" width="79.86" height="70.04" rx="1.51" ry="1.51"/><path class="cls-13" d="M6373.07,356.07h-76.84a1.51,1.51,0,0,0-1.51,1.51V362h79.86v-4.45A1.51,1.51,0,0,0,6373.07,356.07Z" transform="translate(-6294.72 -317.77)"/><circle class="cls-8" cx="75.54" cy="41.28" r="1.3"/><circle class="cls-8" cx="70.5" cy="41.28" r="1.3"/><circle class="cls-8" cx="65.46" cy="41.28" r="1.3"/><path class="cls-8" d="M6316.64,359a1.3,1.3,0,0,1-1.3,1.3H6298a1.3,1.3,0,0,1-1.3-1.3h0a1.3,1.3,0,0,1,1.3-1.3h17.3a1.3,1.3,0,0,1,1.3,1.3h0Z" transform="translate(-6294.72 -317.77)"/><rect class="cls-14" x="5.41" y="50.41" width="68.82" height="23.15"/><polygon class="cls-15" points="5.41 73.55 16.61 62.81 19.89 66.33 31.73 58.03 41.81 65.79 52.01 54.49 59.95 63.43 70.5 51.47 74.23 61.38 74.23 73.55 5.41 73.55"/><polygon class="cls-16" points="5.41 73.55 11.49 61.21 17.5 70.44 23.78 65.93 30.89 70.53 44.83 59.53 54.34 69.76 62.59 56.76 74.23 73.55 5.41 73.55"/><rect class="cls-16" x="5.41" y="84.32" width="8.85" height="10.98"/><rect class="cls-15" x="18.04" y="84.32" width="9.07" height="10.98"/><rect class="cls-9" x="5.41" y="97.32" width="8.85" height="0.92"/><rect class="cls-9" x="5.41" y="98.58" width="8.85" height="0.92"/><rect class="cls-9" x="18.01" y="97.32" width="8.85" height="0.92"/><rect class="cls-9" x="18.01" y="98.58" width="8.85" height="0.92"/><rect class="cls-12" x="23.42" y="74.89" width="32.5" height="3.09"/><rect class="cls-17" x="24.74" y="78.74" width="29.85" height="1.76"/><rect class="cls-9" x="35.26" y="84.32" width="38.98" height="9.97"/><rect class="cls-9" x="35.26" y="95.3" width="38.98" height="1.51"/><rect class="cls-9" x="35.26" y="97.82" width="38.98" height="1.51"/><rect class="cls-9" x="35.26" y="100.34" width="38.98" height="1.51"/></g><g id="Gear"><path class="cls-7" d="M6384.05,442.08a23.19,23.19,0,0,0,3.88-2.72l-1.2-5.14a18.32,18.32,0,0,0,1.71-2.26l5.27-.27a23,23,0,0,0,1.53-4.48l-4-3.45a18.64,18.64,0,0,0,.05-2.83l4.11-3.31a22.8,22.8,0,0,0-1.39-4.52l-5.27-.44c-0.24-.4-0.49-0.8-0.76-1.19s-0.56-.76-0.86-1.12l1.38-5.1a22.72,22.72,0,0,0-3.78-2.84l-4.52,2.73a18.64,18.64,0,0,0-2.68-.92l-1.88-4.93a23.11,23.11,0,0,0-4.73-.08l-2.05,4.86a18.29,18.29,0,0,0-2.71.83l-4.42-2.88a23.17,23.17,0,0,0-3.88,2.72l1.2,5.14a18.24,18.24,0,0,0-1.7,2.26l-5.27.27a23,23,0,0,0-1.53,4.48l4,3.45a18.72,18.72,0,0,0-.05,2.83l-4.11,3.31a22.68,22.68,0,0,0,1.39,4.52l5.27,0.44c0.24,0.4.49,0.8,0.76,1.19s0.56,0.76.86,1.12l-1.38,5.1a22.83,22.83,0,0,0,3.78,2.84l4.52-2.73a18.49,18.49,0,0,0,2.68.92l1.88,4.93a23,23,0,0,0,4.73.09l2.05-4.86a18.28,18.28,0,0,0,2.71-.83Z" transform="translate(-6294.72 -317.77)"/><circle class="cls-13" cx="6373.34" cy="422.04" r="7.81" transform="translate(-5165.92 3750.15) rotate(-38.59)"/><g id="Gear-2" data-name="Gear"><path class="cls-18" d="M6423.15,441.24a17.86,17.86,0,0,0,2.81-2.32l-1.23-3.88a14,14,0,0,0,1.17-1.84l4-.53a17.69,17.69,0,0,0,.91-3.53l-3.28-2.41a14.28,14.28,0,0,0-.13-2.18l3-2.79a17.54,17.54,0,0,0-1.34-3.39l-4.07,0c-0.21-.3-0.42-0.59-0.66-0.87s-0.48-.55-0.73-0.81l0.75-4a17.52,17.52,0,0,0-3.07-2l-3.31,2.37a14.29,14.29,0,0,0-2.12-.54l-1.75-3.68a17.83,17.83,0,0,0-3.64.22l-1.28,3.86a14.15,14.15,0,0,0-2,.8l-3.57-1.95a18,18,0,0,0-2.81,2.32L6402,418a14,14,0,0,0-1.17,1.84l-4,.53a17.74,17.74,0,0,0-.91,3.53l3.28,2.41a14.27,14.27,0,0,0,.13,2.18l-3,2.79a17.59,17.59,0,0,0,1.34,3.39l4.07,0c0.21,0.3.42,0.59,0.66,0.87s0.48,0.55.73,0.81l-0.75,4a17.59,17.59,0,0,0,3.07,2l3.31-2.37a14.21,14.21,0,0,0,2.12.54l1.75,3.68a17.66,17.66,0,0,0,3.64-.22l1.28-3.86a14,14,0,0,0,2-.8Z" transform="translate(-6294.72 -317.77)"/><circle class="cls-19" cx="6413.37" cy="426.52" r="7.21" transform="translate(-5099.63 3861.46) rotate(-39.53)"/></g></g><g id="Arrow"><circle class="cls-20" cx="10.2" cy="57.33" r="7.43"/><circle class="cls-20" cx="10.18" cy="57.31" r="5.46"/><polygon class="cls-20" points="145.65 0 128.93 1.1 133.66 6.89 100.5 33.83 89.99 12.11 64.83 49.9 42.32 18.83 9.33 55.31 11.03 58.67 41.83 25.19 66.16 57.33 89.39 19.5 99.92 40.31 136.05 9.81 140.13 14.8 145.65 0"/></g></g></svg>