<svg id="Слой_1" data-name="Слой 1" xmlns="http://www.w3.org/2000/svg" viewBox="0 0 154.11 123.16"><defs><style>.cls-1,.cls-8{fill:#fff;}.cls-1{opacity:0.35;}.cls-2{fill:#dadada;}.cls-3{fill:#ededed;}.cls-4{fill:#706f6f;}.cls-5{fill:#b2b2b2;}.cls-6{fill:#a0eadd;}.cls-7{fill:red;}.cls-9{fill:#1565c0;}.cls-10{fill:#f5f5f5;}.cls-11{fill:#dd1f26;}.cls-12{fill:#f2ce1c;}.cls-13{fill:#bf880c;}.cls-14{fill:#575756;}.cls-15{fill:#e94e1b;}.cls-16{fill:#ffe70b;}.cls-17{fill:#c44121;}.cls-18{fill:#c6c6c6;}.cls-19{fill:#96230c;}.cls-20{fill:#f6f6f6;}</style></defs><title>service-item-4</title><circle id="Background_2" data-name="Background 2" class="cls-1" cx="77.06" cy="61.58" r="59.99"/><g id="Creative_Campaign" data-name="Creative Campaign"><g id="Computer"><path class="cls-2" d="M5480,701.1c0-.88-1-1.59-2.21-1.59h-15.57a2,2,0,0,0-2.21,1.59L5456.18,715a2,2,0,0,0,2.21,1.59h24.05a2,2,0,0,0,2.21-1.59Z" transform="translate(-5385.89 -598.32)"/><rect class="cls-3" x="29.35" y="25.93" width="112.26" height="77.42" rx="2.21" ry="2.21"/><rect class="cls-4" x="29.35" y="30.21" width="112.26" height="62.3"/><rect class="cls-5" x="59.72" y="112.6" width="49.89" height="6.65" rx="2.21" ry="2.21"/><polygon class="cls-6" points="140.16 34.63 29.35 34.63 29.35 86.98 106.1 86.98 117.29 86.98 141.61 86.98 141.61 57.48 141.61 43.91 141.61 39.88 141.61 34.63 140.16 34.63"/></g><g id="Play"><path class="cls-7" d="M5474.73,602h-27.06a1.49,1.49,0,0,0-1.49,1.49v16.15a1.49,1.49,0,0,0,1.49,1.49h27.06a1.49,1.49,0,0,0,1.49-1.49V603.52A1.49,1.49,0,0,0,5474.73,602Z" transform="translate(-5385.89 -598.32)"/><path class="cls-7" d="M5447.66,621.17h27.06a1.49,1.49,0,0,0,1.49-1.49V609.51l-30-5.44v15.6A1.49,1.49,0,0,0,5447.66,621.17Z" transform="translate(-5385.89 -598.32)"/><path class="cls-8" d="M5466,610.2l0,0-6.94-3.48a2.27,2.27,0,0,0-.91-0.3,0.63,0.63,0,0,0-.64.73v7.31a0.81,0.81,0,0,0,.83,1,2,2,0,0,0,.69-0.15l7-3.57,0,0A1,1,0,0,0,5466,610.2Z" transform="translate(-5385.89 -598.32)"/></g><g id="Chat"><path class="cls-9" d="M5500.82,659.28c-4.11-2.87-6.65-6.81-6.65-11.17,0-8.75,10.26-15.85,22.92-15.85s22.92,7.1,22.92,15.85S5529.74,664,5517.08,664a30.76,30.76,0,0,1-12-2.36,9,9,0,0,1-9,.15C5499,661.76,5500.29,660.38,5500.82,659.28Z" transform="translate(-5385.89 -598.32)"/><circle class="cls-10" cx="120.18" cy="48.64" r="3.3"/><circle class="cls-10" cx="131.19" cy="48.64" r="3.3"/><circle class="cls-10" cx="142.2" cy="48.64" r="3.3"/><path class="cls-11" d="M5517.11,641.39c4.11-2.87,6.65-6.81,6.65-11.17,0-8.75-10.26-15.85-22.92-15.85s-22.92,7.1-22.92,15.85,10.26,15.85,22.92,15.85a30.76,30.76,0,0,0,12-2.36,9,9,0,0,0,9,.15C5518.88,643.87,5517.63,642.49,5517.11,641.39Z" transform="translate(-5385.89 -598.32)"/><circle class="cls-10" cx="102.77" cy="31.58" r="3.3"/><circle class="cls-10" cx="113.78" cy="31.58" r="3.3"/><circle class="cls-10" cx="124.79" cy="31.58" r="3.3"/></g><g id="Email"><rect class="cls-12" x="88.49" y="81.18" width="44.4" height="28.9"/><path class="cls-13" d="M5474.85,708.27a0.33,0.33,0,0,1-.21-0.59l0.51-.42a0.33,0.33,0,0,1,.42.51l-0.51.42A0.33,0.33,0,0,1,5474.85,708.27Z" transform="translate(-5385.89 -598.32)"/><path class="cls-13" d="M5476.35,707a0.33,0.33,0,0,1-.21-0.59l1-.81a0.33,0.33,0,1,1,.42.51l-1,.81A0.33,0.33,0,0,1,5476.35,707Zm2-1.62a0.33,0.33,0,0,1-.21-0.59l1-.81a0.33,0.33,0,0,1,.42.51l-1,.81A0.33,0.33,0,0,1,5478.32,705.42Zm2-1.62a0.33,0.33,0,0,1-.21-0.59l1-.81a0.33,0.33,0,0,1,.42.51l-1,.81A0.33,0.33,0,0,1,5480.29,703.81Zm2-1.62a0.33,0.33,0,0,1-.21-0.59l1-.81a0.33,0.33,0,0,1,.42.51l-1,.81A0.33,0.33,0,0,1,5482.26,702.19Zm2-1.62A0.33,0.33,0,0,1,5484,700l1-.81a0.33,0.33,0,1,1,.42.51l-1,.81A0.33,0.33,0,0,1,5484.23,700.57Zm2-1.62a0.33,0.33,0,0,1-.21-0.59l1-.81a0.33,0.33,0,1,1,.42.51l-1,.81A0.33,0.33,0,0,1,5486.21,699Zm2-1.62a0.33,0.33,0,0,1-.21-0.59l1-.81a0.33,0.33,0,1,1,.42.51l-1,.81A0.33,0.33,0,0,1,5488.18,697.34Zm2-1.62a0.33,0.33,0,0,1-.21-0.59l1-.81a0.33,0.33,0,0,1,.42.51l-1,.81A0.33,0.33,0,0,1,5490.15,695.72Zm2-1.62a0.33,0.33,0,0,1-.21-0.59l1-.81a0.33,0.33,0,0,1,.42.51l-1,.81A0.33,0.33,0,0,1,5492.12,694.1Zm2-1.62a0.33,0.33,0,0,1-.21-0.59l1-.81a0.33,0.33,0,0,1,.42.51l-1,.81A0.33,0.33,0,0,1,5494.1,692.49Z" transform="translate(-5385.89 -598.32)"/><path class="cls-13" d="M5497.09,690.87a0.33,0.33,0,0,1-.21-0.08l-0.3-.25-0.3.25a0.33,0.33,0,1,1-.42-0.51l0.51-.42a0.33,0.33,0,0,1,.42,0l0.51,0.42A0.33,0.33,0,0,1,5497.09,690.87Z" transform="translate(-5385.89 -598.32)"/><path class="cls-13" d="M5516.68,707a0.33,0.33,0,0,1-.21-0.08l-1-.81a0.33,0.33,0,0,1,.42-0.51l1,0.81A0.33,0.33,0,0,1,5516.68,707Zm-2-1.61a0.33,0.33,0,0,1-.21-0.08l-1-.81A0.33,0.33,0,1,1,5514,704l1,0.81A0.33,0.33,0,0,1,5514.72,705.4Zm-2-1.61a0.33,0.33,0,0,1-.21-0.08l-1-.81a0.33,0.33,0,1,1,.42-0.51l1,0.81A0.33,0.33,0,0,1,5512.76,703.78Zm-2-1.61a0.33,0.33,0,0,1-.21-0.08l-1-.81a0.33,0.33,0,0,1,.42-0.51l1,0.81A0.33,0.33,0,0,1,5510.81,702.17Zm-2-1.61a0.33,0.33,0,0,1-.21-0.08l-1-.81a0.33,0.33,0,0,1,.42-0.51l1,0.81A0.33,0.33,0,0,1,5508.85,700.55Zm-2-1.61a0.33,0.33,0,0,1-.21-0.08l-1-.81a0.33,0.33,0,1,1,.42-0.51l1,0.81A0.33,0.33,0,0,1,5506.89,698.94Zm-2-1.61a0.33,0.33,0,0,1-.21-0.08l-1-.81a0.33,0.33,0,0,1,.42-0.51l1,0.81A0.33,0.33,0,0,1,5504.93,697.33Zm-2-1.61a0.33,0.33,0,0,1-.21-0.08l-1-.81a0.33,0.33,0,1,1,.42-0.51l1,0.81A0.33,0.33,0,0,1,5503,695.71Zm-2-1.61a0.33,0.33,0,0,1-.21-0.08l-1-.81a0.33,0.33,0,1,1,.42-0.51l1,0.81A0.33,0.33,0,0,1,5501,694.1Zm-2-1.61a0.33,0.33,0,0,1-.21-0.08l-1-.81a0.33,0.33,0,0,1,.42-0.51l1,0.81A0.33,0.33,0,0,1,5499,692.49Z" transform="translate(-5385.89 -598.32)"/><path class="cls-13" d="M5518.17,708.24a0.33,0.33,0,0,1-.21-0.08l-0.51-.42a0.33,0.33,0,0,1,.42-0.51l0.51,0.42A0.33,0.33,0,0,1,5518.17,708.24Z" transform="translate(-5385.89 -598.32)"/><polygon class="cls-13" points="121.49 81.18 88.49 81.18 110.69 95.64 132.89 81.18 121.49 81.18"/><polygon class="cls-12" points="88.49 81.18 110.69 66.73 132.89 81.18 88.49 81.18"/></g><g id="Lamp"><path class="cls-14" d="M5412.46,641.29a0.85,0.85,0,0,0,1.06.57l10.78-3.2a0.85,0.85,0,0,0,.57-1.06h0a0.85,0.85,0,0,0-1.06-.57l-10.78,3.2a0.85,0.85,0,0,0-.57,1.06h0Z" transform="translate(-5385.89 -598.32)"/><path class="cls-14" d="M5413.11,643.47a0.85,0.85,0,0,0,1.06.57l10.78-3.2a0.85,0.85,0,0,0,.57-1.06h0a0.85,0.85,0,0,0-1.06-.57l-10.78,3.2a0.85,0.85,0,0,0-.57,1.06h0Z" transform="translate(-5385.89 -598.32)"/><path class="cls-14" d="M5413.76,645.64a0.85,0.85,0,0,0,1.06.57l10.78-3.2a0.85,0.85,0,0,0,.57-1.06h0a0.85,0.85,0,0,0-1.06-.57l-10.78,3.2a0.85,0.85,0,0,0-.57,1.06h0Z" transform="translate(-5385.89 -598.32)"/><path class="cls-15" d="M5424.48,647.44l-6.54,1.94c-0.45.13-1.09-.67-1.22-1.12l8.17-2.43C5425,646.28,5424.93,647.3,5424.48,647.44Z" transform="translate(-5385.89 -598.32)"/><path class="cls-14" d="M5415,646.76l10.78-3.2a0.85,0.85,0,0,1,.49,1.63l-1.42.42-8.17,2.43-1.2.36A0.85,0.85,0,1,1,5415,646.76Z" transform="translate(-5385.89 -598.32)"/><path class="cls-16" d="M5408,603.59a16.52,16.52,0,0,1,16.56,27.31l-0.32,4.8a0.63,0.63,0,0,1-.57.47l-3.09.92-1.09.32-2.87.85-1.09.32-2.91.86a0.63,0.63,0,0,1-.73-0.08l-2.86-3.86A16.52,16.52,0,0,1,5408,603.59Z" transform="translate(-5385.89 -598.32)"/><path class="cls-8" d="M5411.68,625.59a1.93,1.93,0,0,1-.46.21l-0.58.17a1.93,1.93,0,0,1-2.4-1.3l-2.19-7.37a1.93,1.93,0,0,1,1.3-2.4l0.58-.17a1.94,1.94,0,0,1,1.36.1,1.67,1.67,0,0,1,1-.79l1.36-.4a1.64,1.64,0,0,1,1.14.08,1.93,1.93,0,0,1,1-.72l0.58-.17a1.93,1.93,0,0,1,2.4,1.3l2.19,7.37a1.93,1.93,0,0,1-1.3,2.4l-0.58.17-0.31.06,3.79,12.78,0.05,0.19-1.09.32c0-.06,0-0.13,0-0.2l-4-13.61a0.57,0.57,0,0,1,.77-0.68,0.78,0.78,0,0,0,.55,0l0.58-.17a0.8,0.8,0,0,0,.54-1l-2.19-7.37a0.8,0.8,0,0,0-1-.54l-0.58.17a0.8,0.8,0,0,0-.55.59,0.57,0.57,0,0,1-.39.42,0.56,0.56,0,0,1-.55-0.13,0.72,0.72,0,0,0-.66-0.24l-1.36.4a0.81,0.81,0,0,0-.45.72,0.57,0.57,0,0,1-1,.26,0.8,0.8,0,0,0-.86-0.29l-0.58.17a0.8,0.8,0,0,0-.54,1l2.19,7.37a0.8,0.8,0,0,0,1,.54l0.58-.17a0.79,0.79,0,0,0,.51-0.47,0.57,0.57,0,0,1,1.07,0l4.1,13.79a2,2,0,0,0,.07.19l-1.09.32-0.06-.19Z" transform="translate(-5385.89 -598.32)"/><path class="cls-8" d="M5394.74,598.55a1,1,0,0,1,1.39.14l4.72,5.75a1,1,0,0,1-.14,1.39h0a1,1,0,0,1-1.39-.14l-4.72-5.75a1,1,0,0,1,.14-1.39h0Z" transform="translate(-5385.89 -598.32)"/><path class="cls-8" d="M5388.45,605.24a1,1,0,0,1,1.34-.4l6.55,3.52a1,1,0,0,1,.4,1.34h0a1,1,0,0,1-1.34.4l-6.55-3.52a1,1,0,0,1-.4-1.34h0Z" transform="translate(-5385.89 -598.32)"/><path class="cls-8" d="M5385.89,614.25a1,1,0,0,1,1-1l7.43,0.24a1,1,0,0,1,1,1h0a1,1,0,0,1-1,1l-7.43-.24a1,1,0,0,1-1-1h0Z" transform="translate(-5385.89 -598.32)"/></g><g id="Loudspeaker"><path class="cls-11" d="M5409.2,676l-16.09,5.38c-4.55,1.52-6.72,7.27-4.86,12.84s7.06,8.86,11.61,7.34l0.3-.1L5415.23,721a1.33,1.33,0,0,0,1.86.24l5-3.86a1.33,1.33,0,0,0,.24-1.86l-13.16-17,6.79-2.27Z" transform="translate(-5385.89 -598.32)"/><path class="cls-3" d="M5438.13,664.95l-4.41-13.19c-3.23,3.86-13.37,16-16.31,19.18-3.22,3.52-10.72,5.94-10.72,5.94a1.33,1.33,0,0,0-.84,1.68l5.91,17.66a1.33,1.33,0,0,0,1.68.84s2.15-.63,3.84-1.35a18.19,18.19,0,0,1,8.3-.35c4.05,0.9,19.4,3.72,24.27,4.61Z" transform="translate(-5385.89 -598.32)"/><path class="cls-17" d="M5454.83,699.56l-13.27-39.68-4-11.83a1.35,1.35,0,0,0-1.69-.87l-2.1.7a1.35,1.35,0,0,0-.83,1.71l0.73,2.17,4.41,13.19,11.71,35,0.38,1.13a1.35,1.35,0,0,0,1.69.87l2.1-.7A1.35,1.35,0,0,0,5454.83,699.56Z" transform="translate(-5385.89 -598.32)"/><path class="cls-18" d="M5433.72,651.76c-3.23,3.86-13.37,16-16.31,19.18-3.22,3.52-10.72,5.94-10.72,5.94a1.33,1.33,0,0,0-.84,1.68l5.91,17.66a1.33,1.33,0,0,0,1.68.84s2.15-.63,3.84-1.35l20.86-30.77Z" transform="translate(-5385.89 -598.32)"/><path class="cls-19" d="M5437.61,648a1.35,1.35,0,0,0-1.69-.87l-2.1.7a1.35,1.35,0,0,0-.83,1.71l0.73,2.17,4.41,13.19,1.87-2.76,1.56-2.3Z" transform="translate(-5385.89 -598.32)"/><path class="cls-20" d="M5445.76,656.31a1.9,1.9,0,0,1-.56-3.72c0.37-.12,8.62-2.88,9.66-14.11,1.13-12.21-4.73-15.59-5-15.73h0l1.75-3.38c0.34,0.18,8.38,4.52,7,19.45a20.68,20.68,0,0,1-6.56,13.89,16.89,16.89,0,0,1-5.77,3.5A1.9,1.9,0,0,1,5445.76,656.31Z" transform="translate(-5385.89 -598.32)"/><path class="cls-20" d="M5482.93,716.08a1.9,1.9,0,0,1-1.38-2.2c0.07-.39,1.54-9-7.85-15.19-10.22-6.78-16-3.22-16.21-3.06h0l-2.15-3.14c0.32-.22,8-5.24,20.44,3a20.68,20.68,0,0,1,9.13,12.35,16.9,16.9,0,0,1,.35,6.74,1.9,1.9,0,0,1-2.24,1.49Z" transform="translate(-5385.89 -598.32)"/><path class="cls-20" d="M5514.4,677.37a1.9,1.9,0,0,1-1.56-.81h0a28.08,28.08,0,0,0-5.43-5.38,29.84,29.84,0,0,0-15.77-6.22c-13.87-1.22-21.41,7.57-21.49,7.66a1.9,1.9,0,1,1-2.91-2.44c0.36-.43,8.92-10.4,24.74-9a34.2,34.2,0,0,1,24,13.22A1.9,1.9,0,0,1,5514.4,677.37Z" transform="translate(-5385.89 -598.32)"/></g></g></svg>