<svg id="Слой_1" data-name="Слой 1" xmlns="http://www.w3.org/2000/svg" viewBox="0 0 133.75 120"><defs><style>.cls-1{fill:#fff;opacity:0.35;}.cls-2{fill:#0288d1;}.cls-3{fill:#4a2a7b;}.cls-4{fill:#ffc20f;}.cls-5{fill:#7f0101;}.cls-6{fill:#ededed;}.cls-7{fill:#1a002d;}.cls-8{fill:#c3c02f;}.cls-9{fill:#c6c6c6;}.cls-10{fill:#ffc010;}.cls-11{fill:none;}.cls-12{fill:#f6f6f6;}.cls-13{fill:#dadada;}.cls-14{fill:#1d1d1b;}.cls-15{fill:#b2b2b2;}.cls-16{fill:#dc1827;}.cls-17{fill:#f2f2f2;}</style></defs><title>service-item-2</title><circle id="Background_2" data-name="Background 2" class="cls-1" cx="66.87" cy="60" r="60"/><g id="SEO_Report" data-name="SEO Report"><g id="Gear"><path class="cls-2" d="M5906.71,371.24a22.56,22.56,0,0,1-4.34-1.53l-0.22-5.13a17.77,17.77,0,0,1-2.19-1.67l-5,1.13a22.45,22.45,0,0,1-2.61-3.79l2.84-4.28a18.13,18.13,0,0,1-.79-2.64l-4.72-2a22.19,22.19,0,0,1,.11-4.6l4.82-1.8c0.12-.44.25-0.88,0.4-1.32s0.33-.86.51-1.28l-2.63-4.42a22.11,22.11,0,0,1,2.79-3.65l4.95,1.38a18.16,18.16,0,0,1,2.27-1.56l0.47-5.12a22.5,22.5,0,0,1,4.41-1.32l3.2,4a17.81,17.81,0,0,1,2.76.07l3.39-3.86a22.56,22.56,0,0,1,4.34,1.53l0.22,5.13a17.73,17.73,0,0,1,2.19,1.67l5-1.13a22.43,22.43,0,0,1,2.61,3.79l-2.84,4.28a18.17,18.17,0,0,1,.79,2.64l4.72,2a22.09,22.09,0,0,1-.11,4.6l-4.82,1.8c-0.12.44-.25,0.88-0.4,1.32s-0.33.86-.51,1.28l2.63,4.42a22.2,22.2,0,0,1-2.79,3.66l-4.95-1.38a18,18,0,0,1-2.27,1.56l-0.47,5.12a22.38,22.38,0,0,1-4.41,1.32l-3.2-4a17.83,17.83,0,0,1-2.76-.07Z" transform="translate(-5856.25 -320)"/><circle class="cls-3" cx="5911.5" cy="349.65" r="7.6" transform="translate(-2572.79 5336.39) rotate(-67.04)"/><g id="Gear-2" data-name="Gear"><path class="cls-4" d="M5869.86,380.7a17.39,17.39,0,0,1-3.25-1.44l0.14-4a13.64,13.64,0,0,1-1.58-1.42l-3.92.57a17.19,17.19,0,0,1-1.78-3.07l2.44-3.12a13.91,13.91,0,0,1-.45-2.08l-3.5-1.84a17.05,17.05,0,0,1,.37-3.53l3.81-1.09c0.12-.33.24-0.66,0.39-1s0.3-.64.47-1l-1.75-3.55a17,17,0,0,1,2.37-2.64l3.72,1.36a13.91,13.91,0,0,1,1.84-1.06l0.67-3.9a17.35,17.35,0,0,1,3.47-.75l2.21,3.28a13.75,13.75,0,0,1,2.11.22l2.84-2.76a17.42,17.42,0,0,1,3.25,1.44l-0.14,4a13.58,13.58,0,0,1,1.58,1.42l3.92-.57a17.27,17.27,0,0,1,1.78,3.07l-2.44,3.12a14,14,0,0,1,.45,2.08l3.5,1.84a17.12,17.12,0,0,1-.36,3.53L5888.2,369c-0.12.33-.24,0.66-0.39,1s-0.3.64-.47,1l1.75,3.55a17.13,17.13,0,0,1-2.37,2.64l-3.72-1.36a13.81,13.81,0,0,1-1.84,1.06l-0.67,3.9a17.16,17.16,0,0,1-3.47.75l-2.21-3.28a13.61,13.61,0,0,1-2.11-.22Z" transform="translate(-5856.25 -320)"/><circle class="cls-5" cx="5875.17" cy="364.34" r="7.02" transform="translate(-2693.95 5268.4) rotate(-66.11)"/></g></g><g id="Graphic_Chart" data-name="Graphic Chart"><polygon class="cls-6" points="88.13 46.48 88.13 103.23 8.62 103.23 8.62 58.54 26.43 46.48 88.13 46.48"/><rect class="cls-7" x="16.77" y="99.46" width="67.71" height="0.85"/><rect class="cls-8" x="66.06" y="59.65" width="5.05" height="38.92"/><rect class="cls-8" x="59.72" y="65.4" width="5.05" height="33.17"/><rect class="cls-8" x="53.59" y="72.99" width="5.05" height="25.58"/><rect class="cls-8" x="47.45" y="76.88" width="5.05" height="21.69"/><rect class="cls-8" x="41.31" y="80.96" width="5.05" height="17.61"/><rect class="cls-8" x="35.18" y="73.65" width="5.05" height="24.92"/><rect class="cls-8" x="29.04" y="67.2" width="5.05" height="31.37"/><rect class="cls-8" x="22.9" y="61.69" width="5.05" height="36.87"/><rect class="cls-8" x="16.77" y="57.04" width="5.05" height="41.53"/><rect class="cls-8" x="72.8" y="72.99" width="5.05" height="25.58"/><rect class="cls-8" x="79.43" y="79.44" width="5.05" height="19.12"/><polygon class="cls-7" points="28.27 63 25.53 64.89 44.33 83.49 65.88 62.6 66.95 63.97 66.95 63.97 83.27 84.7 82.04 85.67 65.78 65.11 44.31 85.87 24.05 65.69 20.77 67.88 20.11 60.1 28.27 63"/><path class="cls-9" d="M5864.88,378.54l17.8-12.06v12.06a17,17,0,0,0-8.19-2A21.68,21.68,0,0,0,5864.88,378.54Z" transform="translate(-5856.25 -320)"/></g><g id="List"><path class="cls-10" d="M5985,427.63a3.67,3.67,0,0,1-3.47,3.84h-66a3.67,3.67,0,0,1-3.47-3.84V335.38a3.67,3.67,0,0,1,3.47-3.84h66a3.67,3.67,0,0,1,3.47,3.84v92.26Z" transform="translate(-5856.25 -320)"/><polygon class="cls-11" points="111.5 21.98 71.69 21.98 71.69 13.42 70.69 13.42 70.69 24.46 112.69 24.46 112.69 13.42 111.5 13.42 111.5 21.98"/><path class="cls-11" d="M5947.37,324.27c-4.77-.21-6.23,2.86-6.67,4.5h12.64A6,6,0,0,0,5947.37,324.27Z" transform="translate(-5856.25 -320)"/><polygon class="cls-12" points="63.74 18.94 63.74 100.88 121.41 100.88 121.41 34.06 98.85 18.94 63.74 18.94"/><path class="cls-13" d="M5977.66,354.06l-22.56-15.12v15.12a36.39,36.39,0,0,1,10.38-1.45A48.36,48.36,0,0,1,5977.66,354.06Z" transform="translate(-5856.25 -320)"/><path class="cls-14" d="M5967.75,332.11v-3.34h-13a7.47,7.47,0,0,0-7.36-5.91c-6-.26-7.72,4-8.17,5.91h-11.33v3.34h-2.3v13.66h44.62V332.11h-2.5Zm-6.68,1.37a1.88,1.88,0,1,1-1.88,1.88A1.88,1.88,0,0,1,5961.07,333.48Zm-13.7-9.21a6,6,0,0,1,6,4.5h-12.64C5941.14,327.12,5942.6,324.06,5947.37,324.27Zm-13.47,9.21a1.88,1.88,0,1,1-1.88,1.88A1.88,1.88,0,0,1,5933.91,333.48Zm35,11h-42v-11h1V342h39.82v-8.57h1.19v11Z" transform="translate(-5856.25 -320)"/><rect class="cls-5" x="78.72" y="25.77" width="20.13" height="2.64"/><rect class="cls-5" x="78.72" y="29.41" width="20.13" height="1.12"/><rect class="cls-5" x="78.72" y="31.26" width="20.13" height="1.12"/><rect class="cls-15" x="82.77" y="71.77" width="32.29" height="4.23"/><rect class="cls-15" x="82.77" y="77.06" width="32.29" height="1.41"/><rect class="cls-15" x="82.77" y="85.79" width="32.29" height="4.23"/><rect class="cls-15" x="82.77" y="91.08" width="32.29" height="1.41"/><circle class="cls-13" cx="77" cy="75.03" r="4.32"/><circle class="cls-13" cx="77" cy="89.14" r="4.32"/><path class="cls-16" d="M5942,387.23a1.91,1.91,0,0,0-2.4,0l-6.4,5.31-2.67-2.59a1.49,1.49,0,1,0-2.06,2.13l3.71,3.59a1.54,1.54,0,0,0,1.89.22l0.14-.1,7.4-6.14A2,2,0,0,0,5942,387.23Z" transform="translate(-5856.25 -320)"/><path class="cls-16" d="M5942,401.56a1.91,1.91,0,0,0-2.4,0l-6.4,5.31-2.67-2.59a1.49,1.49,0,1,0-2.06,2.13l3.71,3.59a1.54,1.54,0,0,0,1.89.22l0.14-.1,7.4-6.14A2,2,0,0,0,5942,401.56Z" transform="translate(-5856.25 -320)"/><rect class="cls-15" x="98.85" y="39.77" width="19.53" height="10.13"/><rect class="cls-15" x="98.85" y="51.33" width="19.53" height="2.09"/><rect class="cls-15" x="98.85" y="54.21" width="19.53" height="2.09"/><rect class="cls-15" x="98.85" y="57.23" width="19.53" height="2.09"/><g id="Pie_Chart" data-name="Pie Chart"><path class="cls-3" d="M5937.7,355.54v13.11h13.11A13.11,13.11,0,0,0,5937.7,355.54Z" transform="translate(-5856.25 -320)"/><path class="cls-5" d="M5936.72,356.79a13.11,13.11,0,1,0,9.71,21.93l-9.71-8.82V356.79Z" transform="translate(-5856.25 -320)"/><path class="cls-8" d="M5937.79,369.46l9.71,8.82a13.06,13.06,0,0,0,3.41-8.82h-13.11Z" transform="translate(-5856.25 -320)"/></g><circle class="cls-3" cx="115.06" cy="98.47" r="18.69"/><path class="cls-12" d="M5969.41,431.48a3,3,0,0,1-1.84-.64L5957.5,423a3,3,0,1,1,3.68-4.7l7.78,6.09,12.47-15.15A3,3,0,0,1,5986,413l-14.32,17.4A3,3,0,0,1,5969.41,431.48Z" transform="translate(-5856.25 -320)"/></g><g id="Search_Bar" data-name="Search Bar"><path class="cls-12" d="M5860.38,418.53a4.13,4.13,0,0,0-4.13,4.13v6.19a4.13,4.13,0,0,0,4.13,4.13h68.91V418.53h-68.91Z" transform="translate(-5856.25 -320)"/><path d="M5863.56,427.09a1.58,1.58,0,0,0,.73-0.13,0.44,0.44,0,0,0,.24-0.41,0.55,0.55,0,0,0-.23-0.47,3.7,3.7,0,0,0-.77-0.39l-0.5-.21a1.73,1.73,0,0,1-.41-0.25,1.11,1.11,0,0,1-.28-0.35,1.25,1.25,0,0,1,.34-1.45,1.88,1.88,0,0,1,1.2-.35l0.38,0,0.35,0.05,0.29,0.06,0.19,0.06L5865,424a2,2,0,0,0-.41-0.14,2.63,2.63,0,0,0-.66-0.07,1.23,1.23,0,0,0-.59.13,0.44,0.44,0,0,0-.25.42,0.57,0.57,0,0,0,.06.26,0.59,0.59,0,0,0,.17.2,1.42,1.42,0,0,0,.29.17l0.41,0.16,0.57,0.24a1.79,1.79,0,0,1,.43.27,1,1,0,0,1,.27.38,1.36,1.36,0,0,1,.09.54,1.07,1.07,0,0,1-.46.94,2.3,2.3,0,0,1-1.32.32,3.44,3.44,0,0,1-.93-0.1l-0.46-.15,0.15-.69,0.44,0.16A2.54,2.54,0,0,0,5863.56,427.09Z" transform="translate(-5856.25 -320)"/><path d="M5866.12,425.43a2.86,2.86,0,0,1,.17-1,2.17,2.17,0,0,1,.46-0.74,1.86,1.86,0,0,1,.66-0.44,2.06,2.06,0,0,1,.76-0.15,1.73,1.73,0,0,1,1.39.57,2.6,2.6,0,0,1,.48,1.72v0.13a1.25,1.25,0,0,1,0,.15H5867a1.64,1.64,0,0,0,.41,1.06,1.49,1.49,0,0,0,1.11.36,2.94,2.94,0,0,0,.71-0.07,2.55,2.55,0,0,0,.44-0.14l0.11,0.67a2.39,2.39,0,0,1-.51.16,3.66,3.66,0,0,1-.83.09,2.65,2.65,0,0,1-1-.18,1.89,1.89,0,0,1-.7-0.49,2,2,0,0,1-.41-0.74A3.11,3.11,0,0,1,5866.12,425.43Zm3.08-.44a1.35,1.35,0,0,0-.27-0.89,0.94,0.94,0,0,0-.77-0.35,1.06,1.06,0,0,0-.49.11,1.15,1.15,0,0,0-.36.28,1.29,1.29,0,0,0-.23.4,2,2,0,0,0-.11.46h2.23Z" transform="translate(-5856.25 -320)"/><path d="M5872.64,423.07a2.33,2.33,0,0,1,.82.13,1.32,1.32,0,0,1,.54.35,1.34,1.34,0,0,1,.29.54,2.64,2.64,0,0,1,.09.7v2.81l-0.29,0-0.42.06-0.5,0-0.54,0a3,3,0,0,1-.7-0.08,1.57,1.57,0,0,1-.55-0.25A1.13,1.13,0,0,1,5871,427a1.56,1.56,0,0,1-.13-0.66,1.28,1.28,0,0,1,.15-0.64,1.21,1.21,0,0,1,.41-0.43,1.9,1.9,0,0,1,.6-0.24,3.29,3.29,0,0,1,.73-0.08H5873l0.25,0,0.2,0,0.12,0v-0.22a1.8,1.8,0,0,0,0-.39,0.9,0.9,0,0,0-.16-0.35,0.79,0.79,0,0,0-.31-0.24,1.2,1.2,0,0,0-.51-0.09,3.79,3.79,0,0,0-.69.06,2.43,2.43,0,0,0-.44.12l-0.09-.66a2.47,2.47,0,0,1,.52-0.13A4.47,4.47,0,0,1,5872.64,423.07Zm0.07,4h0.5a2.17,2.17,0,0,0,.37,0v-1.34a1,1,0,0,0-.28-0.07,3.12,3.12,0,0,0-.47,0l-0.38,0a1.2,1.2,0,0,0-.37.11,0.8,0.8,0,0,0-.28.22,0.59,0.59,0,0,0-.11.38,0.64,0.64,0,0,0,.28.6A1.44,1.44,0,0,0,5872.71,427.09Z" transform="translate(-5856.25 -320)"/><path d="M5877.36,423.09h0.24l0.26,0,0.24,0,0.16,0-0.14.7-0.31-.08a2.77,2.77,0,0,0-.57,0,2.11,2.11,0,0,0-.44,0l-0.29.06v3.77h-0.8v-4.3a5.51,5.51,0,0,1,.71-0.19A4.56,4.56,0,0,1,5877.36,423.09Z" transform="translate(-5856.25 -320)"/><path d="M5881,427.77a2.45,2.45,0,0,1-1-.17,1.92,1.92,0,0,1-.69-0.48,2,2,0,0,1-.42-0.74,3.06,3.06,0,0,1-.14-0.95,2.86,2.86,0,0,1,.15-0.95,2.24,2.24,0,0,1,.43-0.75,1.91,1.91,0,0,1,.68-0.49,2.19,2.19,0,0,1,.89-0.18,3.57,3.57,0,0,1,.6.05,2.8,2.8,0,0,1,.58.16l-0.18.68a2,2,0,0,0-.42-0.14,2.39,2.39,0,0,0-.5-0.05,1.28,1.28,0,0,0-1,.42,1.86,1.86,0,0,0-.36,1.23,2.53,2.53,0,0,0,.08.66,1.37,1.37,0,0,0,.26.52,1.16,1.16,0,0,0,.45.33,1.73,1.73,0,0,0,.67.12,2.56,2.56,0,0,0,.58-0.06,2.12,2.12,0,0,0,.41-0.13l0.11,0.67-0.2.08-0.29.07-0.35.05Z" transform="translate(-5856.25 -320)"/><path d="M5883,427.67v-6.56l0.8-.14v2.3a2.73,2.73,0,0,1,.48-0.13,2.77,2.77,0,0,1,.5,0,2.27,2.27,0,0,1,.89.15,1.39,1.39,0,0,1,.57.42,1.64,1.64,0,0,1,.3.65,3.78,3.78,0,0,1,.09.84v2.52h-0.8v-2.35a3.85,3.85,0,0,0-.06-0.71,1.2,1.2,0,0,0-.19-0.47,0.74,0.74,0,0,0-.35-0.26,1.52,1.52,0,0,0-.54-0.08l-0.27,0-0.26,0-0.22,0-0.14,0v3.73H5883Z" transform="translate(-5856.25 -320)"/><path d="M5888.92,427.2a0.59,0.59,0,0,1-.16.41,0.6,0.6,0,0,1-.85,0,0.61,0.61,0,0,1,0-.81,0.6,0.6,0,0,1,.85,0A0.59,0.59,0,0,1,5888.92,427.2Z" transform="translate(-5856.25 -320)"/><path d="M5891,427.2a0.59,0.59,0,0,1-.16.41,0.6,0.6,0,0,1-.85,0,0.61,0.61,0,0,1,0-.81,0.6,0.6,0,0,1,.85,0A0.59,0.59,0,0,1,5891,427.2Z" transform="translate(-5856.25 -320)"/><path d="M5893.17,427.2a0.59,0.59,0,0,1-.16.41,0.6,0.6,0,0,1-.85,0,0.61,0.61,0,0,1,0-.81,0.6,0.6,0,0,1,.85,0A0.59,0.59,0,0,1,5893.17,427.2Z" transform="translate(-5856.25 -320)"/><path class="cls-3" d="M5948.83,428.85v-6.19a4.13,4.13,0,0,0-4.13-4.13h-15.42V433h15.42A4.13,4.13,0,0,0,5948.83,428.85Z" transform="translate(-5856.25 -320)"/><path class="cls-17" d="M5939.2,420.95a3.59,3.59,0,1,0-.71,5.43l0.8,0.88-0.36.33,3.07,3.31a0.94,0.94,0,1,0,1.38-1.26l-3.07-3.31-0.29.26-0.78-.86A3.59,3.59,0,0,0,5939.2,420.95Zm-4.55,4.08a2.56,2.56,0,1,1,3.62.17A2.56,2.56,0,0,1,5934.65,425Z" transform="translate(-5856.25 -320)"/></g></g></svg>