<?xml version="1.0" encoding="utf-8"?>
<!-- Generator: Adobe Illustrator 19.2.1, SVG Export Plug-In . SVG Version: 6.00 Build 0)  -->
<svg version="1.1" id="Слой_1" xmlns="http://www.w3.org/2000/svg" xmlns:xlink="http://www.w3.org/1999/xlink" x="0px" y="0px"
	 viewBox="0 0 150 150" style="enable-background:new 0 0 150 150;" xml:space="preserve">
<style type="text/css">
	.st0{fill:#FFFFFF;}
	.st1{fill:#2A455E;}
	.st2{fill:#51677F;}
	.st3{fill:#21374E;}
	.st4{fill:#E1EFFA;}
	.st5{fill-rule:evenodd;clip-rule:evenodd;fill:#FFFFFF;}
	.st6{fill-rule:evenodd;clip-rule:evenodd;fill:#E1EFFA;}
	.st7{clip-path:url(#SVGID_2_);}
	.st8{fill:#FEE0B2;}
	.st9{fill:#B8D1E6;}
</style>
<g>
	<circle class="st0" cx="75" cy="75" r="75"/>
	<g>
		<path class="st1" d="M91.8,67h-3.4v-3c0-0.6-0.2-1.1-0.6-1.5c-0.4-0.4-0.9-0.6-1.5-0.6H63.8c-0.6,0-1.1,0.2-1.5,0.6
			c-0.4,0.4-0.6,0.9-0.6,1.5v3h-3.4v-3c0-1.5,0.6-2.9,1.6-3.9c1-1,2.4-1.6,3.9-1.6h22.5c1.5,0,2.9,0.6,3.9,1.6c1,1,1.6,2.4,1.6,3.9
			V67z"/>
		<path class="st2" d="M113.1,122c0,1.3-1,2.3-2.3,2.3H39.1c-1.3,0-2.3-1-2.3-2.3V82c0-1.3,1-2.3,2.3-2.3h71.7c1.3,0,2.3,1,2.3,2.3
			V122z"/>
		<path class="st3" d="M39.1,123.1c-0.6,0-1.1-0.5-1.1-1.1V82c0-0.6,0.5-1.1,1.1-1.1h71.7c0.6,0,1.1,0.5,1.1,1.1V122
			c0,0.6-0.5,1.1-1.1,1.1H39.1z"/>
		<path class="st4" d="M109.3,122.2H107v-0.4h2.3V122.2z M104.7,122.2h-2.3v-0.4h2.3V122.2z M100,122.2h-2.3v-0.4h2.3V122.2z
			 M95.4,122.2h-2.3v-0.4h2.3V122.2z M90.8,122.2h-2.3v-0.4h2.3V122.2z M86.2,122.2h-2.3v-0.4h2.3V122.2z M81.5,122.2h-2.3v-0.4h2.3
			V122.2z M76.9,122.2h-2.3v-0.4h2.3V122.2z M72.3,122.2H70v-0.4h2.3V122.2z M67.7,122.2h-2.3v-0.4h2.3V122.2z M63,122.2h-2.3v-0.4
			H63V122.2z M58.4,122.2h-2.3v-0.4h2.3V122.2z M53.8,122.2h-2.3v-0.4h2.3V122.2z M49.2,122.2h-2.3v-0.4h2.3V122.2z M44.6,122.2
			h-2.3v-0.4h2.3V122.2z M39.9,122.2L39.9,122.2c-0.5,0-1-0.4-1-1v-1.1h0.4v1.1c0,0.3,0.3,0.6,0.6,0.6L39.9,122.2z M111,120.9h-0.4
			v-2.3h0.4V120.9z M39.3,117.8H39v-2.3h0.4V117.8z M111,116.3h-0.4V114h0.4V116.3z M39.3,113.2H39v-2.3h0.4V113.2z M111,111.7h-0.4
			v-2.3h0.4V111.7z M39.3,108.5H39v-2.3h0.4V108.5z M111,107h-0.4v-2.3h0.4V107z M39.3,103.9H39v-2.3h0.4V103.9z M111,102.4h-0.4
			v-2.3h0.4V102.4z M39.3,99.3H39V97h0.4V99.3z M111,97.8h-0.4v-2.3h0.4V97.8z M39.3,94.7H39v-2.3h0.4V94.7z M111,93.2h-0.4v-2.3
			h0.4V93.2z M39.3,90H39v-2.3h0.4V90z M111,88.5h-0.4v-2.3h0.4V88.5z M39.3,85.4H39v-2.3h0.4V85.4z M111,83.9h-0.4v-1.1
			c0-0.3-0.3-0.6-0.6-0.6l0-0.4h0c0.5,0,1,0.4,1,1V83.9z M107.8,82.2h-2.3v-0.4h2.3V82.2z M103.1,82.2h-2.3v-0.4h2.3V82.2z
			 M98.5,82.2h-2.3v-0.4h2.3V82.2z M93.9,82.2h-2.3v-0.4h2.3V82.2z M89.3,82.2H87v-0.4h2.3V82.2z M84.7,82.2h-2.3v-0.4h2.3V82.2z
			 M80,82.2h-2.3v-0.4H80V82.2z M75.4,82.2h-2.3v-0.4h2.3V82.2z M70.8,82.2h-2.3v-0.4h2.3V82.2z M66.2,82.2h-2.3v-0.4h2.3V82.2z
			 M61.5,82.2h-2.3v-0.4h2.3V82.2z M56.9,82.2h-2.3v-0.4h2.3V82.2z M52.3,82.2H50v-0.4h2.3V82.2z M47.7,82.2h-2.3v-0.4h2.3V82.2z
			 M43,82.2h-2.3v-0.4H43V82.2z"/>
		<path class="st2" d="M114.7,93.4c0,1.3-1,2.3-2.3,2.3H37.6c-1.3,0-2.3-1-2.3-2.3v-24c0-1.3,1-2.3,2.3-2.3h74.8
			c1.3,0,2.3,1,2.3,2.3V93.4z"/>
		<path class="st1" d="M37.6,94.5c-0.6,0-1.1-0.5-1.1-1.1v-24c0-0.6,0.5-1.1,1.1-1.1h74.8c0.6,0,1.1,0.5,1.1,1.1v24
			c0,0.6-0.5,1.1-1.1,1.1H37.6z"/>
		<path class="st4" d="M111.4,93.6h-2.3v-0.4h2.3V93.6z M106.9,93.6h-2.3v-0.4h2.3V93.6z M102.3,93.6H100v-0.4h2.3V93.6z M97.7,93.6
			h-2.3v-0.4h2.3V93.6z M93.2,93.6h-2.3v-0.4h2.3V93.6z M88.6,93.6h-2.3v-0.4h2.3V93.6z M84,93.6h-2.3v-0.4H84V93.6z M79.5,93.6
			h-2.3v-0.4h2.3V93.6z M74.9,93.6h-2.3v-0.4h2.3V93.6z M70.3,93.6h-2.3v-0.4h2.3V93.6z M65.8,93.6h-2.3v-0.4h2.3V93.6z M61.2,93.6
			h-2.3v-0.4h2.3V93.6z M56.7,93.6h-2.3v-0.4h2.3V93.6z M52.1,93.6h-2.3v-0.4h2.3V93.6z M47.5,93.6h-2.3v-0.4h2.3V93.6z M43,93.6
			h-2.3v-0.4H43V93.6z M38.4,93.6L38.4,93.6c-0.5,0-1-0.4-1-1v-1.1h0.4v1.1c0,0.3,0.3,0.6,0.6,0.6L38.4,93.6z M112.6,91.7h-0.4v-2.3
			h0.4V91.7z M37.8,89.2h-0.4V87h0.4V89.2z M112.6,87.1h-0.4v-2.3h0.4V87.1z M37.8,84.7h-0.4v-2.3h0.4V84.7z M112.6,82.6h-0.4v-2.3
			h0.4V82.6z M37.8,80.1h-0.4v-2.3h0.4V80.1z M112.6,78h-0.4v-2.3h0.4V78z M37.8,75.5h-0.4v-2.3h0.4V75.5z M112.6,73.5h-0.4v-2.3
			h0.4V73.5z M37.8,71h-0.4v-0.9c0-0.5,0.4-1,1-1h0.2v0.4h-0.2c-0.3,0-0.6,0.3-0.6,0.6V71z M111.6,69.5h-2.3v-0.4h2.3V69.5z
			 M107,69.5h-2.3v-0.4h2.3V69.5z M102.5,69.5h-2.3v-0.4h2.3V69.5z M97.9,69.5h-2.3v-0.4h2.3V69.5z M93.4,69.5h-2.3v-0.4h2.3V69.5z
			 M88.8,69.5h-2.3v-0.4h2.3V69.5z M84.2,69.5h-2.3v-0.4h2.3V69.5z M79.7,69.5h-2.3v-0.4h2.3V69.5z M75.1,69.5h-2.3v-0.4h2.3V69.5z
			 M70.5,69.5h-2.3v-0.4h2.3V69.5z M66,69.5h-2.3v-0.4H66V69.5z M61.4,69.5h-2.3v-0.4h2.3V69.5z M56.8,69.5h-2.3v-0.4h2.3V69.5z
			 M52.3,69.5H50v-0.4h2.3V69.5z M47.7,69.5h-2.3v-0.4h2.3V69.5z M43.1,69.5h-2.3v-0.4h2.3V69.5z"/>
		<g>
			<g>
				<path class="st5" d="M62.3,90.1c-0.1-0.1-0.2-0.2-0.3-0.2h-5.5c-0.1,0-0.3,0.1-0.4,0.2c-0.1,0.1-0.1,0.2-0.1,0.3v10.5
					c0,0.1,0.1,0.2,0.1,0.3c0.1,0.1,0.1,0.1,0.2,0.1c0.1,0,0.1,0,0.2,0H62c0.1,0,0.1,0,0.2,0c0.1,0,0.1-0.1,0.2-0.1
					c0.1-0.1,0.1-0.2,0.1-0.3V90.4C62.5,90.3,62.4,90.2,62.3,90.1z M61.2,99.6h-4v-1.5h4V99.6z"/>
				<path class="st6" d="M55.9,95.7v5.2c0,0.1,0.1,0.2,0.1,0.3v0c0.1,0,0.1,0.1,0.2,0.1c0.1,0,0.1,0,0.2,0H62c0.1,0,0.1,0,0.2,0
					c0.1,0,0.1-0.1,0.2-0.1v0c0.1-0.1,0.1-0.2,0.1-0.3v-5.2H55.9z M61.2,99.6h-4v-1.5h4V99.6z"/>
			</g>
			<g>
				<path class="st5" d="M93.9,90.1c-0.1-0.1-0.2-0.2-0.3-0.2H88c-0.1,0-0.3,0.1-0.4,0.2c-0.1,0.1-0.1,0.2-0.1,0.3v10.5
					c0,0.1,0.1,0.2,0.1,0.3c0,0.1,0.1,0.1,0.2,0.1c0.1,0,0.1,0,0.2,0h5.5c0.1,0,0.1,0,0.2,0c0.1,0,0.1-0.1,0.2-0.1
					c0.1-0.1,0.1-0.2,0.1-0.3V90.4C94.1,90.3,94,90.2,93.9,90.1z M92.8,99.6h-4v-1.5h4V99.6z"/>
				<path class="st6" d="M87.5,95.7v5.2c0,0.1,0.1,0.2,0.1,0.3v0c0,0,0.1,0.1,0.2,0.1c0.1,0,0.1,0,0.2,0h5.5c0.1,0,0.1,0,0.2,0
					c0.1,0,0.1-0.1,0.2-0.1v0c0.1-0.1,0.1-0.2,0.1-0.3v-5.2H87.5z M92.8,99.6h-4v-1.5h4V99.6z"/>
			</g>
		</g>
	</g>
	<g>
		<defs>
			<circle id="SVGID_1_" cx="75" cy="75" r="75"/>
		</defs>
		<clipPath id="SVGID_2_">
			<use xlink:href="#SVGID_1_"  style="overflow:visible;"/>
		</clipPath>
		<g class="st7">
			<g>
				<g>
					<path class="st8" d="M81.6,53.5l6.2,0v10c0,0.8-0.3,1.6-0.9,2.2c-0.6,0.6-1.4,0.9-2.2,0.9l0,0c-0.8,0-1.6-0.3-2.2-0.9
						c-0.6-0.6-0.9-1.4-0.9-2.2V53.5z"/>
					<path class="st8" d="M75.1,53.5h6.2v10c0,0.8-0.3,1.6-0.9,2.2c-0.6,0.6-1.4,0.9-2.2,0.9l0,0c-0.8,0-1.6-0.3-2.2-0.9
						c-0.6-0.6-0.9-1.4-0.9-2.2V53.5z"/>
					<path class="st8" d="M68.6,53.5h6.2l0,10c0,0.8-0.3,1.6-0.9,2.2c-0.6,0.6-1.4,0.9-2.2,0.9l0,0c-0.8,0-1.6-0.3-2.2-0.9
						c-0.6-0.6-0.9-1.4-0.9-2.2V53.5z"/>
					<path class="st8" d="M62,53.5l6.2,0v8.4c0,0.8-0.3,1.6-0.9,2.2c-0.6,0.6-1.4,0.9-2.2,0.9l0,0c-0.8,0-1.6-0.3-2.2-0.9
						c-0.6-0.6-0.9-1.4-0.9-2.2L62,53.5z"/>
				</g>
			</g>
			<rect x="66.6" y="29.6" class="st0" width="19.1" height="7.7"/>
			<path class="st8" d="M87.8,36.4v17.2H62V41.1c0-0.9,0.1-1.9,0.4-2.8c0.3-0.9,0.7-1.8,1.3-2.5l2.9-4h16.6L87.8,36.4z"/>
			<path class="st8" d="M94.8,45.1c0-0.5-0.1-1-0.3-1.5s-0.5-1-0.9-1.3L83.2,31.8l-4.4,4.4l9.8,9.8l0,5.7c0,1.2,0.5,2.4,1.4,3.3
				c0.9,0.9,2.1,1.4,3.3,1.4h0.5c0.3,0,0.5-0.1,0.7-0.3s0.3-0.6,0.3-0.9L94.8,45.1z"/>
			<rect x="65" y="24.9" class="st4" width="22" height="4.7"/>
			<rect x="65" y="24.9" class="st9" width="11" height="4.7"/>
			<rect x="62" y="-7" class="st1" width="27.9" height="32"/>
			<rect x="76" y="-7" class="st2" width="13.9" height="29.8"/>
			<ellipse class="st0" cx="66.4" cy="20.6" rx="1" ry="1"/>
			<circle class="st0" cx="66.4" cy="16.2" r="1"/>
			<circle class="st0" cx="66.4" cy="11.9" r="1"/>
		</g>
	</g>
</g>
</svg>
