<svg id="Слой_1" data-name="Слой 1" xmlns="http://www.w3.org/2000/svg" viewBox="0 0 136.68 122.37"><defs><style>.cls-1,.cls-4{fill:#fff;}.cls-1{opacity:0.35;}.cls-2{fill:#134961;}.cls-3{fill:#a8c422;}.cls-5{fill:#f2ce1c;}.cls-6{fill:#bf880c;}.cls-7{fill:#f27f0c;}.cls-8{fill:#f5f5f5;}.cls-9{fill:#dd1f26;}.cls-10{fill:#ededed;}.cls-11{fill:#c44121;}.cls-12{fill:#c6c6c6;}.cls-13{fill:#96230c;}.cls-14{fill:#f6f6f6;}</style></defs><title>service-item-6</title><circle id="Background_2" data-name="Background 2" class="cls-1" cx="68.34" cy="61.19" r="59.86"/><g id="Internet_Marketing_Strategy" data-name="Internet Marketing Strategy"><g id="Globe"><path class="cls-2" d="M6448.24,647.09q-0.43-1.71-1-3.38A52.15,52.15,0,1,0,6448.24,647.09Z" transform="translate(-6327.63 -592.96)"/><path class="cls-3" d="M6356.88,652.6c2,5.24,2,1.82,5.69,3s7.63,1.48,10.7,4.55,5.46,0.23,5.46,3.64-4.55,5.69-4.55,11.16,0.68,8.2,8.42,11.16,5.46,0.91,5.46,8.65,1.48,9.22,3,10.7,5,2.5,5-1.37-2.73-6.15,0-8.88,1.25-2.16,5.46-6.38,7.29-6.3,9.34-11.35,8.88-7.32,0-10.51-12.63.49-16.32-3.19-10.1-5.92-11.69-5.92-6.6-1.14-9.11-3.64-4.33-6.83-6.6-4.55-4.78.91-4.78-1.14,2.5-5.69,3.42-5.69,8,6.83,15,6.83,4.33-.23,4.33-2.73-0.68-2.73,6.38-4.1,19.13,0.46,19.13-5.24,3.19-7.06-3-10.7-2,.23-7.74-2.28-2.73-5.69,1.37-5.69,1.59,0.68,6.38,3,6.83-.46,4.33-3-2.73-4.33-9.11-4.33-12.64-3.53-16.17,0-6.15,8.2-11.38,6.15c-2.64-1-4.76-3-7.09-4.25a52.42,52.42,0,0,0-21.18,29.39c1.43,0.69,3,1.39,4.36,2C6356,649.64,6354.83,647.36,6356.88,652.6Z" transform="translate(-6327.63 -592.96)"/><path class="cls-3" d="M6448.24,647.09c-2,.31-5.35.62-7.8-0.3-3.64-1.37-3-3-6.15-3s-5.31-.68-9.56,3.57-10.7,10.09-1.82,14.65,7.74,8.42,13,6.38,8-.86,6.6.56-4.55,5-4.55,9.49-0.23,7.56.23,10.66A19,19,0,0,1,6438,693,52.41,52.41,0,0,0,6448.24,647.09Z" transform="translate(-6327.63 -592.96)"/><path class="cls-3" d="M6426.55,621.29c-1.86,3.63,6.37,1.82,6.37,3.87s-2,1.82-3.42,3.19,0.68,2.73.68,3.87-3.87,1.14-6.6,1.14-2.5,3.19-2.5,5.24,3.44,3.67,5,2.1a7.62,7.62,0,0,1,5.92-2.55c2.73,0,1.83,2.73,3.43,4.33s3.63-.68,3.63-1.77-4.67-2.67-3.42-3.92,3.19,1.59,4.33,1.59,0.13,1.92,3.64,5.42c1.91,1.91,3,1.08,3.64-.08a52.45,52.45,0,0,0-20-26.89C6426.72,617.51,6427.76,618.92,6426.55,621.29Z" transform="translate(-6327.63 -592.96)"/></g><g id="Pawn"><rect class="cls-4" x="6329.06" y="617.18" width="19.36" height="5.39" rx="1.96" ry="1.96" transform="matrix(0.99, -0.13, 0.13, 0.99, -6353.85, 252.92)"/><polygon class="cls-4" points="14.31 14.94 14.75 18.24 12.39 18.55 11.95 15.26 7.07 15.91 7.51 19.2 5.32 19.5 4.88 16.2 0 16.86 0.44 20.15 0.58 21.18 1.03 24.58 20.22 22.01 19.77 18.61 19.63 17.58 19.19 14.29 14.31 14.94"/><path class="cls-4" d="M6347,623.42a1,1,0,0,1-.88,1.15l-13,1.74a1,1,0,0,1-1.15-.88h0a1,1,0,0,1,.88-1.15l13-1.74a1,1,0,0,1,1.15.88h0Z" transform="translate(-6327.63 -592.96)"/><path class="cls-4" d="M6354.32,659a2,2,0,0,1-1.68,2.2l-16.6,2.22a2,2,0,0,1-2.2-1.68l-1.34-32.21a2,2,0,0,1,1.68-2.2l11.17-1.49a2,2,0,0,1,2.2,1.68Z" transform="translate(-6327.63 -592.96)"/><path class="cls-4" d="M6360.57,674.86a1.26,1.26,0,0,1-1,1.47l-26.25,3.51a1.26,1.26,0,0,1-1.33-1.17l1.69-12.1c0.15-.88.34-1.39,1-1.47l20.08-2.69c0.63-.08,1,0.37,1.33,1.17Z" transform="translate(-6327.63 -592.96)"/></g><g id="Horse_Pawn" data-name="Horse Pawn"><path class="cls-4" d="M6455.08,637.18a29.71,29.71,0,0,1,3.33-5.72c1.64-1.91,4.35-8.53,5.3-12.3s1.17-11-2.65-14.72-7.56-4.85-10.17-5c0,0-.1-2.14-2.91-4.43l0.27,4.82s-3.83.94-5.12,2.73-4,6.45-7.54,8.57c0,0-.9,5.69.45,6.66s1.39-.07,1.39-0.07,0.8-3.6,1.79-3.36,1.14,1.34-.05,4c0,0,2.11.85,2.56-.94s-0.37-2.31.62-2.91,4.3-2,4.89-1.82,3.73-.14,2.44,2.29-9,8.11-10.25,11.17a33.17,33.17,0,0,0-1.87,6.61Z" transform="translate(-6327.63 -592.96)"/><path class="cls-4" d="M6455.12,652.93a1.33,1.33,0,0,1-1.53,1.07l-22.46-5.62a1.33,1.33,0,0,1-.85-1.67l6.39-11.24c0.49-.8.88-1.23,1.53-1.07l16.07,4c0.66,0.16.8,0.74,0.85,1.67v12.84Z" transform="translate(-6327.63 -592.96)"/></g><g id="Email"><rect class="cls-5" x="82.6" y="89.55" width="47.65" height="31.02"/><path class="cls-6" d="M6410.73,713.39a0.35,0.35,0,0,1-.22-0.63l0.55-.45a0.35,0.35,0,0,1,.45.55l-0.55.45A0.36,0.36,0,0,1,6410.73,713.39Z" transform="translate(-6327.63 -592.96)"/><path class="cls-6" d="M6412.34,712.07a0.35,0.35,0,0,1-.23-0.63l1.06-.87a0.35,0.35,0,1,1,.45.55l-1.06.87A0.36,0.36,0,0,1,6412.34,712.07Zm2.12-1.74a0.35,0.35,0,0,1-.23-0.63l1.06-.87a0.35,0.35,0,1,1,.45.55l-1.06.87A0.35,0.35,0,0,1,6414.46,710.33Zm2.12-1.74a0.35,0.35,0,0,1-.23-0.63l1.06-.87a0.35,0.35,0,0,1,.45.55l-1.06.87A0.35,0.35,0,0,1,6416.57,708.6Zm2.12-1.74a0.35,0.35,0,0,1-.23-0.63l1.06-.87a0.35,0.35,0,0,1,.45.55l-1.06.87A0.35,0.35,0,0,1,6418.69,706.86Zm2.12-1.74a0.35,0.35,0,0,1-.23-0.63l1.06-.87a0.35,0.35,0,1,1,.45.55L6421,705A0.35,0.35,0,0,1,6420.81,705.13Zm2.12-1.74a0.35,0.35,0,0,1-.22-0.63l1.06-.87a0.35,0.35,0,1,1,.45.55l-1.06.87A0.36,0.36,0,0,1,6422.92,703.39Zm2.12-1.74a0.35,0.35,0,0,1-.22-0.63l1.06-.87a0.35,0.35,0,1,1,.45.55l-1.06.87A0.35,0.35,0,0,1,6425,701.66Zm2.12-1.74a0.35,0.35,0,0,1-.23-0.63l1.06-.87a0.35,0.35,0,0,1,.45.55l-1.06.87A0.35,0.35,0,0,1,6427.16,699.92Zm2.12-1.74a0.35,0.35,0,0,1-.23-0.63l1.06-.87a0.35,0.35,0,0,1,.45.55l-1.06.87A0.36,0.36,0,0,1,6429.27,698.18Zm2.12-1.74a0.35,0.35,0,0,1-.23-0.63l1.06-.87a0.35,0.35,0,0,1,.45.55l-1.06.87A0.36,0.36,0,0,1,6431.39,696.45Z" transform="translate(-6327.63 -592.96)"/><path class="cls-6" d="M6434.6,694.71a0.35,0.35,0,0,1-.23-0.08l-0.32-.27-0.32.26a0.35,0.35,0,1,1-.45-0.55l0.55-.45a0.35,0.35,0,0,1,.45,0l0.55,0.45A0.35,0.35,0,0,1,6434.6,694.71Z" transform="translate(-6327.63 -592.96)"/><path class="cls-6" d="M6455.63,712a0.35,0.35,0,0,1-.23-0.08l-1.05-.87a0.35,0.35,0,0,1,.45-0.55l1.05,0.87A0.35,0.35,0,0,1,6455.63,712Zm-2.1-1.73a0.35,0.35,0,0,1-.23-0.08l-1.05-.87a0.35,0.35,0,1,1,.45-0.55l1.05,0.87A0.35,0.35,0,0,1,6453.53,710.3Zm-2.1-1.73a0.35,0.35,0,0,1-.23-0.08l-1.05-.87a0.35,0.35,0,1,1,.45-0.55l1.05,0.87A0.35,0.35,0,0,1,6451.43,708.57Zm-2.1-1.73a0.35,0.35,0,0,1-.22-0.08l-1.05-.87a0.35,0.35,0,1,1,.45-0.55l1.05,0.87A0.35,0.35,0,0,1,6449.32,706.84Zm-2.1-1.73A0.35,0.35,0,0,1,6447,705l-1.05-.87a0.35,0.35,0,0,1,.45-0.55l1.05,0.87A0.35,0.35,0,0,1,6447.22,705.11Zm-2.1-1.73a0.35,0.35,0,0,1-.23-0.08l-1.05-.87a0.35,0.35,0,1,1,.45-0.55l1.05,0.87A0.35,0.35,0,0,1,6445.12,703.38Zm-2.1-1.73a0.35,0.35,0,0,1-.23-0.08l-1.05-.87a0.35,0.35,0,1,1,.45-0.55l1.05,0.87A0.35,0.35,0,0,1,6443,701.64Zm-2.1-1.73a0.36,0.36,0,0,1-.23-0.08l-1.05-.87a0.35,0.35,0,1,1,.45-0.55l1.05,0.87A0.35,0.35,0,0,1,6440.91,699.91Zm-2.1-1.73a0.35,0.35,0,0,1-.23-0.08l-1.05-.87a0.35,0.35,0,1,1,.45-0.55l1.05,0.87A0.35,0.35,0,0,1,6438.81,698.18Zm-2.1-1.73a0.35,0.35,0,0,1-.22-0.08l-1.05-.87a0.35,0.35,0,0,1,.45-0.55l1.05,0.87A0.35,0.35,0,0,1,6436.71,696.45Z" transform="translate(-6327.63 -592.96)"/><path class="cls-6" d="M6457.23,713.35a0.35,0.35,0,0,1-.23-0.08l-0.55-.45a0.35,0.35,0,1,1,.45-0.55l0.55,0.45A0.35,0.35,0,0,1,6457.23,713.35Z" transform="translate(-6327.63 -592.96)"/><polygon class="cls-6" points="118.02 89.55 82.6 89.55 106.43 105.06 130.25 89.55 118.02 89.55"/><polygon class="cls-5" points="82.6 89.55 106.43 74.04 130.25 89.55 82.6 89.55"/></g><g id="Chat"><path class="cls-7" d="M6369.45,628.56c-3.26-2.27-5.28-5.4-5.28-8.85,0-6.94,8.13-12.57,18.17-12.57s18.17,5.63,18.17,12.57-8.13,12.57-18.17,12.57a24.39,24.39,0,0,1-9.54-1.87,7.11,7.11,0,0,1-7.11.12C6368,630.53,6369,629.44,6369.45,628.56Z" transform="translate(-6327.63 -592.96)"/><circle class="cls-8" cx="45.99" cy="25.84" r="2.62"/><circle class="cls-8" cx="54.72" cy="25.84" r="2.62"/><circle class="cls-8" cx="63.44" cy="25.84" r="2.62"/><path class="cls-9" d="M6382.36,614.38c3.26-2.27,5.28-5.4,5.28-8.85,0-6.94-8.13-12.57-18.17-12.57s-18.17,5.63-18.17,12.57,8.13,12.57,18.17,12.57a24.38,24.38,0,0,0,9.54-1.87,7.11,7.11,0,0,0,7.11.12C6383.77,616.34,6382.78,615.25,6382.36,614.38Z" transform="translate(-6327.63 -592.96)"/><circle class="cls-8" cx="32.18" cy="12.31" r="2.62"/><circle class="cls-8" cx="40.91" cy="12.31" r="2.62"/><circle class="cls-8" cx="49.64" cy="12.31" r="2.62"/></g><g id="Loudspeaker"><path class="cls-9" d="M6347.57,676l-13.93,4.66c-3.94,1.32-5.82,6.3-4.21,11.12s6.11,7.67,10.05,6.35l0.26-.09,13.05,16.86a1.15,1.15,0,0,0,1.61.21l4.32-3.34a1.15,1.15,0,0,0,.21-1.61l-11.4-14.72,5.88-2Z" transform="translate(-6327.63 -592.96)"/><path class="cls-10" d="M6372.62,666.37L6368.8,655c-2.8,3.34-11.58,13.82-14.13,16.61-2.79,3.05-9.28,5.15-9.28,5.15a1.15,1.15,0,0,0-.73,1.45l5.11,15.3a1.15,1.15,0,0,0,1.45.73s1.86-.55,3.32-1.17a15.75,15.75,0,0,1,7.19-.3c3.51,0.78,16.8,3.22,21,4Z" transform="translate(-6327.63 -592.96)"/><path class="cls-11" d="M6387.08,696.35L6375.59,662l-3.43-10.25a1.17,1.17,0,0,0-1.46-.76l-1.82.61a1.17,1.17,0,0,0-.72,1.48l0.63,1.88,3.82,11.42,10.14,30.33,0.33,1a1.16,1.16,0,0,0,1.46.76l1.82-.61A1.17,1.17,0,0,0,6387.08,696.35Z" transform="translate(-6327.63 -592.96)"/><path class="cls-12" d="M6368.8,655c-2.8,3.34-11.58,13.82-14.13,16.61-2.79,3.05-9.28,5.15-9.28,5.15a1.15,1.15,0,0,0-.73,1.45l5.11,15.3a1.15,1.15,0,0,0,1.45.73s1.86-.55,3.32-1.17l18.06-26.64Z" transform="translate(-6327.63 -592.96)"/><path class="cls-13" d="M6372.17,651.74a1.17,1.17,0,0,0-1.46-.76l-1.82.61a1.17,1.17,0,0,0-.72,1.48l0.63,1.88,3.82,11.42,1.62-2.39,1.35-2Z" transform="translate(-6327.63 -592.96)"/><path class="cls-14" d="M6379.23,658.89a1.65,1.65,0,0,1-.49-3.22c0.32-.1,7.46-2.49,8.37-12.22,1-10.57-4.1-13.5-4.31-13.62h0l1.52-2.92c0.3,0.15,7.26,3.92,6.06,16.84a17.91,17.91,0,0,1-5.68,12,14.63,14.63,0,0,1-5,3A1.64,1.64,0,0,1,6379.23,658.89Z" transform="translate(-6327.63 -592.96)"/><path class="cls-14" d="M6411.42,710.66a1.65,1.65,0,0,1-1.19-1.91c0.06-.34,1.33-7.76-6.8-13.15-8.85-5.87-13.83-2.79-14-2.65h0l-1.86-2.72c0.28-.19,6.89-4.54,17.7,2.64a17.91,17.91,0,0,1,7.9,10.7,14.63,14.63,0,0,1,.3,5.83,1.65,1.65,0,0,1-1.94,1.29Z" transform="translate(-6327.63 -592.96)"/><path class="cls-14" d="M6438.68,677.13a1.65,1.65,0,0,1-1.35-.7h0a24.32,24.32,0,0,0-4.7-4.66,25.84,25.84,0,0,0-13.66-5.39,22.57,22.57,0,0,0-18.61,6.63,1.65,1.65,0,0,1-2.52-2.12c0.31-.37,7.73-9,21.42-7.8A29.62,29.62,0,0,1,6440,674.55,1.65,1.65,0,0,1,6438.68,677.13Z" transform="translate(-6327.63 -592.96)"/></g></g></svg>