<svg id="Слой_1" data-name="Слой 1" xmlns="http://www.w3.org/2000/svg" viewBox="0 0 145.54 120.25"><defs><style>.cls-1{fill:#fff;opacity:0.35;}.cls-2{fill:#d7d7d7;}.cls-3{fill:#f3f3f3;}.cls-4{fill:#706f6f;}.cls-5{fill:#afafaf;}.cls-6{fill:#f6f6f6;}.cls-7{fill:#dba52c;}.cls-8{fill:#ededed;}.cls-9{fill:#480734;}.cls-10{fill:#b12a5d;}.cls-11{fill:#b0b0b0;}.cls-12{fill:#f68921;}.cls-13{fill:none;}.cls-14{fill:#dadada;}.cls-15{fill:#1d1d1b;}.cls-16{fill:#7f0101;}.cls-17{fill:#b2b2b2;}.cls-18{fill:#dc1827;}.cls-19{fill:#4a2a7b;}.cls-20{fill:#c3c02f;}.cls-21{fill:#018cbf;}.cls-22{fill:#2c373b;}.cls-23{fill:#88bfb7;}.cls-24{fill:#ccfef8;}.cls-25{fill:#f5f5f5;}.cls-26{fill:#12667c;}.cls-27{fill:#fec93f;}.cls-28{fill:#f15922;}.cls-29{fill:#f9d5b4;}</style></defs><title>service-item-5</title><circle id="Background_2" data-name="Background 2" class="cls-1" cx="72.77" cy="60.13" r="59.81"/><g id="Page_Quality" data-name="Page Quality"><g id="Computer"><path class="cls-2" d="M5911.8,693.33a1.85,1.85,0,0,0-2.06-1.49H5895.2a1.85,1.85,0,0,0-2.06,1.49l-3.52,13a1.85,1.85,0,0,0,2.06,1.49h22.45a1.85,1.85,0,0,0,2.06-1.49Z" transform="translate(-5842.5 -600.43)"/><path class="cls-3" d="M11,21.16H111.61a2.06,2.06,0,0,1,2.06,2.06V91.36a2.06,2.06,0,0,1-2.06,2.06H11A2.06,2.06,0,0,1,8.9,91.36V23.23A2.07,2.07,0,0,1,11,21.16Z"/><rect class="cls-4" x="8.9" y="25.16" width="104.78" height="58.15"/><rect class="cls-5" x="37.24" y="102.06" width="46.56" height="6.21" rx="2.06" ry="2.06"/><polygon class="cls-6" points="112.33 29.29 8.89 29.29 8.89 78.14 80.54 78.14 90.98 78.14 113.68 78.14 113.68 50.61 113.68 37.95 113.68 34.18 113.68 29.29 112.33 29.29"/><rect class="cls-7" x="8.9" y="29.29" width="104.78" height="4.24"/><circle class="cls-8" cx="109.93" cy="31.44" r="0.91"/><circle class="cls-8" cx="106.42" cy="31.44" r="0.91"/><circle class="cls-8" cx="102.91" cy="31.44" r="0.91"/><path class="cls-8" d="M5870.7,631.88a0.91,0.91,0,0,1-.91.91h-12.05a0.91,0.91,0,0,1-.91-0.91h0a0.91,0.91,0,0,1,.91-0.91h12.05a0.91,0.91,0,0,1,.91.91h0Z" transform="translate(-5842.5 -600.43)"/><rect class="cls-9" x="15.11" y="36.72" width="93.91" height="12.65"/><rect class="cls-10" x="91.48" y="51.3" width="17.54" height="11.22"/><rect class="cls-10" x="91.48" y="64.48" width="17.54" height="11.22"/><rect class="cls-10" x="68.81" y="51.3" width="17.54" height="11.22"/><rect class="cls-10" x="68.81" y="64.48" width="17.54" height="11.22"/><rect class="cls-10" x="46.14" y="51.3" width="17.54" height="11.22"/><rect class="cls-10" x="46.14" y="64.48" width="17.54" height="11.22"/><rect class="cls-11" x="15.11" y="51.3" width="26.79" height="4.21"/><rect class="cls-11" x="15.11" y="56.88" width="26.79" height="4.21"/><rect class="cls-11" x="15.11" y="62.46" width="26.79" height="4.21"/><rect class="cls-11" x="15.11" y="68.04" width="26.79" height="4.21"/></g><g id="List"><path class="cls-12" d="M5984.15,713.29a2.85,2.85,0,0,1-2.7,3h-51.22a2.85,2.85,0,0,1-2.7-3v-71.6a2.85,2.85,0,0,1,2.7-3h51.22a2.85,2.85,0,0,1,2.7,3v71.6Z" transform="translate(-5842.5 -600.43)"/><polygon class="cls-13" points="128.28 46.39 97.37 46.39 97.37 39.74 96.6 39.74 96.6 48.31 129.2 48.31 129.2 39.74 128.28 39.74 128.28 46.39"/><path class="cls-13" d="M5955,633.07c-3.71-.16-4.84,2.22-5.17,3.49h9.81A4.68,4.68,0,0,0,5955,633.07Z" transform="translate(-5842.5 -600.43)"/><polygon class="cls-6" points="91.2 44.02 91.2 107.62 135.97 107.62 135.97 55.76 118.45 44.02 91.2 44.02"/><path class="cls-14" d="M5978.47,656.19L5961,644.46v11.74a28.24,28.24,0,0,1,8.06-1.13A37.54,37.54,0,0,1,5978.47,656.19Z" transform="translate(-5842.5 -600.43)"/><path class="cls-15" d="M5970.78,639.16v-2.6h-10.06A5.8,5.8,0,0,0,5955,632c-4.69-.2-6,3.11-6.34,4.59h-8.79v2.6h-1.79v10.6h34.63v-10.6h-1.94Zm-5.19,1.06a1.46,1.46,0,1,1-1.46,1.46A1.46,1.46,0,0,1,5965.59,640.22ZM5955,633.07a4.68,4.68,0,0,1,4.63,3.49h-9.81C5950.12,635.29,5951.25,632.91,5955,633.07Zm-10.45,7.15a1.46,1.46,0,1,1-1.46,1.46A1.46,1.46,0,0,1,5944.51,640.22Zm27.19,8.52h-32.6v-8.57h0.77v6.65h30.9v-6.65h0.93v8.57Z" transform="translate(-5842.5 -600.43)"/><rect class="cls-16" x="102.83" y="49.32" width="15.62" height="2.05"/><rect class="cls-16" x="102.83" y="52.15" width="15.62" height="0.87"/><rect class="cls-16" x="102.83" y="53.59" width="15.62" height="0.87"/><rect class="cls-17" x="105.98" y="85.02" width="25.06" height="3.29"/><rect class="cls-17" x="105.98" y="89.13" width="25.06" height="1.1"/><rect class="cls-17" x="105.98" y="95.91" width="25.06" height="3.29"/><rect class="cls-17" x="105.98" y="100.01" width="25.06" height="1.1"/><circle class="cls-14" cx="101.5" cy="87.56" r="3.35"/><circle class="cls-14" cx="101.5" cy="98.51" r="3.35"/><path class="cls-18" d="M5950.77,681.94a1.49,1.49,0,0,0-1.86,0l-5,4.12-2.07-2a1.15,1.15,0,1,0-1.6,1.65l2.88,2.79a1.19,1.19,0,0,0,1.47.17l0.11-.07,5.74-4.77A1.53,1.53,0,0,0,5950.77,681.94Z" transform="translate(-5842.5 -600.43)"/><path class="cls-18" d="M5950.77,693.06a1.48,1.48,0,0,0-1.86,0l-5,4.12-2.07-2a1.15,1.15,0,1,0-1.6,1.66l2.88,2.79a1.19,1.19,0,0,0,1.47.17l0.11-.07,5.74-4.77A1.53,1.53,0,0,0,5950.77,693.06Z" transform="translate(-5842.5 -600.43)"/><rect class="cls-17" x="118.46" y="60.2" width="15.15" height="7.86"/><rect class="cls-17" x="118.46" y="69.16" width="15.15" height="1.62"/><rect class="cls-17" x="118.46" y="71.4" width="15.15" height="1.62"/><rect class="cls-17" x="118.46" y="73.74" width="15.15" height="1.62"/><g id="Pie_Chart" data-name="Pie Chart"><path class="cls-19" d="M5947.45,657.35v10.18h10.18A10.18,10.18,0,0,0,5947.45,657.35Z" transform="translate(-5842.5 -600.43)"/><path class="cls-16" d="M5946.69,658.31a10.18,10.18,0,1,0,7.53,17l-7.53-6.84V658.31Z" transform="translate(-5842.5 -600.43)"/><path class="cls-20" d="M5947.52,668.14l7.53,6.84a10.14,10.14,0,0,0,2.64-6.84h-10.18Z" transform="translate(-5842.5 -600.43)"/></g><circle class="cls-21" cx="131.04" cy="105.75" r="14.5"/><path class="cls-6" d="M5972.06,716.28a2.31,2.31,0,0,1-1.43-.49l-7.82-6.12a2.32,2.32,0,0,1,2.86-3.65l6,4.73,9.68-11.76a2.32,2.32,0,0,1,3.58,2.94l-11.12,13.51A2.31,2.31,0,0,1,5972.06,716.28Z" transform="translate(-5842.5 -600.43)"/></g><g id="Glasses"><path class="cls-22" d="M5858.5,716.41a1.36,1.36,0,0,1-1.25-.83,3.57,3.57,0,0,1,.22-3.45,3.91,3.91,0,0,1,3.25-1.67h0c6.6,0,14.76.07,14.84,0.07a1.36,1.36,0,0,1,0,2.72h0c-0.08,0-8.24-.07-14.82-0.07h0a1.22,1.22,0,0,0-1,.45,0.94,0.94,0,0,0,0,.9A1.36,1.36,0,0,1,5858.5,716.41Z" transform="translate(-5842.5 -600.43)"/><path class="cls-23" d="M5886.33,702.83a4.57,4.57,0,0,0-3.09-1.2h-15.39a4.57,4.57,0,0,0-4.57,4.57V709a4.57,4.57,0,0,0,4.57,4.57h15.39a4.57,4.57,0,0,0,4.57-4.57v-2.86A4.56,4.56,0,0,0,5886.33,702.83Z" transform="translate(-5842.5 -600.43)"/><path class="cls-24" d="M5871.36,710.29a1.77,1.77,0,0,0,2.51.11l8.35-7.63a1.76,1.76,0,0,0,.57-1.15h-4.57l-6.74,6.16A1.77,1.77,0,0,0,5871.36,710.29Z" transform="translate(-5842.5 -600.43)"/><path class="cls-24" d="M5879.84,707.26a1.1,1.1,0,0,0,1.56.07l4.93-4.51a4.56,4.56,0,0,0-2.08-1.09l-4.34,4A1.1,1.1,0,0,0,5879.84,707.26Z" transform="translate(-5842.5 -600.43)"/><path class="cls-22" d="M5925.39,716.41a1.36,1.36,0,0,0,1.25-.83,3.57,3.57,0,0,0-.22-3.45,3.91,3.91,0,0,0-3.25-1.67h0c-6.6,0-14.76.07-14.85,0.07a1.36,1.36,0,0,0,0,2.72h0c0.08,0,8.24-.07,14.82-0.07h0a1.23,1.23,0,0,1,1,.45,0.94,0.94,0,0,1,0,.9A1.36,1.36,0,0,0,5925.39,716.41Z" transform="translate(-5842.5 -600.43)"/><path class="cls-22" d="M5883.23,715.19h-0.08l-15.39-.19a6.05,6.05,0,0,1-6-6.12l0-2.86a6.07,6.07,0,0,1,6-6h0.08l15.39,0.19a6.05,6.05,0,0,1,6,6.12l0,2.86A6.07,6.07,0,0,1,5883.23,715.19ZM5867.87,703a3.11,3.11,0,0,0-3.09,3.06l0,2.86a3.1,3.1,0,0,0,3.06,3.13l15.43,0.19a3.11,3.11,0,0,0,3.09-3.06l0-2.86a3.1,3.1,0,0,0-3.06-3.13Z" transform="translate(-5842.5 -600.43)"/><path class="cls-23" d="M5919.32,702.83a4.57,4.57,0,0,0-3.09-1.2h-15.39a4.57,4.57,0,0,0-4.57,4.57V709a4.57,4.57,0,0,0,4.57,4.57h15.39a4.57,4.57,0,0,0,4.57-4.57v-2.86A4.56,4.56,0,0,0,5919.32,702.83Z" transform="translate(-5842.5 -600.43)"/><path class="cls-24" d="M5912.84,707.26a1.1,1.1,0,0,0,1.56.07l4.93-4.51a4.56,4.56,0,0,0-2.08-1.09l-4.34,4A1.1,1.1,0,0,0,5912.84,707.26Z" transform="translate(-5842.5 -600.43)"/><path class="cls-22" d="M5916.22,715.19h-0.08l-15.39-.19a6.05,6.05,0,0,1-6-6.12l0-2.86a6.07,6.07,0,0,1,6-6h0.08l15.39,0.19a6.05,6.05,0,0,1,6,6.12l0,2.86A6.07,6.07,0,0,1,5916.22,715.19ZM5900.86,703a3.11,3.11,0,0,0-3.09,3.06l0,2.86a3.1,3.1,0,0,0,3.06,3.13l15.43,0.19a3.11,3.11,0,0,0,3.09-3.06l0-2.86a3.1,3.1,0,0,0-3.06-3.13Z" transform="translate(-5842.5 -600.43)"/><path class="cls-22" d="M5896.07,709.17a1.39,1.39,0,0,1-.57-0.12,10,10,0,0,0-3.56-.73,6.25,6.25,0,0,0-3.06.59,1.42,1.42,0,0,1-2-.43,1.61,1.61,0,0,1,.41-2.15,8.39,8.39,0,0,1,4.69-1.11,12.77,12.77,0,0,1,4.71,1,1.59,1.59,0,0,1,.78,2A1.47,1.47,0,0,1,5896.07,709.17Z" transform="translate(-5842.5 -600.43)"/><path class="cls-22" d="M5896.73,712.74h-9.55a1.23,1.23,0,0,1,0-2.45h9.55A1.23,1.23,0,0,1,5896.73,712.74Z" transform="translate(-5842.5 -600.43)"/><path class="cls-25" d="M5918,709.17c-0.34,0-.15-3.83-0.86-4.55s-4.58-.52-4.55-0.87,3.65-.55,4.38-1.29,1-4.35,1.31-4.37,0.3,3.71,1,4.4,4.42,0.64,4.4,1-3.72.5-4.47,1.25S5918.26,709.15,5918,709.17Z" transform="translate(-5842.5 -600.43)"/></g><g id="Badge"><polygon class="cls-26" points="27.82 111.63 16.39 101.55 4.96 111.63 4.96 80.24 27.82 80.24 27.82 111.63"/><polygon class="cls-27" points="33.11 77.88 30.87 79.5 32.7 81.57 30.16 82.64 31.47 85.07 28.75 85.55 29.5 88.21 26.74 88.07 26.88 90.83 24.22 90.08 23.74 92.8 21.32 91.48 20.24 94.03 18.17 92.2 16.56 94.44 14.94 92.2 12.87 94.03 11.8 91.48 9.37 92.8 8.89 90.08 6.23 90.83 6.37 88.07 3.61 88.21 4.36 85.55 1.64 85.07 2.95 82.64 0.41 81.57 2.24 79.5 0 77.88 2.24 76.27 0.41 74.2 2.96 73.13 1.64 70.7 4.36 70.22 3.61 67.56 6.37 67.7 6.23 64.94 8.89 65.68 9.37 62.96 11.8 64.28 12.87 61.74 14.94 63.57 16.56 61.33 18.17 63.57 20.24 61.74 21.32 64.28 23.74 62.97 24.22 65.68 26.88 64.94 26.74 67.7 29.5 67.56 28.75 70.22 31.47 70.7 30.16 73.13 32.7 74.2 30.87 76.27 33.11 77.88"/><circle class="cls-28" cx="16.56" cy="77.88" r="11.94"/><path class="cls-25" d="M5869.13,676.28c-0.42,0-.18-4.63-1-5.5s-5.53-.63-5.5-1,4.41-.67,5.29-1.55,1.21-5.26,1.58-5.29,0.36,4.48,1.2,5.32,5.34,0.78,5.32,1.17-4.5.6-5.4,1.5S5869.5,676.24,5869.13,676.28Z" transform="translate(-5842.5 -600.43)"/></g><g id="Like"><path class="cls-29" d="M5934,614.23a1.9,1.9,0,0,1-1.9-1.9v-0.48a1.9,1.9,0,0,1,1.9-1.9h8l-0.38-.51c-0.83-1.09-2.67-4.08-2.54-6.59,0-.83,1.44-4.78,4.83-0.37,7.81,10.16,11.5,9.09,11.5,9.09a2.64,2.64,0,0,1,1.67,2.16v10.83c0,0.9-.51,1.17-1.67,1.63l-5.57,1.33h0a1.66,1.66,0,0,1-.54.09h-13.86a1.9,1.9,0,0,1-1.9-1.9v-0.48a1.9,1.9,0,0,1,1.9-1.9h2.52v-0.18H5934a1.9,1.9,0,0,1-1.9-1.9v-0.48a1.9,1.9,0,0,1,1.9-1.9h3.91v-0.18H5934a1.9,1.9,0,0,1-1.9-1.9v-0.48a1.9,1.9,0,0,1,1.9-1.9h3.91v-0.18H5934Z" transform="translate(-5842.5 -600.43)"/><rect class="cls-6" x="112.91" y="9.59" width="3.48" height="17.57"/><rect class="cls-15" x="116.39" y="7.39" width="20.73" height="21.9"/></g></g></svg>