<svg id="Слой_1" data-name="Слой 1" xmlns="http://www.w3.org/2000/svg" viewBox="0 0 145.65 140"><defs><style>.cls-1{fill:#fff;opacity:0.35;}.cls-2{fill:#be1622;}.cls-3{fill:#16050f;}.cls-4{fill:#f6f6f6;}.cls-5{fill:#ffea00;}.cls-6{fill:#ededed;}.cls-7{fill:#c6c6c6;}.cls-8{fill:#ffc00f;}.cls-9{fill:#b2b2b2;}.cls-10{fill:#29235c;}.cls-11{fill:#1d71b8;}.cls-12{fill:#fdeacf;}.cls-13{fill:#3c3c3b;}.cls-14{fill:#352f2d;}.cls-15{fill:#ccfef8;opacity:0.5;}.cls-16{fill:#d02142;}.cls-17{fill:#fad9aa;}.cls-18{fill:#7f938d;}.cls-19{fill:#496058;}.cls-20{fill:#cc2445;}.cls-21{fill:#6e0f04;}.cls-22{fill:#eedbb0;}.cls-23{fill:#82142d;}.cls-24{fill:#f2f2f2;}</style></defs><title>service-item-1</title><circle id="Background_2" data-name="Background 2" class="cls-1" cx="72.83" cy="70" r="61.39"/><g id="Search_Optimization" data-name="Search Optimization"><g id="Arrow"><circle class="cls-2" cx="7.57" cy="58.44" r="7.57"/><circle class="cls-3" cx="7.55" cy="58.42" r="5.57"/><polygon class="cls-3" points="145.66 0 128.61 1.12 133.43 7.02 99.63 34.48 88.91 12.35 63.26 50.87 40.31 19.19 6.68 56.38 8.42 59.8 39.82 25.68 64.61 58.44 88.31 19.88 99.04 41.1 135.86 10 140.02 15.09 145.66 0"/></g><g id="Page"><rect class="cls-4" x="25.01" y="24.09" width="101.34" height="88.87" rx="1.92" ry="1.92"/><path class="cls-5" d="M5498.78,334.09h-97.5a1.92,1.92,0,0,0-1.92,1.92v5.65H5500.7V336A1.92,1.92,0,0,0,5498.78,334.09Z" transform="translate(-5374.35 -310)"/><circle class="cls-6" cx="120.86" cy="27.87" r="1.65"/><circle class="cls-6" cx="114.47" cy="27.87" r="1.65"/><circle class="cls-6" cx="108.08" cy="27.87" r="1.65"/><path class="cls-6" d="M5427.17,337.87a1.65,1.65,0,0,1-1.65,1.65h-22a1.65,1.65,0,0,1-1.65-1.65h0a1.65,1.65,0,0,1,1.65-1.65h22a1.65,1.65,0,0,1,1.65,1.65h0Z" transform="translate(-5374.35 -310)"/><rect class="cls-7" x="31.88" y="39.45" width="87.34" height="29.37"/><polygon class="cls-2" points="31.88 68.82 46.09 55.19 50.25 59.65 65.28 49.12 78.06 58.97 91.01 44.63 101.08 55.98 114.47 40.79 119.21 53.37 119.21 68.82 31.88 68.82"/><polygon class="cls-8" points="31.88 68.82 39.59 53.15 47.21 64.88 55.18 59.15 64.21 64.98 81.9 51.02 93.96 64 104.44 47.51 119.21 68.82 31.88 68.82"/><rect class="cls-8" x="31.88" y="82.49" width="11.23" height="13.93"/><rect class="cls-2" x="47.9" y="82.49" width="11.51" height="13.93"/><rect class="cls-9" x="31.88" y="98.98" width="11.23" height="1.17"/><rect class="cls-9" x="31.88" y="100.57" width="11.23" height="1.17"/><rect class="cls-9" x="47.86" y="98.98" width="11.23" height="1.17"/><rect class="cls-9" x="47.86" y="100.57" width="11.23" height="1.17"/><rect class="cls-10" x="54.73" y="70.52" width="41.24" height="3.92"/><rect class="cls-11" x="56.4" y="75.4" width="37.88" height="2.24"/><rect class="cls-9" x="69.75" y="82.49" width="49.46" height="12.65"/><rect class="cls-9" x="69.75" y="96.42" width="49.46" height="1.92"/><rect class="cls-9" x="69.75" y="99.62" width="49.46" height="1.92"/><rect class="cls-9" x="69.75" y="102.81" width="49.46" height="1.92"/></g><g id="Magnify"><polygon class="cls-12" points="134.12 110.26 138.42 87.64 123.37 73.34 119.3 82.07 121.71 115.04 134.67 115.04 134.12 110.26"/><path class="cls-7" d="M5504.48,344a14.13,14.13,0,0,0-16.91,1.68,14.3,14.3,0,0,0-1.27,1.33A14.15,14.15,0,1,0,5504.48,344Z" transform="translate(-5374.35 -310)"/><rect class="cls-13" x="5493.95" y="374.76" width="5.43" height="13.25" transform="translate(-5378.37 -246.74) rotate(-0.66)"/><path class="cls-2" d="M5497.31,370.25a14.11,14.11,0,0,0,9.6-3.91l-14.14-18.19-9.62,10A14.15,14.15,0,0,0,5497.31,370.25Z" transform="translate(-5374.35 -310)"/><g id="Magnifiy"><path class="cls-14" d="M5477.14,356.55a19.79,19.79,0,1,0,19.56-20A19.79,19.79,0,0,0,5477.14,356.55Zm5.85-.28a14.15,14.15,0,1,1,14.31,14A14.15,14.15,0,0,1,5483,356.27Z" transform="translate(-5374.35 -310)"/><path class="cls-15" d="M5490.93,353.88a1.39,1.39,0,0,1-.37,1.93l-0.51.34a1.39,1.39,0,0,1-1.93-.37l-3.8-5.63a14.15,14.15,0,0,1,2-3.12Z" transform="translate(-5374.35 -310)"/><path class="cls-15" d="M5498.67,356.59l-0.79.53a2.15,2.15,0,0,1-3-.58l-7.33-10.86a14.14,14.14,0,0,1,4.45-2.78l7.22,10.7A2.15,2.15,0,0,1,5498.67,356.59Z" transform="translate(-5374.35 -310)"/></g><path class="cls-16" d="M5491.62,415.62a5.17,5.17,0,1,0,10.31-.12l-0.37-33.14-10.31.12Z" transform="translate(-5374.35 -310)"/><path class="cls-17" d="M5499.88,408.59a3.38,3.38,0,0,1-4.46,1.69l-6.15-2.78a3.38,3.38,0,0,1-1.69-4.47h0a3.38,3.38,0,0,1,4.47-1.69l6.15,2.78a3.38,3.38,0,0,1,1.69,4.47h0Z" transform="translate(-5374.35 -310)"/><path class="cls-17" d="M5500.27,401.89a3.46,3.46,0,0,1-4.57,1.73l-6.3-2.85a3.46,3.46,0,0,1-1.73-4.57h0a3.45,3.45,0,0,1,4.57-1.73l6.3,2.84a3.46,3.46,0,0,1,1.73,4.57h0Z" transform="translate(-5374.35 -310)"/><path class="cls-17" d="M5497.22,413.62a2.59,2.59,0,0,1-3.43,1.29l-4.72-2.13a2.59,2.59,0,0,1-1.29-3.43h0a2.59,2.59,0,0,1,3.43-1.29l4.72,2.13a2.59,2.59,0,0,1,1.29,3.43h0Z" transform="translate(-5374.35 -310)"/><path class="cls-12" d="M5497.25,423.77l-4.76-18,2-10.3s-5.83,2.06-8.68.32c-3.34-2-2.56-4.62-.69-5.31s5.71-2,7.87-4.13,4.33-.79,5.9.79,8.86,11.12,8.86,11.12l0.29,25.48h-10.82Z" transform="translate(-5374.35 -310)"/><polygon class="cls-18" points="130.72 116.67 116.93 116.67 116.93 140 123.72 140 139.22 140 139.22 116.67 130.72 116.67"/><rect class="cls-6" x="118.15" y="113.77" width="19.18" height="2.91"/><polygon class="cls-19" points="116.93 116.67 116.93 140 123.72 140 130.72 116.67 116.93 116.67"/></g><g id="Gear"><path class="cls-3" d="M5407.75,444.94a21.47,21.47,0,0,0,3.59-2.52l-1.11-4.76a16.94,16.94,0,0,0,1.58-2.1l4.88-.25a21.35,21.35,0,0,0,1.42-4.15l-3.7-3.2a17.22,17.22,0,0,0,0-2.62l3.81-3.07a21.1,21.1,0,0,0-1.28-4.19l-4.88-.41c-0.22-.37-0.45-0.74-0.71-1.11s-0.52-.71-0.8-1l1.28-4.73a21,21,0,0,0-3.5-2.63l-4.18,2.53a17.26,17.26,0,0,0-2.48-.85l-1.74-4.57a21.39,21.39,0,0,0-4.38-.08l-1.9,4.5a17,17,0,0,0-2.51.77l-4.1-2.67a21.45,21.45,0,0,0-3.59,2.52l1.11,4.76a16.86,16.86,0,0,0-1.58,2.09l-4.88.25a21.32,21.32,0,0,0-1.42,4.15l3.7,3.2a17.29,17.29,0,0,0,0,2.62l-3.8,3.07a21,21,0,0,0,1.28,4.19l4.88,0.41c0.22,0.37.45,0.74,0.71,1.11s0.52,0.71.8,1l-1.28,4.72a21.14,21.14,0,0,0,3.5,2.63l4.18-2.53a17.1,17.1,0,0,0,2.48.85l1.74,4.57a21.33,21.33,0,0,0,4.38.08l1.9-4.5a17,17,0,0,0,2.51-.77Z" transform="translate(-5374.35 -310)"/><circle class="cls-20" cx="5397.83" cy="426.38" r="7.24" transform="translate(-4461.32 3150.33) rotate(-38.59)"/><g id="Gear-2" data-name="Gear"><path class="cls-21" d="M5444,444.16a16.52,16.52,0,0,0,2.61-2.15l-1.14-3.59a13,13,0,0,0,1.09-1.71l3.74-.49a16.37,16.37,0,0,0,.84-3.27l-3-2.23a13.25,13.25,0,0,0-.12-2l2.74-2.59a16.24,16.24,0,0,0-1.24-3.14l-3.77,0c-0.19-.27-0.39-0.54-0.61-0.81s-0.44-.51-0.68-0.75l0.7-3.71a16.22,16.22,0,0,0-2.85-1.81l-3.06,2.2a13.25,13.25,0,0,0-2-.5l-1.62-3.4a16.5,16.5,0,0,0-3.37.2L5431,418a13.1,13.1,0,0,0-1.88.74l-3.31-1.8a16.61,16.61,0,0,0-2.61,2.15l1.14,3.59a13,13,0,0,0-1.09,1.7l-3.74.49a16.42,16.42,0,0,0-.84,3.27l3,2.23a13.24,13.24,0,0,0,.12,2l-2.74,2.59a16.29,16.29,0,0,0,1.24,3.14l3.77,0c0.19,0.27.39,0.54,0.61,0.81s0.44,0.51.68,0.75l-0.7,3.71a16.29,16.29,0,0,0,2.85,1.81l3.06-2.2a13.16,13.16,0,0,0,2,.5l1.62,3.4a16.35,16.35,0,0,0,3.37-.2l1.19-3.57a13,13,0,0,0,1.88-.74Z" transform="translate(-5374.35 -310)"/><circle class="cls-22" cx="5434.89" cy="430.53" r="6.68" transform="translate(-4405.52 3247.45) rotate(-39.53)"/></g></g><g id="Search_Bar" data-name="Search Bar"><path class="cls-6" d="M5394.16,414.3a4.22,4.22,0,0,0-4.22,4.22v6.33a4.22,4.22,0,0,0,4.22,4.22h70.5V414.3h-70.5Z" transform="translate(-5374.35 -310)"/><path d="M5397.41,423.06a1.62,1.62,0,0,0,.75-0.13,0.45,0.45,0,0,0,.24-0.42,0.56,0.56,0,0,0-.24-0.48,3.79,3.79,0,0,0-.79-0.4l-0.51-.22a1.78,1.78,0,0,1-.42-0.26,1.14,1.14,0,0,1-.28-0.36,1.29,1.29,0,0,1,.34-1.49,1.92,1.92,0,0,1,1.23-.36l0.39,0,0.36,0.05,0.3,0.07,0.2,0.06-0.15.71a2.07,2.07,0,0,0-.42-0.15,2.69,2.69,0,0,0-.68-0.08,1.26,1.26,0,0,0-.6.14,0.45,0.45,0,0,0-.26.43,0.58,0.58,0,0,0,.06.26,0.61,0.61,0,0,0,.18.21,1.44,1.44,0,0,0,.3.17l0.42,0.17,0.58,0.24a1.84,1.84,0,0,1,.44.28,1.07,1.07,0,0,1,.28.38,1.4,1.4,0,0,1,.1.55,1.1,1.1,0,0,1-.47,1,2.35,2.35,0,0,1-1.35.33,3.52,3.52,0,0,1-1-.1l-0.47-.15,0.15-.71,0.45,0.16A2.6,2.6,0,0,0,5397.41,423.06Z" transform="translate(-5374.35 -310)"/><path d="M5400,421.37a2.93,2.93,0,0,1,.18-1.06,2.22,2.22,0,0,1,.47-0.76,1.91,1.91,0,0,1,.67-0.45,2.1,2.1,0,0,1,.78-0.15,1.77,1.77,0,0,1,1.42.58,2.66,2.66,0,0,1,.49,1.76v0.14a1.24,1.24,0,0,1,0,.15h-3.14a1.68,1.68,0,0,0,.42,1.09,1.52,1.52,0,0,0,1.13.37,3,3,0,0,0,.73-0.07,2.62,2.62,0,0,0,.45-0.15l0.11,0.69a2.44,2.44,0,0,1-.53.17,3.75,3.75,0,0,1-.85.09,2.71,2.71,0,0,1-1-.18,1.94,1.94,0,0,1-.72-0.5,2,2,0,0,1-.42-0.75A3.2,3.2,0,0,1,5400,421.37Zm3.15-.45a1.38,1.38,0,0,0-.28-0.91,1,1,0,0,0-.79-0.36,1.08,1.08,0,0,0-.5.11,1.18,1.18,0,0,0-.37.29,1.32,1.32,0,0,0-.23.41,2,2,0,0,0-.11.47h2.28Z" transform="translate(-5374.35 -310)"/><path d="M5406.7,418.95a2.38,2.38,0,0,1,.83.13,1.35,1.35,0,0,1,.55.36,1.37,1.37,0,0,1,.3.56,2.7,2.7,0,0,1,.09.71v2.87l-0.3,0-0.43.06-0.52,0-0.55,0a3,3,0,0,1-.72-0.08,1.6,1.6,0,0,1-.57-0.25A1.15,1.15,0,0,1,5405,423a1.59,1.59,0,0,1-.13-0.68,1.31,1.31,0,0,1,.15-0.65,1.24,1.24,0,0,1,.42-0.44,2,2,0,0,1,.62-0.25,3.37,3.37,0,0,1,.74-0.08h0.26l0.25,0,0.21,0,0.12,0v-0.23a1.85,1.85,0,0,0,0-.4,0.93,0.93,0,0,0-.16-0.35,0.81,0.81,0,0,0-.31-0.25,1.23,1.23,0,0,0-.52-0.09,3.88,3.88,0,0,0-.71.06,2.5,2.5,0,0,0-.46.12l-0.1-.68a2.52,2.52,0,0,1,.53-0.14A4.57,4.57,0,0,1,5406.7,418.95Zm0.07,4.12h0.52a2.22,2.22,0,0,0,.38,0v-1.37a1,1,0,0,0-.29-0.07,3.2,3.2,0,0,0-.48,0l-0.39,0a1.23,1.23,0,0,0-.38.11,0.82,0.82,0,0,0-.29.23,0.6,0.6,0,0,0-.11.38,0.66,0.66,0,0,0,.28.61A1.47,1.47,0,0,0,5406.77,423.06Z" transform="translate(-5374.35 -310)"/><path d="M5411.53,419h0.24l0.27,0,0.24,0,0.16,0-0.14.72-0.32-.08a2.83,2.83,0,0,0-.58,0,2.16,2.16,0,0,0-.45,0l-0.3.07v3.86h-0.82v-4.4a5.63,5.63,0,0,1,.72-0.2A4.67,4.67,0,0,1,5411.53,419Z" transform="translate(-5374.35 -310)"/><path d="M5415.24,423.76a2.5,2.5,0,0,1-1-.18,2,2,0,0,1-.71-0.49,2.06,2.06,0,0,1-.43-0.76,3.13,3.13,0,0,1-.14-1,2.92,2.92,0,0,1,.15-1,2.29,2.29,0,0,1,.44-0.76,2,2,0,0,1,.69-0.5,2.24,2.24,0,0,1,.91-0.18,3.65,3.65,0,0,1,.62.05,2.84,2.84,0,0,1,.59.17l-0.19.7a2,2,0,0,0-.43-0.14,2.43,2.43,0,0,0-.52-0.05,1.31,1.31,0,0,0-1.06.43,1.91,1.91,0,0,0-.37,1.26,2.59,2.59,0,0,0,.08.68,1.41,1.41,0,0,0,.27.53,1.18,1.18,0,0,0,.46.34,1.77,1.77,0,0,0,.69.12,2.62,2.62,0,0,0,.59-0.06,2.16,2.16,0,0,0,.41-0.13l0.12,0.69a0.86,0.86,0,0,1-.2.08l-0.3.07-0.36.05Z" transform="translate(-5374.35 -310)"/><path d="M5417.35,423.65v-6.71l0.82-.14v2.35a2.77,2.77,0,0,1,.49-0.14,2.83,2.83,0,0,1,.52,0,2.33,2.33,0,0,1,.91.15,1.42,1.42,0,0,1,.58.43,1.67,1.67,0,0,1,.3.67,3.88,3.88,0,0,1,.09.86v2.58h-0.82v-2.4a3.93,3.93,0,0,0-.06-0.72A1.23,1.23,0,0,0,5420,420a0.75,0.75,0,0,0-.35-0.27,1.55,1.55,0,0,0-.55-0.08l-0.27,0-0.27,0-0.23,0-0.15,0v3.82h-0.82Z" transform="translate(-5374.35 -310)"/><path d="M5423.36,423.18a0.6,0.6,0,0,1-.16.42,0.62,0.62,0,0,1-.87,0,0.62,0.62,0,0,1,0-.83,0.62,0.62,0,0,1,.87,0A0.6,0.6,0,0,1,5423.36,423.18Z" transform="translate(-5374.35 -310)"/><path d="M5425.53,423.18a0.6,0.6,0,0,1-.16.42,0.62,0.62,0,0,1-.87,0,0.62,0.62,0,0,1,0-.83,0.62,0.62,0,0,1,.87,0A0.6,0.6,0,0,1,5425.53,423.18Z" transform="translate(-5374.35 -310)"/><path d="M5427.71,423.18a0.6,0.6,0,0,1-.16.42,0.62,0.62,0,0,1-.87,0,0.62,0.62,0,0,1,0-.83,0.62,0.62,0,0,1,.87,0A0.6,0.6,0,0,1,5427.71,423.18Z" transform="translate(-5374.35 -310)"/><path class="cls-23" d="M5484.65,424.86v-6.33a4.22,4.22,0,0,0-4.22-4.22h-15.77v14.78h15.77A4.22,4.22,0,0,0,5484.65,424.86Z" transform="translate(-5374.35 -310)"/><path class="cls-24" d="M5474.8,416.78a3.67,3.67,0,1,0-.73,5.55l0.82,0.9-0.37.34,3.14,3.38a1,1,0,1,0,1.41-1.29l-3.14-3.38-0.3.27-0.8-.88A3.67,3.67,0,0,0,5474.8,416.78Zm-4.65,4.18a2.62,2.62,0,1,1,3.71.18A2.62,2.62,0,0,1,5470.14,421Z" transform="translate(-5374.35 -310)"/></g></g></svg>