<svg id="Слой_1" data-name="Слой 1" xmlns="http://www.w3.org/2000/svg" viewBox="0 0 260 500"><defs><style>.cls-1{fill:#212121;}.cls-2{fill:#fff;}.cls-3{fill:none;stroke:#fff;stroke-miterlimit:10;}</style></defs><title>smartphone-bg</title><rect class="cls-1" x="1" y="1" width="258" height="498" rx="24" ry="24"/><path class="cls-2" d="M1025,320a23,23,0,0,1,23,23V793a23,23,0,0,1-23,23H815a23,23,0,0,1-23-23V343a23,23,0,0,1,23-23h210m0-2H815a25,25,0,0,0-25,25V793a25,25,0,0,0,25,25h210a25,25,0,0,0,25-25V343a25,25,0,0,0-25-25h0Z" transform="translate(-790 -318)"/><path class="cls-2" d="M945,329a2,2,0,0,1,0,4H895a2,2,0,0,1,0-4h50m0-1H895a3,3,0,0,0,0,6h50a3,3,0,0,0,0-6h0Z" transform="translate(-790 -318)"/><path class="cls-2" d="M1009.25,328a3.25,3.25,0,1,1-3.25,3.25,3.25,3.25,0,0,1,3.25-3.25m0-1a4.25,4.25,0,1,0,4.25,4.25,4.25,4.25,0,0,0-4.25-4.25h0Z" transform="translate(-790 -318)"/><path class="cls-2" d="M967.25,327.75A3.25,3.25,0,1,1,964,331a3.25,3.25,0,0,1,3.25-3.25m0-1A4.25,4.25,0,1,0,971.5,331a4.25,4.25,0,0,0-4.25-4.25h0Z" transform="translate(-790 -318)"/><path class="cls-2" d="M956.25,327.75A3.25,3.25,0,1,1,953,331a3.25,3.25,0,0,1,3.25-3.25m0-1A4.25,4.25,0,1,0,960.5,331a4.25,4.25,0,0,0-4.25-4.25h0Z" transform="translate(-790 -318)"/><rect class="cls-3" x="105.17" y="473" width="50" height="12" rx="6" ry="6"/><rect class="cls-3" x="102" y="470" width="56" height="18" rx="9" ry="9"/></svg>