<?xml version="1.0" encoding="utf-8"?>
<!-- Generator: Adobe Illustrator 19.2.1, SVG Export Plug-In . SVG Version: 6.00 Build 0)  -->
<svg version="1.1" id="Слой_1" xmlns="http://www.w3.org/2000/svg" xmlns:xlink="http://www.w3.org/1999/xlink" x="0px" y="0px"
	 viewBox="0 0 50 50" style="enable-background:new 0 0 50 50;" xml:space="preserve">
<style type="text/css">
	.st0{fill:#010202;}
	.st1{fill:#F18825;}
</style>
<g>
	<path class="st0" d="M50,25C50,11.2,38.8,0,25,0C11.2,0,0,11.2,0,25c0,7.6,3.4,14.4,8.8,19c0.1,0.1,0.1,0.1,0.3,0.2
		c4.3,3.6,9.9,5.8,16,5.8c6,0,11.5-2.2,15.9-5.7c0.3-0.1,0.4-0.3,0.6-0.4C46.7,39.2,50,32.5,50,25L50,25z"/>
	<path class="st1" d="M2.3,25C2.3,12.5,12.5,2.3,25,2.3S47.7,12.5,47.7,25c0,6.1-2.4,11.7-6.4,15.8c-0.6-3-2.6-8.1-8.4-11.4
		c1.3-1.7,2.1-3.8,2.1-6.1c0-5.5-4.5-10-10-10c-5.5,0-10,4.5-10,10c0,2.3,0.8,4.4,2.1,6.1c-5.9,3.3-7.8,8.4-8.4,11.4
		C4.8,36.7,2.3,31.1,2.3,25L2.3,25z"/>
	<path class="st1" d="M17.3,23.3c0-4.2,3.4-7.7,7.7-7.7c4.2,0,7.7,3.4,7.7,7.7c0,4.2-3.4,7.7-7.7,7.7C20.8,30.9,17.3,27.5,17.3,23.3
		L17.3,23.3z"/>
	<path class="st1" d="M10.8,42.7c0.1-1.8,1.1-8.1,8-11.6c1.7,1.3,3.8,2.1,6.1,2.1c2.3,0,4.5-0.8,6.2-2.2c6.8,3.5,7.9,9.6,8.1,11.6
		c-3.9,3.1-8.9,5-14.2,5C19.6,47.7,14.7,45.9,10.8,42.7L10.8,42.7z"/>
</g>
</svg>
