<svg id="Слой_1" data-name="Слой 1" xmlns="http://www.w3.org/2000/svg" viewBox="0 0 30 30"><defs><style>.cls-1{fill:#bdbdbd;}.cls-2{fill:#fff;}</style></defs><title>account-icon</title><circle class="cls-1" cx="15" cy="15" r="15"/><path class="cls-2" d="M1489.22,43.5h-0.7V42.07a3.52,3.52,0,1,0-7,0V43.5h-0.7a1.42,1.42,0,0,0-1.41,1.43v7.14a1.42,1.42,0,0,0,1.41,1.43h8.43a1.43,1.43,0,0,0,1.41-1.43V44.93a1.42,1.42,0,0,0-1.41-1.43h0ZM1485,49.93a1.43,1.43,0,1,1,1.41-1.43,1.42,1.42,0,0,1-1.41,1.43h0Zm2.18-6.43h-4.36V42.07a2.18,2.18,0,1,1,4.36,0V43.5Zm0,0" transform="translate(-1470 -31)"/></svg>