<svg id="Слой_1" data-name="Слой 1" xmlns="http://www.w3.org/2000/svg" viewBox="0 0 29.99 30"><defs><style>.cls-1{fill:#bdbdbd;}</style></defs><title>chat-icon</title><path class="cls-1" d="M1365.59,34.4a15,15,0,0,0-22.2,20.11,5.63,5.63,0,0,1-2.36,2.73,1.4,1.4,0,0,0,.4,2.64,7.13,7.13,0,0,0,1.06.08,9.7,9.7,0,0,0,5.39-1.75,15,15,0,0,0,17.71-23.82h0Zm-1.2,20a13.31,13.31,0,0,1-16.14,2.07,0.84,0.84,0,0,0-.95.06,8.08,8.08,0,0,1-4.7,1.73,8.54,8.54,0,0,0,2.57-3.55,0.85,0.85,0,0,0-.14-0.9,13.3,13.3,0,1,1,19.37.6h0Zm0,0" transform="translate(-1340 -30)"/><path class="cls-1" d="M1361.27,40.05h-12.56a0.85,0.85,0,0,0,0,1.7h12.56a0.85,0.85,0,0,0,0-1.7h0Zm0,0" transform="translate(-1340 -30)"/><path class="cls-1" d="M1361.27,44.15h-12.56a0.85,0.85,0,1,0,0,1.7h12.56a0.85,0.85,0,0,0,0-1.7h0Zm0,0" transform="translate(-1340 -30)"/><path class="cls-1" d="M1361.27,48.25h-12.56a0.85,0.85,0,1,0,0,1.7h12.56a0.85,0.85,0,1,0,0-1.7h0Zm0,0" transform="translate(-1340 -30)"/></svg>