<svg id="Слой_1" data-name="Слой 1" xmlns="http://www.w3.org/2000/svg" viewBox="0 0 30 30"><defs><style>.cls-1{fill:#fff;}</style></defs><title>payment-icon</title><path class="cls-1" d="M1420,32.38a13.12,13.12,0,1,1-13.12,13.12A13.14,13.14,0,0,1,1420,32.38m0-1.88a15,15,0,1,0,15,15,15,15,0,0,0-15-15h0Zm0,3.75a11.25,11.25,0,1,0,11.25,11.25A11.25,11.25,0,0,0,1420,34.25h0Zm4.09,17a4.77,4.77,0,0,1-3.2,1.46v2.12h-1.78V52.76a4.65,4.65,0,0,1-4.32-4.05l2.75-.72a2.39,2.39,0,0,0,2.53,2.32,2,2,0,0,0,1.48-.5,1.68,1.68,0,0,0,.47-1.2,1.32,1.32,0,0,0-.47-1.1,8.53,8.53,0,0,0-2.1-1,12.36,12.36,0,0,1-2.29-1,3.78,3.78,0,0,1-1.34-1.39,4.12,4.12,0,0,1-.51-2.08,4.62,4.62,0,0,1,.92-2.81,4.11,4.11,0,0,1,2.89-1.52V36.13h1.78v1.64a4.3,4.3,0,0,1,3.85,3.37l-2.45,1q-0.72-2.07-2.21-2.07a1.61,1.61,0,0,0-1.21.46,1.53,1.53,0,0,0-.46,1.12,1.25,1.25,0,0,0,.44,1,7.56,7.56,0,0,0,1.88.89,16.67,16.67,0,0,1,2.48,1.09,3.9,3.9,0,0,1,1.44,1.42,4.08,4.08,0,0,1,.54,2.12,4.48,4.48,0,0,1-1.11,3.1h0Zm0,0" transform="translate(-1405 -30.5)"/></svg>