<?xml version="1.0" encoding="utf-8"?>
<svg xmlns="http://www.w3.org/2000/svg" xmlns:xlink="http://www.w3.org/1999/xlink">
	<symbol viewBox="-5 -5 40 40" id="account-icon">
		<title>account-icon</title>
		<circle cx="15" cy="15" r="15"/>
		<path fill="#fff"  d="M19.22 12.5h-.7v-1.43a3.52 3.52 0 1 0-7 0v1.43h-.7a1.42 1.42 0 0 0-1.41 1.43v7.14a1.42 1.42 0 0 0 1.41 1.43h8.43a1.43 1.43 0 0 0 1.41-1.43v-7.14a1.42 1.42 0 0 0-1.41-1.43zM15 18.93a1.43 1.43 0 1 1 1.41-1.43A1.42 1.42 0 0 1 15 18.93zm2.18-6.43h-4.36v-1.43a2.18 2.18 0 1 1 4.36 0v1.43zm0 0"/>
	</symbol>
	<symbol viewBox="-5 -5 39.99 40" id="chat-icon">
		<title>chat-icon</title>
		<path d="M25.59 4.4a15 15 0 0 0-22.2 20.11 5.63 5.63 0 0 1-2.36 2.73 1.4 1.4 0 0 0 .4 2.64 7.13 7.13 0 0 0 1.06.08 9.7 9.7 0 0 0 5.39-1.75A15 15 0 0 0 25.59 4.39zm-1.2 20a13.31 13.31 0 0 1-16.14 2.07.84.84 0 0 0-.95.06 8.08 8.08 0 0 1-4.7 1.73 8.54 8.54 0 0 0 2.57-3.55.85.85 0 0 0-.14-.9 13.3 13.3 0 1 1 19.37.6zm0 0"/>
		<path d="M21.27 10.05H8.71a.85.85 0 0 0 0 1.7h12.56a.85.85 0 0 0 0-1.7zm0 4.1H8.71a.85.85 0 1 0 0 1.7h12.56a.85.85 0 0 0 0-1.7zm0 4.1H8.71a.85.85 0 1 0 0 1.7h12.56a.85.85 0 1 0 0-1.7zm0 0"/>
	</symbol>
	<symbol viewBox="-5 -5 40 40" id="payment-icon">
		<title>payment-icon</title>
		<path d="M15 1.88A13.12 13.12 0 1 1 1.88 15 13.14 13.14 0 0 1 15 1.88M15 0a15 15 0 1 0 15 15A15 15 0 0 0 15 0zm0 3.75A11.25 11.25 0 1 0 26.25 15 11.25 11.25 0 0 0 15 3.75zm4.09 17a4.77 4.77 0 0 1-3.2 1.46v2.12h-1.78v-2.07a4.65 4.65 0 0 1-4.32-4.05l2.75-.72a2.39 2.39 0 0 0 2.53 2.32 2 2 0 0 0 1.48-.5 1.68 1.68 0 0 0 .47-1.2 1.32 1.32 0 0 0-.47-1.1 8.53 8.53 0 0 0-2.1-1 12.36 12.36 0 0 1-2.29-1 3.78 3.78 0 0 1-1.34-1.39 4.12 4.12 0 0 1-.51-2.08 4.62 4.62 0 0 1 .92-2.81 4.11 4.11 0 0 1 2.89-1.52V5.63h1.78v1.64a4.3 4.3 0 0 1 3.85 3.37l-2.45 1q-.72-2.07-2.21-2.07a1.61 1.61 0 0 0-1.21.46 1.53 1.53 0 0 0-.46 1.12 1.25 1.25 0 0 0 .44 1 7.56 7.56 0 0 0 1.88.89 16.67 16.67 0 0 1 2.48 1.09 3.9 3.9 0 0 1 1.44 1.42 4.08 4.08 0 0 1 .54 2.12 4.48 4.48 0 0 1-1.11 3.1zm0 0"/>
</symbol>
</svg>