<svg id="Слой_1" data-name="Слой 1" xmlns="http://www.w3.org/2000/svg" viewBox="0 0 70 41.73"><defs><style>.cls-1{opacity:.25}.cls-2{fill:#424649}</style></defs><title>eye-icon</title><g class="cls-1"><path class="cls-2" d="M633.33 5530c-13.37 0-25.5 7.32-34.45 19.2a2.77 2.77 0 0 0 0 3.31c8.95 11.9 21.08 19.22 34.45 19.22s25.5-7.32 34.45-19.2a2.77 2.77 0 0 0 0-3.31c-8.95-11.9-21.08-19.22-34.45-19.22zm1 35.55a14.72 14.72 0 1 1 13.67-13.73 14.73 14.73 0 0 1-13.73 13.73zm-.44-6.79a7.93 7.93 0 1 1 7.4-7.4 7.92 7.92 0 0 1-7.4 7.4zm0 0" transform="translate(-598.33 -5530)"/></g></svg>