<svg id="Слой_1" xmlns="http://www.w3.org/2000/svg" viewBox="0 0 17.3 40"><style>.st0{fill:#010202}</style><ellipse class="st0" cx="8.6" cy="3.4" rx="3.5" ry="3.4"/><path class="st0" d="M9.8 8.3c-.9-.1-1.8-.1-2.6.1-5.8.6-7.6 7.1-7.1 12 .2 2.1 3.7 2.2 3.4 0-.2-1.8-.1-4.5.9-6.4v7.3c0 5.6 0 11.2-.2 16.8-.1 2.5 3.8 2.5 3.9 0 .2-4.4.2-8.8.2-13.1h.6c0 4.4.1 8.8.2 13.1.1 2.5 4.1 2.5 3.9 0-.2-5.6-.2-11.2-.2-16.8 0-.2 0-.3-.1-.5 0-2.4-.1-4.9-.1-7.3 1.2 1.9 1.3 4.9 1.1 6.8-.2 2.2 3.2 2.1 3.4 0 .7-4.9-1.3-11.5-7.3-12z"/></svg>