<svg id="Слой_1" xmlns="http://www.w3.org/2000/svg" viewBox="0 0 206 246"><style>.st0{fill:#f5f5f5}.st1{fill:#bdbcbc}.st2{fill:#f5f5f5;stroke:#bdbcbc;stroke-width:3;stroke-miterlimit:10}.st3{opacity:.25}.st4{fill:#434649}</style><path class="st0" d="M1.5 244.5V1.5h172.1l30.9 30.9v212.1z"/><path class="st1" d="M173 3l30 30v210H3V3h170m1.2-3H0v246h206V31.8l-.9-.9-30-30-.9-.9z"/><path class="st2" d="M171.5 3v31.5H203"/><g class="st3"><path class="st4" d="M103 172.3c-13.4 0-25.5 7.3-34.5 19.2-.7 1-.7 2.3 0 3.3 9 11.9 21.1 19.2 34.5 19.2 13.4 0 25.5-7.3 34.5-19.2.7-1 .7-2.3 0-3.3-9-11.9-21.1-19.2-34.5-19.2zm1 35.5c-8.9.6-16.2-6.8-15.7-15.7.5-7.3 6.4-13.3 13.7-13.7 8.9-.6 16.2 6.8 15.7 15.7-.5 7.3-6.4 13.3-13.7 13.7zm-.5-6.8c-4.8.3-8.7-3.6-8.4-8.4.2-4 3.5-7.1 7.4-7.4 4.8-.3 8.7 3.6 8.4 8.4-.2 4-3.4 7.2-7.4 7.4zm0 0"/></g></svg>