<svg id="Слой_1" data-name="Слой 1" xmlns="http://www.w3.org/2000/svg" viewBox="0 0 145.54 120.25"><defs><style>.cls-1{fill:#fff;opacity:.35}.cls-2{fill:#d7d7d7}.cls-3{fill:#f3f3f3}.cls-4{fill:#706f6f}.cls-5{fill:#afafaf}.cls-6{fill:#f6f6f6}.cls-7{fill:#dba52c}.cls-8{fill:#ededed}.cls-9{fill:#480734}.cls-10{fill:#b12a5d}.cls-11{fill:#b0b0b0}.cls-12{fill:#f68921}.cls-13{fill:none}.cls-14{fill:#dadada}.cls-15{fill:#1d1d1b}.cls-16{fill:#7f0101}.cls-17{fill:#b2b2b2}.cls-18{fill:#dc1827}.cls-19{fill:#4a2a7b}.cls-20{fill:#c3c02f}.cls-21{fill:#018cbf}.cls-22{fill:#2c373b}.cls-23{fill:#88bfb7}.cls-24{fill:#ccfef8}.cls-25{fill:#f5f5f5}.cls-26{fill:#12667c}.cls-27{fill:#fec93f}.cls-28{fill:#f15922}.cls-29{fill:#f9d5b4}</style></defs><title>service-item-5</title><circle id="Background_2" data-name="Background 2" class="cls-1" cx="72.77" cy="60.13" r="59.81"/><g id="Page_Quality" data-name="Page Quality"><g id="Computer"><path class="cls-2" d="M5911.8 693.33a1.85 1.85 0 0 0-2.06-1.49h-14.54a1.85 1.85 0 0 0-2.06 1.49l-3.52 13a1.85 1.85 0 0 0 2.06 1.49h22.45a1.85 1.85 0 0 0 2.06-1.49z" transform="translate(-5842.5 -600.43)"/><path class="cls-3" d="M11 21.16h100.61a2.06 2.06 0 0 1 2.06 2.06v68.14a2.06 2.06 0 0 1-2.06 2.06H11a2.06 2.06 0 0 1-2.1-2.06V23.23a2.07 2.07 0 0 1 2.1-2.07z"/><path class="cls-4" d="M8.9 25.16h104.78v58.15H8.9z"/><rect class="cls-5" x="37.24" y="102.06" width="46.56" height="6.21" rx="2.06" ry="2.06"/><path class="cls-6" d="M112.33 29.29H8.89v48.85h104.79V29.29h-1.35z"/><path class="cls-7" d="M8.9 29.29h104.78v4.24H8.9z"/><circle class="cls-8" cx="109.93" cy="31.44" r=".91"/><circle class="cls-8" cx="106.42" cy="31.44" r=".91"/><circle class="cls-8" cx="102.91" cy="31.44" r=".91"/><path class="cls-8" d="M5870.7 631.88a.91.91 0 0 1-.91.91h-12.05a.91.91 0 0 1-.91-.91.91.91 0 0 1 .91-.91h12.05a.91.91 0 0 1 .91.91z" transform="translate(-5842.5 -600.43)"/><path class="cls-9" d="M15.11 36.72h93.91v12.65H15.11z"/><path class="cls-10" d="M91.48 51.3h17.54v11.22H91.48zm0 13.18h17.54V75.7H91.48zM68.81 51.3h17.54v11.22H68.81zm0 13.18h17.54V75.7H68.81zM46.14 51.3h17.54v11.22H46.14zm0 13.18h17.54V75.7H46.14z"/><path class="cls-11" d="M15.11 51.3H41.9v4.21H15.11zm0 5.58H41.9v4.21H15.11zm0 5.58H41.9v4.21H15.11zm0 5.58H41.9v4.21H15.11z"/></g><g id="List"><path class="cls-12" d="M5984.15 713.29a2.85 2.85 0 0 1-2.7 3h-51.22a2.85 2.85 0 0 1-2.7-3v-71.6a2.85 2.85 0 0 1 2.7-3h51.22a2.85 2.85 0 0 1 2.7 3v71.6z" transform="translate(-5842.5 -600.43)"/><path class="cls-13" d="M128.28 46.39H97.37v-6.65h-.77v8.57h32.6v-8.57h-.92v6.65z"/><path class="cls-13" d="M5955 633.07c-3.71-.16-4.84 2.22-5.17 3.49h9.81a4.68 4.68 0 0 0-4.64-3.49z" transform="translate(-5842.5 -600.43)"/><path class="cls-6" d="M91.2 44.02v63.6h44.77V55.76l-17.52-11.74H91.2z"/><path class="cls-14" d="M5978.47 656.19L5961 644.46v11.74a28.24 28.24 0 0 1 8.06-1.13 37.54 37.54 0 0 1 9.41 1.12z" transform="translate(-5842.5 -600.43)"/><path class="cls-15" d="M5970.78 639.16v-2.6h-10.06A5.8 5.8 0 0 0 5955 632c-4.69-.2-6 3.11-6.34 4.59h-8.79v2.6h-1.79v10.6h34.63v-10.6h-1.94zm-5.19 1.06a1.46 1.46 0 1 1-1.46 1.46 1.46 1.46 0 0 1 1.46-1.46zm-10.59-7.15a4.68 4.68 0 0 1 4.63 3.49h-9.81c.3-1.27 1.43-3.65 5.18-3.49zm-10.45 7.15a1.46 1.46 0 1 1-1.46 1.46 1.46 1.46 0 0 1 1.42-1.46zm27.19 8.52h-32.6v-8.57h.77v6.65h30.9v-6.65h.93v8.57z" transform="translate(-5842.5 -600.43)"/><path class="cls-16" d="M102.83 49.32h15.62v2.05h-15.62zm0 2.83h15.62v.87h-15.62zm0 1.44h15.62v.87h-15.62z"/><path class="cls-17" d="M105.98 85.02h25.06v3.29h-25.06zm0 4.11h25.06v1.1h-25.06zm0 6.78h25.06v3.29h-25.06zm0 4.1h25.06v1.1h-25.06z"/><circle class="cls-14" cx="101.5" cy="87.56" r="3.35"/><circle class="cls-14" cx="101.5" cy="98.51" r="3.35"/><path class="cls-18" d="M5950.77 681.94a1.49 1.49 0 0 0-1.86 0l-5 4.12-2.07-2a1.15 1.15 0 1 0-1.6 1.65l2.88 2.79a1.19 1.19 0 0 0 1.47.17l.11-.07 5.74-4.77a1.53 1.53 0 0 0 .33-1.89zm0 11.12a1.48 1.48 0 0 0-1.86 0l-5 4.12-2.07-2a1.15 1.15 0 1 0-1.6 1.66l2.88 2.79a1.19 1.19 0 0 0 1.47.17l.11-.07 5.74-4.77a1.53 1.53 0 0 0 .33-1.9z" transform="translate(-5842.5 -600.43)"/><path class="cls-17" d="M118.46 60.2h15.15v7.86h-15.15zm0 8.96h15.15v1.62h-15.15zm0 2.24h15.15v1.62h-15.15zm0 2.34h15.15v1.62h-15.15z"/><g id="Pie_Chart" data-name="Pie Chart"><path class="cls-19" d="M5947.45 657.35v10.18h10.18a10.18 10.18 0 0 0-10.18-10.18z" transform="translate(-5842.5 -600.43)"/><path class="cls-16" d="M5946.69 658.31a10.18 10.18 0 1 0 7.53 17l-7.53-6.84v-10.16z" transform="translate(-5842.5 -600.43)"/><path class="cls-20" d="M5947.52 668.14l7.53 6.84a10.14 10.14 0 0 0 2.64-6.84h-10.18z" transform="translate(-5842.5 -600.43)"/></g><circle class="cls-21" cx="131.04" cy="105.75" r="14.5"/><path class="cls-6" d="M5972.06 716.28a2.31 2.31 0 0 1-1.43-.49l-7.82-6.12a2.32 2.32 0 0 1 2.86-3.65l6 4.73 9.68-11.76a2.32 2.32 0 0 1 3.58 2.94l-11.12 13.51a2.31 2.31 0 0 1-1.75.84z" transform="translate(-5842.5 -600.43)"/></g><g id="Glasses"><path class="cls-22" d="M5858.5 716.41a1.36 1.36 0 0 1-1.25-.83 3.57 3.57 0 0 1 .22-3.45 3.91 3.91 0 0 1 3.25-1.67c6.6 0 14.76.07 14.84.07a1.36 1.36 0 0 1 0 2.72c-.08 0-8.24-.07-14.82-.07a1.22 1.22 0 0 0-1 .45.94.94 0 0 0 0 .9 1.36 1.36 0 0 1-1.24 1.88z" transform="translate(-5842.5 -600.43)"/><path class="cls-23" d="M5886.33 702.83a4.57 4.57 0 0 0-3.09-1.2h-15.39a4.57 4.57 0 0 0-4.57 4.57v2.8a4.57 4.57 0 0 0 4.57 4.57h15.39a4.57 4.57 0 0 0 4.57-4.57v-2.86a4.56 4.56 0 0 0-1.48-3.31z" transform="translate(-5842.5 -600.43)"/><path class="cls-24" d="M5871.36 710.29a1.77 1.77 0 0 0 2.51.11l8.35-7.63a1.76 1.76 0 0 0 .57-1.15h-4.57l-6.74 6.16a1.77 1.77 0 0 0-.12 2.51zm8.48-3.03a1.1 1.1 0 0 0 1.56.07l4.93-4.51a4.56 4.56 0 0 0-2.08-1.09l-4.34 4a1.1 1.1 0 0 0-.07 1.53z" transform="translate(-5842.5 -600.43)"/><path class="cls-22" d="M5925.39 716.41a1.36 1.36 0 0 0 1.25-.83 3.57 3.57 0 0 0-.22-3.45 3.91 3.91 0 0 0-3.25-1.67c-6.6 0-14.76.07-14.85.07a1.36 1.36 0 0 0 0 2.72c.08 0 8.24-.07 14.82-.07a1.23 1.23 0 0 1 1 .45.94.94 0 0 1 0 .9 1.36 1.36 0 0 0 1.25 1.88zm-42.16-1.22h-.08l-15.39-.19a6.05 6.05 0 0 1-6-6.12v-2.86a6.07 6.07 0 0 1 6-6h.08l15.39.19a6.05 6.05 0 0 1 6 6.12v2.86a6.07 6.07 0 0 1-6 6zM5867.87 703a3.11 3.11 0 0 0-3.09 3.06v2.86a3.1 3.1 0 0 0 3.06 3.13l15.43.19a3.11 3.11 0 0 0 3.09-3.06v-2.86a3.1 3.1 0 0 0-3.06-3.13z" transform="translate(-5842.5 -600.43)"/><path class="cls-23" d="M5919.32 702.83a4.57 4.57 0 0 0-3.09-1.2h-15.39a4.57 4.57 0 0 0-4.57 4.57v2.8a4.57 4.57 0 0 0 4.57 4.57h15.39a4.57 4.57 0 0 0 4.57-4.57v-2.86a4.56 4.56 0 0 0-1.48-3.31z" transform="translate(-5842.5 -600.43)"/><path class="cls-24" d="M5912.84 707.26a1.1 1.1 0 0 0 1.56.07l4.93-4.51a4.56 4.56 0 0 0-2.08-1.09l-4.34 4a1.1 1.1 0 0 0-.07 1.53z" transform="translate(-5842.5 -600.43)"/><path class="cls-22" d="M5916.22 715.19h-.08l-15.39-.19a6.05 6.05 0 0 1-6-6.12v-2.86a6.07 6.07 0 0 1 6-6h.08l15.39.19a6.05 6.05 0 0 1 6 6.12v2.86a6.07 6.07 0 0 1-6 6zM5900.86 703a3.11 3.11 0 0 0-3.09 3.06v2.86a3.1 3.1 0 0 0 3.06 3.13l15.43.19a3.11 3.11 0 0 0 3.09-3.06v-2.86a3.1 3.1 0 0 0-3.06-3.13z" transform="translate(-5842.5 -600.43)"/><path class="cls-22" d="M5896.07 709.17a1.39 1.39 0 0 1-.57-.12 10 10 0 0 0-3.56-.73 6.25 6.25 0 0 0-3.06.59 1.42 1.42 0 0 1-2-.43 1.61 1.61 0 0 1 .41-2.15 8.39 8.39 0 0 1 4.69-1.11 12.77 12.77 0 0 1 4.71 1 1.59 1.59 0 0 1 .78 2 1.47 1.47 0 0 1-1.4.95zm.66 3.57h-9.55a1.23 1.23 0 0 1 0-2.45h9.55a1.23 1.23 0 0 1 0 2.45z" transform="translate(-5842.5 -600.43)"/><path class="cls-25" d="M5918 709.17c-.34 0-.15-3.83-.86-4.55s-4.58-.52-4.55-.87 3.65-.55 4.38-1.29 1-4.35 1.31-4.37.3 3.71 1 4.4 4.42.64 4.4 1-3.72.5-4.47 1.25-.95 4.41-1.21 4.43z" transform="translate(-5842.5 -600.43)"/></g><g id="Badge"><path class="cls-26" d="M27.82 111.63l-11.43-10.08-11.43 10.08V80.24h22.86v31.39z"/><path class="cls-27" d="M33.11 77.88l-2.24 1.62 1.83 2.07-2.54 1.07 1.31 2.43-2.72.48.75 2.66-2.76-.14.14 2.76-2.66-.75-.48 2.72-2.42-1.32-1.08 2.55-2.07-1.83-1.61 2.24-1.62-2.24-2.07 1.83-1.07-2.55-2.43 1.32-.48-2.72-2.66.75.14-2.76-2.76.14.75-2.66-2.72-.48 1.31-2.43-2.54-1.07 1.83-2.07L0 77.88l2.24-1.61L.41 74.2l2.55-1.07-1.32-2.43 2.72-.48-.75-2.66 2.76.14-.14-2.76 2.66.74.48-2.72 2.43 1.32 1.07-2.54 2.07 1.83 1.62-2.24 1.61 2.24 2.07-1.83 1.08 2.54 2.42-1.31.48 2.71 2.66-.74-.14 2.76 2.76-.14-.75 2.66 2.72.48-1.31 2.43 2.54 1.07-1.83 2.07 2.24 1.61z"/><circle class="cls-28" cx="16.56" cy="77.88" r="11.94"/><path class="cls-25" d="M5869.13 676.28c-.42 0-.18-4.63-1-5.5s-5.53-.63-5.5-1 4.41-.67 5.29-1.55 1.21-5.26 1.58-5.29.36 4.48 1.2 5.32 5.34.78 5.32 1.17-4.5.6-5.4 1.5-1.12 5.31-1.49 5.35z" transform="translate(-5842.5 -600.43)"/></g><g id="Like"><path class="cls-29" d="M5934 614.23a1.9 1.9 0 0 1-1.9-1.9v-.48a1.9 1.9 0 0 1 1.9-1.9h8l-.38-.51c-.83-1.09-2.67-4.08-2.54-6.59 0-.83 1.44-4.78 4.83-.37 7.81 10.16 11.5 9.09 11.5 9.09a2.64 2.64 0 0 1 1.67 2.16v10.83c0 .9-.51 1.17-1.67 1.63l-5.57 1.33a1.66 1.66 0 0 1-.54.09h-13.86a1.9 1.9 0 0 1-1.9-1.9v-.48a1.9 1.9 0 0 1 1.9-1.9h2.52v-.18H5934a1.9 1.9 0 0 1-1.9-1.9v-.48a1.9 1.9 0 0 1 1.9-1.9h3.91v-.18H5934a1.9 1.9 0 0 1-1.9-1.9v-.48a1.9 1.9 0 0 1 1.9-1.9h3.91v-.18H5934z" transform="translate(-5842.5 -600.43)"/><path class="cls-6" d="M112.91 9.59h3.48v17.57h-3.48z"/><path class="cls-15" d="M116.39 7.39h20.73v21.9h-20.73z"/></g></g></svg>