<svg id="Слой_1" xmlns="http://www.w3.org/2000/svg" xmlns:xlink="http://www.w3.org/1999/xlink" viewBox="0 0 150 150"><style>.st0{fill:#fafafa}.st1{fill:#2a455e}.st2{fill:#21374e}.st3{fill:#51677f}.st4{fill:#cee2f2}.st5{fill:#fff}.st6{fill:#b8d1e6}.st7{fill:#ffd55e}.st8{fill:#fab638}.st9{fill:#ed6d43}.st10{fill:#f18825}.st11{clip-path:url(#SVGID_2_)}</style><circle class="st0" cx="75" cy="75" r="75"/><path class="st1" d="M118.2 98.5c0 .7-.3 1.5-.8 2-.6.6-1.3.8-2 .8H34.6c-.7 0-1.5-.3-2-.8-.6-.6-.8-1.3-.8-2V46.9c0-.7.3-1.5.8-2 .6-.6 1.3-.8 2-.8h80.8c.7 0 1.5.3 2 .8.6.6.8 1.3.8 2v51.6z"/><circle class="st2" cx="75" cy="46.3" r="1"/><circle class="st3" cx="75" cy="46.3" r=".4"/><path class="st4" d="M128.1 103.1c-1.5 1.8-3.8 2.9-6.4 2.9H28.3c-2.5 0-4.8-1.1-6.4-2.9h106.2z"/><path class="st5" d="M128.1 103.1H21.9v-1.2c0-.1 0-.2.1-.3.1-.1.2-.1.3-.1h105.2c.1 0 .2 0 .3.1.1.1.1.2.1.3v1.2z"/><path class="st6" d="M84.9 101.7c0 .1-.1.3-.2.4-.1.1-.3.2-.4.2H65.7c-.1 0-.3-.1-.4-.2-.1-.1-.2-.3-.2-.4v-.3h19.7v.3z"/><path class="st4" d="M36.2 48.4h77.5v48.4H36.2z"/><path class="st7" d="M38.4 50.6h73.1v44H38.4z"/><path class="st8" d="M111.5 94.7H38.4v-44h73.1v44zm-72.9-.2h72.8V50.8H38.6v43.7z"/><path class="st8" d="M38.5 90.5h72.9v.2H38.5zm0-4h72.9v.2H38.5zm0-4h72.9v.2H38.5zm0-3.9h72.9v.2H38.5zm0-4h72.9v.2H38.5zm0-4h72.9v.2H38.5zm0-4h72.9v.2H38.5zm0-4h72.9v.2H38.5zm0-4h72.9v.2H38.5zm0-4h72.9v.2H38.5z"/><path class="st8" d="M106.8 50.7h.2v43.9h-.2zm-4.5 0h.2v43.9h-.2zm-4.6 0h.2v43.9h-.2zm-4.6 0h.2v43.9h-.2zm-4.5 0h.2v43.9h-.2zm-4.6 0h.2v43.9H84zm-4.5 0h.2v43.9h-.2zm-4.6 0h.2v43.9h-.2zm-4.5 0h.2v43.9h-.2zm-4.6 0h.2v43.9h-.2zm-4.6 0h.2v43.9h-.2zm-4.5 0h.2v43.9h-.2zm-4.6 0h.2v43.9h-.2zm-4.5 0h.2v43.9h-.2zm-4.6 0h.2v43.9H43z"/><path class="st5" d="M111.5 66.3l-9.5-4.2-9.1 15.3-9-3.2-9 11.8-8.9-7.8-9.1 4L38.4 70v.9l18.4 12.2 9.1-4 9.2 8.1 9.1-12.1 9.1 3.3 9.1-15.2 9.1 4z"/><circle class="st9" cx="75" cy="86.6" r="1.9"/><circle class="st1" cx="102.2" cy="62.7" r="1.9"/><path class="st10" d="M6.7 106c11.8 26 37.9 44 68.3 44s56.5-18.1 68.3-44H6.7z"/><path transform="rotate(-45.001 120.761 84.815)" class="st5" d="M118.2 79.5h5.1v10.6h-5.1z"/><path transform="rotate(-45.001 134.639 98.688)" class="st2" d="M130.4 87.1h8.5v23.2h-8.5z"/><path transform="rotate(-44.992 143.781 107.843)" class="st3" d="M139 106.5h9.7v2.7H139z"/><path transform="rotate(-45.004 125.465 89.517)" class="st3" d="M120.6 88.2h9.7v2.7h-9.7z"/><path class="st2" d="M87.4 51.5c-8.6 8.6-8.6 22.6 0 31.3 8.6 8.6 22.6 8.6 31.3 0 8.6-8.6 8.6-22.6 0-31.3-8.6-8.6-22.6-8.6-31.3 0z"/><defs><path id="SVGID_1_" d="M116.1 80.2c-7.2 7.2-19 7.2-26.2 0-7.2-7.2-7.2-19 0-26.2 7.2-7.2 19-7.2 26.2 0 7.3 7.2 7.3 19 0 26.2z"/></defs><clipPath id="SVGID_2_"><use xlink:href="#SVGID_1_" overflow="visible"/></clipPath><g class="st11"><path class="st1" d="M126.9 111.3c0 1.1-.4 2.2-1.2 3-.8.8-1.9 1.2-3 1.2H2.5c-1.1 0-2.2-.4-3-1.2-.8-.8-1.2-1.9-1.2-3V34.6c0-1.1.4-2.2 1.2-3 .8-.8 1.9-1.2 3-1.2h120.1c1.1 0 2.2.4 3 1.2.8.8 1.2 1.9 1.2 3v76.7z"/><path class="st4" d="M4.9 36.9h115.2v72H4.9z"/><path class="st7" d="M8.2 40.2h108.7v65.5H8.2z"/><path class="st8" d="M116.9 105.6H8.2V40.2h108.7v65.4zm-108.4-.2h108.2v-65H8.5v65z"/><path class="st8" d="M8.3 99.5h108.5v.2H8.3zm0-6h108.5v.2H8.3zm0-5.9h108.5v.2H8.3zm0-5.9h108.5v.2H8.3zm0-6h108.5v.2H8.3zm0-5.9h108.5v.2H8.3zm0-5.9h108.5v.2H8.3zm0-6h108.5v.2H8.3zm0-5.9h108.5v.2H8.3zm0-5.9h108.5v.2H8.3z"/><path class="st8" d="M109.9 40.3h.2v65.2h-.2zm-6.8 0h.2v65.2h-.2zm-6.8 0h.2v65.2h-.2zm-6.7 0h.2v65.2h-.2zm-6.8 0h.2v65.2h-.2zm-6.8 0h.2v65.2H76zm-6.8 0h.2v65.2h-.2zm-6.8 0h.2v65.2h-.2zm-6.7 0h.2v65.2h-.2zm-6.8 0h.2v65.2h-.2zm-6.8 0h.2v65.2h-.2zm-6.8 0h.2v65.2h-.2zm-6.8 0h.2v65.2h-.2zm-6.7 0h.2v65.2h-.2zm-6.8 0h.2v65.2H15z"/><path class="st5" d="M116.9 63.5l-14.1-6.2-13.5 22.6-13.5-4.8-13.3 17.7-13.3-11.7-13.5 6L8.2 68.9v1.5l27.3 18L49 82.5l13.7 12.1 13.6-18 13.5 4.8 13.4-22.6 13.7 6z"/><circle class="st9" cx="62.6" cy="93.7" r="2.9"/><circle class="st1" cx="103" cy="58" r="2.9"/></g></svg>