<svg id="Слой_1" data-name="Слой 1" xmlns="http://www.w3.org/2000/svg" viewBox="0 0 133.75 120"><defs><style>.cls-1{fill:#fff;opacity:.35}.cls-2{fill:#0288d1}.cls-3{fill:#4a2a7b}.cls-4{fill:#ffc20f}.cls-5{fill:#7f0101}.cls-6{fill:#ededed}.cls-7{fill:#1a002d}.cls-8{fill:#c3c02f}.cls-9{fill:#c6c6c6}.cls-10{fill:#ffc010}.cls-11{fill:none}.cls-12{fill:#f6f6f6}.cls-13{fill:#dadada}.cls-14{fill:#1d1d1b}.cls-15{fill:#b2b2b2}.cls-16{fill:#dc1827}.cls-17{fill:#f2f2f2}</style></defs><title>service-item-2</title><circle id="Background_2" data-name="Background 2" class="cls-1" cx="66.87" cy="60" r="60"/><g id="SEO_Report" data-name="SEO Report"><g id="Gear"><path class="cls-2" d="M5906.71 371.24a22.56 22.56 0 0 1-4.34-1.53l-.22-5.13a17.77 17.77 0 0 1-2.19-1.67l-5 1.13a22.45 22.45 0 0 1-2.61-3.79l2.84-4.28a18.13 18.13 0 0 1-.79-2.64l-4.72-2a22.19 22.19 0 0 1 .11-4.6l4.82-1.8c.12-.44.25-.88.4-1.32s.33-.86.51-1.28l-2.63-4.42a22.11 22.11 0 0 1 2.79-3.65l4.95 1.38a18.16 18.16 0 0 1 2.27-1.56l.47-5.12a22.5 22.5 0 0 1 4.41-1.32l3.2 4a17.81 17.81 0 0 1 2.76.07l3.39-3.86a22.56 22.56 0 0 1 4.34 1.53l.22 5.13a17.73 17.73 0 0 1 2.19 1.67l5-1.13a22.43 22.43 0 0 1 2.61 3.79l-2.84 4.28a18.17 18.17 0 0 1 .79 2.64l4.72 2a22.09 22.09 0 0 1-.11 4.6l-4.82 1.8c-.12.44-.25.88-.4 1.32s-.33.86-.51 1.28l2.63 4.42a22.2 22.2 0 0 1-2.79 3.66l-4.95-1.38a18 18 0 0 1-2.27 1.56l-.47 5.12a22.38 22.38 0 0 1-4.41 1.32l-3.2-4a17.83 17.83 0 0 1-2.76-.07z" transform="translate(-5856.25 -320)"/><circle class="cls-3" cx="5911.5" cy="349.65" r="7.6" transform="rotate(-67.04 2741.752 4610.253)"/><g id="Gear-2" data-name="Gear"><path class="cls-4" d="M5869.86 380.7a17.39 17.39 0 0 1-3.25-1.44l.14-4a13.64 13.64 0 0 1-1.58-1.42l-3.92.57a17.19 17.19 0 0 1-1.78-3.07l2.44-3.12a13.91 13.91 0 0 1-.45-2.08l-3.5-1.84a17.05 17.05 0 0 1 .37-3.53l3.81-1.09c.12-.33.24-.66.39-1s.3-.64.47-1l-1.75-3.55a17 17 0 0 1 2.37-2.64l3.72 1.36a13.91 13.91 0 0 1 1.84-1.06l.67-3.9a17.35 17.35 0 0 1 3.47-.75l2.21 3.28a13.75 13.75 0 0 1 2.11.22l2.84-2.76a17.42 17.42 0 0 1 3.25 1.44l-.14 4a13.58 13.58 0 0 1 1.58 1.42l3.92-.57a17.27 17.27 0 0 1 1.78 3.07l-2.44 3.12a14 14 0 0 1 .45 2.08l3.5 1.84a17.12 17.12 0 0 1-.36 3.53l-3.82 1.19c-.12.33-.24.66-.39 1s-.3.64-.47 1l1.75 3.55a17.13 17.13 0 0 1-2.37 2.64l-3.72-1.36a13.81 13.81 0 0 1-1.84 1.06l-.67 3.9a17.16 17.16 0 0 1-3.47.75l-2.21-3.28a13.61 13.61 0 0 1-2.11-.22z" transform="translate(-5856.25 -320)"/><circle class="cls-5" cx="5875.17" cy="364.34" r="7.02" transform="rotate(-66.11 2700.825 4704.007)"/></g></g><g id="Graphic_Chart" data-name="Graphic Chart"><path class="cls-6" d="M88.13 46.48v56.75H8.62V58.54l17.81-12.06h61.7z"/><path class="cls-7" d="M16.77 99.46h67.71v.85H16.77z"/><path class="cls-8" d="M66.06 59.65h5.05v38.92h-5.05zm-6.34 5.75h5.05v33.17h-5.05zm-6.13 7.59h5.05v25.58h-5.05zm-6.14 3.89h5.05v21.69h-5.05zm-6.14 4.08h5.05v17.61h-5.05zm-6.13-7.31h5.05v24.92h-5.05zm-6.14-6.45h5.05v31.37h-5.05zm-6.14-5.51h5.05v36.87H22.9zm-6.13-4.65h5.05v41.53h-5.05zM72.8 72.99h5.05v25.58H72.8zm6.63 6.45h5.05v19.12h-5.05z"/><path class="cls-7" d="M28.27 63l-2.74 1.89 18.8 18.6L65.88 62.6l1.07 1.37L83.27 84.7l-1.23.97-16.26-20.56-21.47 20.76-20.26-20.18-3.28 2.19-.66-7.78 8.16 2.9z"/><path class="cls-9" d="M5864.88 378.54l17.8-12.06v12.06a17 17 0 0 0-8.19-2 21.68 21.68 0 0 0-9.61 2z" transform="translate(-5856.25 -320)"/></g><g id="List"><path class="cls-10" d="M5985 427.63a3.67 3.67 0 0 1-3.47 3.84h-66a3.67 3.67 0 0 1-3.47-3.84v-92.25a3.67 3.67 0 0 1 3.47-3.84h66a3.67 3.67 0 0 1 3.47 3.84v92.26z" transform="translate(-5856.25 -320)"/><path class="cls-11" d="M111.5 21.98H71.69v-8.56h-1v11.04h42V13.42h-1.19v8.56z"/><path class="cls-11" d="M5947.37 324.27c-4.77-.21-6.23 2.86-6.67 4.5h12.64a6 6 0 0 0-5.97-4.5z" transform="translate(-5856.25 -320)"/><path class="cls-12" d="M63.74 18.94v81.94h57.67V34.06L98.85 18.94H63.74z"/><path class="cls-13" d="M5977.66 354.06l-22.56-15.12v15.12a36.39 36.39 0 0 1 10.38-1.45 48.36 48.36 0 0 1 12.18 1.45z" transform="translate(-5856.25 -320)"/><path class="cls-14" d="M5967.75 332.11v-3.34h-13a7.47 7.47 0 0 0-7.36-5.91c-6-.26-7.72 4-8.17 5.91h-11.33v3.34h-2.3v13.66h44.62v-13.66h-2.5zm-6.68 1.37a1.88 1.88 0 1 1-1.88 1.88 1.88 1.88 0 0 1 1.88-1.88zm-13.7-9.21a6 6 0 0 1 6 4.5h-12.64c.41-1.65 1.87-4.71 6.64-4.5zm-13.47 9.21a1.88 1.88 0 1 1-1.88 1.88 1.88 1.88 0 0 1 1.89-1.88zm35 11h-42v-11h1V342h39.82v-8.57h1.19v11z" transform="translate(-5856.25 -320)"/><path class="cls-5" d="M78.72 25.77h20.13v2.64H78.72zm0 3.64h20.13v1.12H78.72zm0 1.85h20.13v1.12H78.72z"/><path class="cls-15" d="M82.77 71.77h32.29V76H82.77zm0 5.29h32.29v1.41H82.77zm0 8.73h32.29v4.23H82.77zm0 5.29h32.29v1.41H82.77z"/><circle class="cls-13" cx="77" cy="75.03" r="4.32"/><circle class="cls-13" cx="77" cy="89.14" r="4.32"/><path class="cls-16" d="M5942 387.23a1.91 1.91 0 0 0-2.4 0l-6.4 5.31-2.67-2.59a1.49 1.49 0 1 0-2.06 2.13l3.71 3.59a1.54 1.54 0 0 0 1.89.22l.14-.1 7.4-6.14a2 2 0 0 0 .39-2.42zm0 14.33a1.91 1.91 0 0 0-2.4 0l-6.4 5.31-2.67-2.59a1.49 1.49 0 1 0-2.06 2.13l3.71 3.59a1.54 1.54 0 0 0 1.89.22l.14-.1 7.4-6.14a2 2 0 0 0 .39-2.42z" transform="translate(-5856.25 -320)"/><path class="cls-15" d="M98.85 39.77h19.53V49.9H98.85zm0 11.56h19.53v2.09H98.85zm0 2.88h19.53v2.09H98.85zm0 3.02h19.53v2.09H98.85z"/><g id="Pie_Chart" data-name="Pie Chart"><path class="cls-3" d="M5937.7 355.54v13.11h13.11a13.11 13.11 0 0 0-13.11-13.11z" transform="translate(-5856.25 -320)"/><path class="cls-5" d="M5936.72 356.79a13.11 13.11 0 1 0 9.71 21.93l-9.71-8.82v-13.11z" transform="translate(-5856.25 -320)"/><path class="cls-8" d="M5937.79 369.46l9.71 8.82a13.06 13.06 0 0 0 3.41-8.82h-13.11z" transform="translate(-5856.25 -320)"/></g><circle class="cls-3" cx="115.06" cy="98.47" r="18.69"/><path class="cls-12" d="M5969.41 431.48a3 3 0 0 1-1.84-.64L5957.5 423a3 3 0 1 1 3.68-4.7l7.78 6.09 12.47-15.15A3 3 0 0 1 5986 413l-14.32 17.4a3 3 0 0 1-2.27 1.08z" transform="translate(-5856.25 -320)"/></g><g id="Search_Bar" data-name="Search Bar"><path class="cls-12" d="M5860.38 418.53a4.13 4.13 0 0 0-4.13 4.13v6.19a4.13 4.13 0 0 0 4.13 4.13h68.91v-14.45h-68.91z" transform="translate(-5856.25 -320)"/><path d="M5863.56 427.09a1.58 1.58 0 0 0 .73-.13.44.44 0 0 0 .24-.41.55.55 0 0 0-.23-.47 3.7 3.7 0 0 0-.77-.39l-.5-.21a1.73 1.73 0 0 1-.41-.25 1.11 1.11 0 0 1-.28-.35 1.25 1.25 0 0 1 .34-1.45 1.88 1.88 0 0 1 1.2-.35h.38l.35.05.29.06.19.06-.09.75a2 2 0 0 0-.41-.14 2.63 2.63 0 0 0-.66-.07 1.23 1.23 0 0 0-.59.13.44.44 0 0 0-.25.42.57.57 0 0 0 .06.26.59.59 0 0 0 .17.2 1.42 1.42 0 0 0 .29.17l.41.16.57.24a1.79 1.79 0 0 1 .43.27 1 1 0 0 1 .27.38 1.36 1.36 0 0 1 .09.54 1.07 1.07 0 0 1-.46.94 2.3 2.3 0 0 1-1.32.32 3.44 3.44 0 0 1-.93-.1l-.46-.15.15-.69.44.16a2.54 2.54 0 0 0 .76.05zm2.56-1.66a2.86 2.86 0 0 1 .17-1 2.17 2.17 0 0 1 .46-.74 1.86 1.86 0 0 1 .66-.44 2.06 2.06 0 0 1 .76-.15 1.73 1.73 0 0 1 1.39.57 2.6 2.6 0 0 1 .48 1.72v.13a1.25 1.25 0 0 1 0 .15H5867a1.64 1.64 0 0 0 .41 1.06 1.49 1.49 0 0 0 1.11.36 2.94 2.94 0 0 0 .71-.07 2.55 2.55 0 0 0 .44-.14l.11.67a2.39 2.39 0 0 1-.51.16 3.66 3.66 0 0 1-.83.09 2.65 2.65 0 0 1-1-.18 1.89 1.89 0 0 1-.7-.49 2 2 0 0 1-.41-.74 3.11 3.11 0 0 1-.21-.96zm3.08-.44a1.35 1.35 0 0 0-.27-.89.94.94 0 0 0-.77-.35 1.06 1.06 0 0 0-.49.11 1.15 1.15 0 0 0-.36.28 1.29 1.29 0 0 0-.23.4 2 2 0 0 0-.11.46h2.23zm3.44-1.92a2.33 2.33 0 0 1 .82.13 1.32 1.32 0 0 1 .54.35 1.34 1.34 0 0 1 .29.54 2.64 2.64 0 0 1 .09.7v2.81h-.29l-.42.06h-1.04a3 3 0 0 1-.7-.08 1.57 1.57 0 0 1-.55-.25 1.13 1.13 0 0 1-.38-.33 1.56 1.56 0 0 1-.13-.66 1.28 1.28 0 0 1 .15-.64 1.21 1.21 0 0 1 .41-.43 1.9 1.9 0 0 1 .6-.24 3.29 3.29 0 0 1 .73-.08h.81v-.22a1.8 1.8 0 0 0 0-.39.9.9 0 0 0-.16-.35.79.79 0 0 0-.31-.24 1.2 1.2 0 0 0-.51-.09 3.79 3.79 0 0 0-.69.06 2.43 2.43 0 0 0-.44.12l-.09-.66a2.47 2.47 0 0 1 .52-.13 4.47 4.47 0 0 1 .75.02zm.07 4h.5a2.17 2.17 0 0 0 .37 0v-1.34a1 1 0 0 0-.28-.07 3.12 3.12 0 0 0-.47 0h-.38a1.2 1.2 0 0 0-.37.11.8.8 0 0 0-.28.22.59.59 0 0 0-.11.38.64.64 0 0 0 .28.6 1.44 1.44 0 0 0 .74.12zm4.65-3.98h.9l-.14.7-.31-.08a2.77 2.77 0 0 0-.57 0 2.11 2.11 0 0 0-.44 0l-.29.06v3.77h-.8v-4.3a5.51 5.51 0 0 1 .71-.19 4.56 4.56 0 0 1 .94.04zm3.64 4.68a2.45 2.45 0 0 1-1-.17 1.92 1.92 0 0 1-.69-.48 2 2 0 0 1-.42-.74 3.06 3.06 0 0 1-.14-.95 2.86 2.86 0 0 1 .15-.95 2.24 2.24 0 0 1 .43-.75 1.91 1.91 0 0 1 .68-.49 2.19 2.19 0 0 1 .89-.18 3.57 3.57 0 0 1 .6.05 2.8 2.8 0 0 1 .58.16l-.18.68a2 2 0 0 0-.42-.14 2.39 2.39 0 0 0-.5-.05 1.28 1.28 0 0 0-1 .42 1.86 1.86 0 0 0-.36 1.23 2.53 2.53 0 0 0 .08.66 1.37 1.37 0 0 0 .26.52 1.16 1.16 0 0 0 .45.33 1.73 1.73 0 0 0 .67.12 2.56 2.56 0 0 0 .58-.06 2.12 2.12 0 0 0 .41-.13l.11.67-.2.08-.29.07-.35.05zm2-.1v-6.56l.8-.14v2.3a2.73 2.73 0 0 1 .48-.13 2.77 2.77 0 0 1 .5 0 2.27 2.27 0 0 1 .89.15 1.39 1.39 0 0 1 .57.42 1.64 1.64 0 0 1 .3.65 3.78 3.78 0 0 1 .09.84v2.52h-.8v-2.35a3.85 3.85 0 0 0-.06-.71 1.2 1.2 0 0 0-.19-.47.74.74 0 0 0-.35-.26 1.52 1.52 0 0 0-.54-.08h-.89v3.73h-.8zm5.92-.47a.59.59 0 0 1-.16.41.6.6 0 0 1-.85 0 .61.61 0 0 1 0-.81.6.6 0 0 1 .85 0 .59.59 0 0 1 .16.4zm2.08 0a.59.59 0 0 1-.16.41.6.6 0 0 1-.85 0 .61.61 0 0 1 0-.81.6.6 0 0 1 .85 0 .59.59 0 0 1 .16.4zm2.17 0a.59.59 0 0 1-.16.41.6.6 0 0 1-.85 0 .61.61 0 0 1 0-.81.6.6 0 0 1 .85 0 .59.59 0 0 1 .16.4z" transform="translate(-5856.25 -320)"/><path class="cls-3" d="M5948.83 428.85v-6.19a4.13 4.13 0 0 0-4.13-4.13h-15.42V433h15.42a4.13 4.13 0 0 0 4.13-4.15z" transform="translate(-5856.25 -320)"/><path class="cls-17" d="M5939.2 420.95a3.59 3.59 0 1 0-.71 5.43l.8.88-.36.33 3.07 3.31a.94.94 0 1 0 1.38-1.26l-3.07-3.31-.29.26-.78-.86a3.59 3.59 0 0 0-.04-4.78zm-4.55 4.08a2.56 2.56 0 1 1 3.62.17 2.56 2.56 0 0 1-3.62-.2z" transform="translate(-5856.25 -320)"/></g></g></svg>