<svg id="Слой_1" xmlns="http://www.w3.org/2000/svg" xmlns:xlink="http://www.w3.org/1999/xlink" viewBox="0 0 150 150"><style>.st0{clip-path:url(#SVGID_2_)}.st1{fill:#434649}.st2{fill:#f3f9fe}.st3{fill:#cee2f2}.st4{fill:#b8d1e6}.st5{fill:#2a455e}.st6{fill:#21374e}.st7{fill:#51677f}</style><defs><circle id="SVGID_1_" cx="75" cy="75" r="75"/></defs><use xlink:href="#SVGID_1_" overflow="visible" fill="#f18825"/><clipPath id="SVGID_2_"><use xlink:href="#SVGID_1_" overflow="visible"/></clipPath><g class="st0"><path class="st1" d="M-33.5 95H2.7v36.2h-36.2z"/><path class="st2" d="M2.7 95h36.2v36.2H2.7z"/><path class="st1" d="M38.8 95H75v36.2H38.8z"/><path class="st2" d="M75 95h36.2v36.2H75z"/><path class="st1" d="M111.2 95h36.2v36.2h-36.2z"/><path class="st2" d="M-33.5 131.1H2.7v36.2h-36.2z"/><path class="st1" d="M2.7 131.1h36.2v36.2H2.7z"/><path class="st2" d="M38.8 131.1H75v36.2H38.8z"/><path class="st1" d="M75 131.1h36.2v36.2H75z"/><path class="st2" d="M111.2 131.1h36.2v36.2h-36.2z"/><path class="st1" d="M-33.5 167.3H2.7v36.2h-36.2z"/><path class="st2" d="M2.7 167.3h36.2v36.2H2.7z"/><path class="st1" d="M38.8 167.3H75v36.2H38.8z"/><path class="st2" d="M75 167.3h36.2v36.2H75zM147.3 95h36.2v36.2h-36.2z"/><path class="st1" d="M147.3 131.1h36.2v36.2h-36.2z"/><path class="st2" d="M147.3 167.3h36.2v36.2h-36.2z"/><path class="st1" d="M111.2 167.3h36.2v36.2h-36.2z"/></g><path class="st3" d="M59.8 34.2l4.4-3.3-13.9-2.8-5.2 5.1c-2.3 2.3-4.2 5.1-5.3 8.4-1.2 3.3-1.5 6.7-1.1 9.9L41.8 77s5.2-37.2 18-42.8z"/><path class="st2" d="M52 34.2h7.8l3.7 3.4c.1.1.3.3.4.5.1.2.2.4.2.6l.2 1 5.6 7 .9.5c.2.1.4.3.4.6.1.3.1.5-.1.7l-2.3 4.9s-4.7.8-7.3-.9c.2-1.9-.7-3.2-1.1-3.7-2.6 1.5-6.3.8-7.9.3C53.9 64.7 73.2 75 73.2 75s-1.1 3.8-5.4 5.7H45.1L41.8 77l.3-24c0-3.1.7-6.3 2.1-9.3 1.4-3 3.4-5.6 5.7-7.7l2.1-1.8z"/><path class="st3" d="M70 73.1s-1.1 3.8-5.4 5.7H43.4l1.7 2h22.7c4.3-1.9 5.4-5.7 5.4-5.7l-3.2-2z"/><circle class="st4" cx="61" cy="39" r=".8"/><path class="st2" d="M70 81.6c0 .2-.1.4-.3.6-.2.2-.4.3-.6.3H43.7c-.2 0-.4-.1-.6-.3-.2-.2-.3-.4-.3-.6 0-.2.1-.4.3-.6.2-.2.4-.2.6-.2h25.4c.2 0 .4.1.6.2.2.1.3.4.3.6zm-30.8 5.6v2.2c0 .3.1.6.3.9.2.2.5.4.9.4h32c.3 0 .6-.1.9-.4.2-.2.4-.5.4-.9v-2.2H39.2z"/><path class="st3" d="M68.9 82.5H44c0 2.6-2.1 4.7-4.7 4.7h34.4c-2.7 0-4.8-2.1-4.8-4.7z"/><path class="st4" d="M40.5 90.6h32v.9h-32zm0 3.5h32v.9h-32z"/><path class="st2" d="M73.6 92.9c0 .3-.1.6-.4.9-.2.2-.5.3-.9.3h-32c-.3 0-.6-.1-.9-.3-.2-.2-.3-.5-.3-.9v-.2c0-.3.1-.6.3-.9.2-.2.5-.3.9-.3h32c.3 0 .6.1.9.3.2.2.4.6.4.9v.2zM51 35l1.9.5 2.8-1.3-.6-4z"/><path class="st4" d="M52.6 34.5l1.9-2.3.2 1.5z"/><path class="st5" d="M102.7 84.8H82.5c0 2.1-1.7 3.9-3.8 3.9h27.9c-2.2 0-3.9-1.8-3.9-3.9z"/><path class="st6" d="M79.6 91.5h25.9V95H79.6z"/><circle class="st5" cx="92.3" cy="54.6" r="8.1"/><path class="st6" d="M96.4 47.5c1.4 1.4 2.2 3.3 2.2 5.5 0 4.3-3.5 7.9-7.9 7.9-2.1 0-4-.8-5.5-2.2 1.4 2.4 4 4.1 7.1 4.1 4.5 0 8.1-3.6 8.1-8.1.1-3.2-1.6-5.8-4-7.2z"/><path class="st7" d="M100.5 63.1c0 .2-.1.4-.3.6-.2.2-.4.2-.6.2H85c-.2 0-.4-.1-.6-.2-.2-.2-.2-.4-.2-.6V63c0-.2.1-.4.2-.6.2-.2.4-.2.6-.2h14.6c.2 0 .4.1.6.2.2.2.3.4.3.6v.1z"/><path class="st5" d="M95 69.2v-1.6c0-2 1.6-3.7 3.7-3.7H85.9c2 0 3.7 1.6 3.7 3.7v1.6c0 5.8-2.8 11-7.1 14.2h19.6C97.8 80.2 95 75 95 69.2z"/><path class="st6" d="M95 69.2v-1.6c0-2 1.6-3.7 3.7-3.7h-1.3c-2 0-3.7 1.6-3.7 3.7v1.6c0 5.8 2.8 11 7.1 14.2h1.3C97.8 80.2 95 75 95 69.2z"/><path class="st7" d="M103.6 84.1c0 .2-.1.4-.2.5-.1.1-.3.2-.5.2H82.3c-.2 0-.4-.1-.5-.2-.1-.1-.2-.3-.2-.5s.1-.4.2-.5c.1-.1.3-.2.5-.2h20.6c.2 0 .4.1.5.2.1.2.2.3.2.5zm-25 4.6v1.8c0 .3.1.5.3.7.2.2.4.3.7.3h26c.3 0 .5-.1.7-.3.2-.2.3-.4.3-.7v-1.8h-28zm28 4.6c0 .3-.1.5-.3.7-.2.2-.4.3-.7.3h-26c-.3 0-.5-.1-.7-.3-.2-.2-.3-.4-.3-.7v-.1c0-.2.1-.5.3-.7.2-.2.4-.3.7-.3h26c.3 0 .5.1.7.3.2.2.3.4.3.7v.1z"/></svg>