<svg id="Слой_1" data-name="Слой 1" xmlns="http://www.w3.org/2000/svg" viewBox="0 0 149.74 127.21"><defs><style>.cls-1{fill:#fff;opacity:.35}.cls-2{fill:#d7d7d7}.cls-3{fill:#f3f3f3}.cls-4{fill:#706f6f}.cls-5{fill:#afafaf}.cls-6{fill:#f6f6f6}.cls-7{fill:#ffc20f}.cls-8{fill:#ededed}.cls-9{fill:#b2b2b2}.cls-10{fill:#575756}.cls-11{fill:#e04327}.cls-12{fill:#29235c}.cls-13{fill:#ce3a21}.cls-14{fill:#c6c6c6}.cls-15{fill:#7f2e6b}.cls-16{fill:#ffc00f}.cls-17{fill:#1d71b8}.cls-18{fill:#c2185b}.cls-19{fill:#eedbb0}.cls-20{fill:#ffeb3b}</style></defs><title>service-item-3</title><circle id="Background_2" data-name="Background 2" class="cls-1" cx="74.87" cy="63.61" r="60.22"/><g id="Application"><g id="Computer"><path class="cls-2" d="M6401.43 403.66a1.79 1.79 0 0 0-2-1.44h-14.1a1.79 1.79 0 0 0-2 1.44l-3.41 12.62a1.79 1.79 0 0 0 2 1.44h21.77a1.79 1.79 0 0 0 2-1.44z" transform="translate(-6294.72 -317.77)"/><rect class="cls-3" x="48.14" y="16.34" width="101.6" height="70.07" rx="2" ry="2"/><path class="cls-4" d="M48.14 20.22h101.6V76.6H48.14z"/><rect class="cls-5" x="75.63" y="94.78" width="45.15" height="6.02" rx="2" ry="2"/><path class="cls-6" d="M148.43 24.22H48.14v47.37h101.6V24.22h-1.31z"/><path class="cls-7" d="M48.14 24.22h101.6v4.11H48.14z"/><circle class="cls-8" cx="146.11" cy="26.31" r=".88"/><circle class="cls-8" cx="142.7" cy="26.31" r=".88"/><circle class="cls-8" cx="139.3" cy="26.31" r=".88"/><path class="cls-8" d="M6361.58 344.08a.88.88 0 0 1-.88.88H6349a.88.88 0 0 1-.88-.88.88.88 0 0 1 .88-.88h11.68a.88.88 0 0 1 .88.88z" transform="translate(-6294.72 -317.77)"/><path class="cls-9" d="M57.35 30.49h7.8v1.88h-7.8zm8.97 0h3.9v1.88h-3.9zm4.66 0h8.52v1.88h-8.52z"/><path class="cls-10" d="M64.8 36.95h5.92v1.7H64.8zm6.66 0h13.78v1.7H71.46zm14.86 0h11.77v1.7H86.32zm-19.73 3.76H76v1.7h-9.41zm10.76 0h4.3v1.7h-4.3zm5.38 0h4.3v1.7h-4.3zm5.38 0h15.57v1.7H88.11zm-25.1-6.99h9.41v1.7h-9.41zm10.75 0h2.96v1.7h-2.96zm10.76 0h7.44v1.7h-7.44zm-7.17 0h6.1v1.7h-6.1z"/><path class="cls-11" d="M57.35 44.66h7.8v1.88h-7.8zm8.97 0h3.9v1.88h-3.9zm4.66 0h8.52v1.88h-8.52z"/><path class="cls-12" d="M79.95 44.66h8.52v1.88h-8.52z"/><path class="cls-9" d="M57.35 58.29h7.8v1.88h-7.8z"/><path class="cls-11" d="M66.32 58.29h3.9v1.88h-3.9zm4.66 0h8.52v1.88h-8.52z"/><path class="cls-12" d="M79.95 58.29h8.52v1.88h-8.52z"/><path class="cls-10" d="M66.59 52.73H76v1.7h-9.41zm10.76 0h4.3v1.7h-4.3zm5.38 0h4.3v1.7h-4.3zm5.38 0h15.57v1.7H88.11zm-25.1-4.13h9.41v1.7h-9.41zm10.75 0h2.96v1.7h-2.96zm10.76 0h7.44v1.7h-7.44zm-7.17 0h6.1v1.7h-6.1zM63.01 62.41h5.92v1.7h-5.92zm6.66 0h13.78v1.7H69.67zm14.85 0h11.77v1.7H84.52zM64.8 66h9.41v1.7H64.8zm10.76 0h4.3v1.7h-4.3zm5.38 0h4.3v1.7h-4.3zm5.38 0h15.57v1.7H86.32z"/></g><g id="Page"><rect class="cls-6" y="38.3" width="79.86" height="70.04" rx="1.51" ry="1.51"/><path class="cls-13" d="M6373.07 356.07h-76.84a1.51 1.51 0 0 0-1.51 1.51V362h79.86v-4.45a1.51 1.51 0 0 0-1.51-1.48z" transform="translate(-6294.72 -317.77)"/><circle class="cls-8" cx="75.54" cy="41.28" r="1.3"/><circle class="cls-8" cx="70.5" cy="41.28" r="1.3"/><circle class="cls-8" cx="65.46" cy="41.28" r="1.3"/><path class="cls-8" d="M6316.64 359a1.3 1.3 0 0 1-1.3 1.3H6298a1.3 1.3 0 0 1-1.3-1.3 1.3 1.3 0 0 1 1.3-1.3h17.3a1.3 1.3 0 0 1 1.3 1.3z" transform="translate(-6294.72 -317.77)"/><path class="cls-14" d="M5.41 50.41h68.82v23.15H5.41z"/><path class="cls-15" d="M5.41 73.55l11.2-10.74 3.28 3.52 11.84-8.3 10.08 7.76 10.2-11.3 7.94 8.94L70.5 51.47l3.73 9.91v12.17H5.41z"/><path class="cls-16" d="M5.41 73.55l6.08-12.34 6.01 9.23 6.28-4.51 7.11 4.6 13.94-11 9.51 10.23 8.25-13 11.64 16.79H5.41zm0 10.77h8.85V95.3H5.41z"/><path class="cls-15" d="M18.04 84.32h9.07V95.3h-9.07z"/><path class="cls-9" d="M5.41 97.32h8.85v.92H5.41zm0 1.26h8.85v.92H5.41zm12.6-1.26h8.85v.92h-8.85zm0 1.26h8.85v.92h-8.85z"/><path class="cls-12" d="M23.42 74.89h32.5v3.09h-32.5z"/><path class="cls-17" d="M24.74 78.74h29.85v1.76H24.74z"/><path class="cls-9" d="M35.26 84.32h38.98v9.97H35.26zm0 10.98h38.98v1.51H35.26zm0 2.52h38.98v1.51H35.26zm0 2.52h38.98v1.51H35.26z"/></g><g id="Gear"><path class="cls-7" d="M6384.05 442.08a23.19 23.19 0 0 0 3.88-2.72l-1.2-5.14a18.32 18.32 0 0 0 1.71-2.26l5.27-.27a23 23 0 0 0 1.53-4.48l-4-3.45a18.64 18.64 0 0 0 .05-2.83l4.11-3.31a22.8 22.8 0 0 0-1.39-4.52l-5.27-.44c-.24-.4-.49-.8-.76-1.19s-.56-.76-.86-1.12l1.38-5.1a22.72 22.72 0 0 0-3.78-2.84l-4.52 2.73a18.64 18.64 0 0 0-2.68-.92l-1.88-4.93a23.11 23.11 0 0 0-4.73-.08l-2.05 4.86a18.29 18.29 0 0 0-2.71.83l-4.42-2.88a23.17 23.17 0 0 0-3.88 2.72l1.2 5.14a18.24 18.24 0 0 0-1.7 2.26l-5.27.27a23 23 0 0 0-1.53 4.48l4 3.45a18.72 18.72 0 0 0-.05 2.83l-4.11 3.31a22.68 22.68 0 0 0 1.39 4.52l5.27.44c.24.4.49.8.76 1.19s.56.76.86 1.12l-1.38 5.1a22.83 22.83 0 0 0 3.78 2.84l4.52-2.73a18.49 18.49 0 0 0 2.68.92l1.88 4.93a23 23 0 0 0 4.73.09l2.05-4.86a18.28 18.28 0 0 0 2.71-.83z" transform="translate(-6294.72 -317.77)"/><circle class="cls-13" cx="6373.34" cy="422.04" r="7.81" transform="rotate(-38.59 2772.912 9252.915)"/><g id="Gear-2" data-name="Gear"><path class="cls-18" d="M6423.15 441.24a17.86 17.86 0 0 0 2.81-2.32l-1.23-3.88a14 14 0 0 0 1.17-1.84l4-.53a17.69 17.69 0 0 0 .91-3.53l-3.28-2.41a14.28 14.28 0 0 0-.13-2.18l3-2.79a17.54 17.54 0 0 0-1.34-3.39h-4.07c-.21-.3-.42-.59-.66-.87s-.48-.55-.73-.81l.75-4a17.52 17.52 0 0 0-3.07-2l-3.31 2.37a14.29 14.29 0 0 0-2.12-.54l-1.75-3.68a17.83 17.83 0 0 0-3.64.22l-1.28 3.86a14.15 14.15 0 0 0-2 .8l-3.57-1.95a18 18 0 0 0-2.81 2.32l1.2 3.91a14 14 0 0 0-1.17 1.84l-4 .53a17.74 17.74 0 0 0-.91 3.53l3.28 2.41a14.27 14.27 0 0 0 .13 2.18l-3 2.79a17.59 17.59 0 0 0 1.34 3.39h4.07c.21.3.42.59.66.87s.48.55.73.81l-.75 4a17.59 17.59 0 0 0 3.07 2l3.31-2.37a14.21 14.21 0 0 0 2.12.54l1.75 3.68a17.66 17.66 0 0 0 3.64-.22l1.28-3.86a14 14 0 0 0 2-.8z" transform="translate(-6294.72 -317.77)"/><circle class="cls-19" cx="6413.37" cy="426.52" r="7.21" transform="rotate(-39.53 2823.29 9026.711)"/></g></g><g id="Arrow"><circle class="cls-20" cx="10.2" cy="57.33" r="7.43"/><circle class="cls-20" cx="10.18" cy="57.31" r="5.46"/><path class="cls-20" d="M145.65 0l-16.72 1.1 4.73 5.79-33.16 26.94-10.51-21.72L64.83 49.9 42.32 18.83 9.33 55.31l1.7 3.36 30.8-33.48 24.33 32.14L89.39 19.5l10.53 20.81 36.13-30.5 4.08 4.99L145.65 0z"/></g></g></svg>