<svg id="Слой_1" xmlns="http://www.w3.org/2000/svg" xmlns:xlink="http://www.w3.org/1999/xlink" viewBox="0 0 150 150"><style>.st0{fill:#fff}.st1{fill:#ed6d43}.st2{fill:#ea5529}.st3{fill:#2a455e}.st4{fill:#e1effa}.st5{fill:#e74919}.st6{clip-path:url(#SVGID_2_)}.st7{fill:#fab638}.st8{fill:#ffd55e}.st9{fill:#fdc542}</style><circle class="st0" cx="75" cy="75" r="75"/><path class="st1" d="M119.9 78.5c-.5 0-1.1-.1-1.8-.3.8-1.3 1.3-2.7 1.3-4 0-2.7-1.9-4.1-3.6-4.1-.9 0-1.9.4-2.5 1.1-.5.5-1 1.5-1 3 0 1.9.7 3.4 1.7 4.5-.5.3-1 .6-1.6.9-1.4-17-18.2-30.4-38.7-30.4-3.8 0-7.6.5-11.1 1.4-9.1-3.1-20.6-2.1-21.3-.5-.5 1 1.9 5.1 4.6 9-4.2 3.7-7.4 8.2-9.2 13.2h-5.9c1.2 0 2.1 3.5 2.1 7.8s-.9 7.8-2.1 7.8h-.2c.1 0 .1.1.2.1l6 3.1c2.5 6.9 7.7 12.9 14.6 17v11.1c0 .4.1.7.4 1 .3.3.6.4 1 .4h10.5c.5 0 1-.1 1.5-.4.5-.3.8-.7 1-1.2l2.4-5.2c1.8.2 3.7.3 5.6.3 3 0 5.9-.3 8.7-.8v5.9c0 .4.1.7.4 1 .3.3.6.4 1 .4h10.6c.5 0 1-.1 1.5-.4.5-.3.8-.7 1-1.1 0 0 13.2-26.4 13.4-26.7.7-1.8 1.3-3.6 1.6-5.5.3-1.4.4-2.9.5-4.4 1.5-.5 2.8-1.2 3.8-2.1 1.2.6 2.6.9 3.7.9.8 0 1.4-.6 1.4-1.4-.1-.8-.7-1.4-1.5-1.4zm-4.1-1.9c-.5-.6-.8-1.4-.8-2.4 0-.8.3-1.3.8-1.3.4 0 .8.4.8 1.3 0 .7-.3 1.6-.8 2.4z"/><path class="st2" d="M39.2 81.7c0-5.2-1.1-9.4-2.5-9.4h-5.9c1.2 0 2.1 3.5 2.1 7.8s-.9 7.8-2.1 7.8h-.2c.1 0 .1.1.2.1l5.3 2.7.5.3.1.1c1.4-.1 2.5-4.2 2.5-9.4z"/><ellipse class="st1" cx="30.8" cy="80.2" rx="2.1" ry="7.8"/><path class="st2" d="M119.9 78.5c-.5 0-1.1-.1-1.8-.3.8-1.3 1.3-2.7 1.3-4 0-2.7-1.9-4.1-3.6-4.1-.9 0-1.9.4-2.5 1.1-.5.5-1 1.5-1 3 0 1.9.7 3.4 1.7 4.5-.5.3-1 .6-1.6.9-.8-10.1-7.1-18.9-16.3-24.4 6.2 5.6 10 13.2 10 21.4 0 17.4-16.8 31.6-37.5 31.6-11.8 0-22.3-4.6-29.2-11.7 2.8 4.7 7 8.7 12 11.7v11.1c0 .4.1.7.4 1 .3.3.6.4 1 .4h10.5c.5 0 1-.1 1.5-.4.5-.3.8-.7 1-1.2l2.4-5.2c1.8.2 3.7.3 5.6.3 3 0 5.9-.3 8.7-.8v5.9c0 .4.1.7.4 1 .3.3.6.4 1 .4h10.6c.5 0 1-.1 1.5-.4.5-.3.8-.7 1-1.1 0 0 13.2-26.4 13.4-26.7.7-1.8 1.3-3.6 1.6-5.5.3-1.4.4-2.9.5-4.4 1.5-.5 2.8-1.2 3.8-2.1 1.2.6 2.6.9 3.7.9.8 0 1.4-.6 1.4-1.4-.1-.9-.7-1.5-1.5-1.5zm-4.1-1.9c-.5-.6-.8-1.4-.8-2.4 0-.8.3-1.3.8-1.3.4 0 .8.4.8 1.3 0 .7-.3 1.6-.8 2.4z"/><path class="st1" d="M54.6 120.2c.3.3.6.4 1 .4h-2.8c-.4 0-.7-.1-1-.4-.3-.3-.4-.6-.4-1v-11.1l2.8 1.5v9.6c0 .4.1.7.4 1zm31 0c-.3-.3-.4-.6-.4-1v-6.6c-.9.2-1.9.5-2.8.7v5.9c0 .4.1.7.4 1 .3.3.6.4 1 .4h2.8c-.3 0-.7-.1-1-.4z"/><ellipse class="st3" cx="48.6" cy="70.9" rx="3.4" ry="3.4"/><circle class="st4" cx="47.6" cy="69.9" r="1.3"/><path class="st5" d="M87.5 59c-.1 0-.2 0-.4-.1-8.7-2.6-18-2.6-26.7 0-.7.2-1.4-.2-1.6-.8-.2-.7.2-1.4.8-1.6 9.2-2.8 19-2.8 28.2 0 .7.2 1.1.9.8 1.6-.1.6-.6.9-1.1.9z"/><defs><path id="SVGID_1_" d="M87.8 56.5c-.1 0-.1 0-.2-.1V34.7H59.8v21.8c-.1 0-.1 0-.2.1-.7.2-1.1.9-.8 1.6.2.7.9 1 1.6.8 8.7-2.6 18-2.6 26.7 0 .1 0 .2.1.4.1.5 0 1.1-.4 1.2-.9.2-.8-.2-1.5-.9-1.7z"/></defs><clipPath id="SVGID_2_"><use xlink:href="#SVGID_1_" overflow="visible"/></clipPath><g class="st6"><path class="st7" d="M84.5 53.4c0 6-4.8 10.8-10.8 10.8-6 0-10.8-4.8-10.8-10.8 0-6 4.8-10.8 10.8-10.8 6 0 10.8 4.8 10.8 10.8z"/><path class="st8" d="M84.5 52.1c0 6-4.8 10.8-10.8 10.8-6 0-10.8-4.8-10.8-10.8 0-6 4.8-10.8 10.8-10.8 6 0 10.8 4.8 10.8 10.8z"/><path class="st9" d="M73.7 60.2c-4.5 0-8.1-3.6-8.1-8.1s3.6-8.1 8.1-8.1 8.1 3.6 8.1 8.1-3.6 8.1-8.1 8.1z"/><path class="st7" d="M66.5 53c0-4.5 3.6-8.1 8.1-8.1 2 0 3.9.7 5.3 2-1.5-1.7-3.7-2.8-6.1-2.8-4.5 0-8.1 3.6-8.1 8.1 0 2.5 1.1 4.7 2.8 6.1-1.2-1.5-2-3.3-2-5.3z"/></g><circle class="st7" cx="55.1" cy="33.5" r="5.3"/><circle class="st8" cx="55.1" cy="32.9" r="5.3"/><circle class="st9" cx="55.1" cy="32.9" r="3.9"/><path class="st7" d="M51.6 33.3c0-2.2 1.8-3.9 3.9-3.9 1 0 1.9.4 2.6 1-.7-.8-1.8-1.4-3-1.4-2.2 0-3.9 1.8-3.9 3.9 0 1.2.5 2.3 1.4 3-.6-.7-1-1.6-1-2.6z"/><circle class="st7" cx="81.6" cy="25.8" r="7.9"/><path class="st8" d="M89.6 24.9c0 4.4-3.6 8-7.9 8-4.4 0-7.9-3.6-7.9-8s3.6-7.9 7.9-7.9c4.3 0 7.9 3.5 7.9 7.9z"/><circle class="st9" cx="81.6" cy="24.9" r="5.9"/><path class="st7" d="M76.3 25.5c0-3.3 2.7-5.9 5.9-5.9 1.5 0 2.8.5 3.9 1.4-1.1-1.3-2.7-2.1-4.5-2.1-3.3 0-5.9 2.7-5.9 5.9 0 1.8.8 3.4 2.1 4.5-.9-.9-1.5-2.3-1.5-3.8z"/></svg>