<svg id="Слой_1" data-name="Слой 1" xmlns="http://www.w3.org/2000/svg" viewBox="0 0 154.11 123.16"><defs><style>.cls-1,.cls-8{fill:#fff}.cls-1{opacity:.35}.cls-2{fill:#dadada}.cls-3{fill:#ededed}.cls-4{fill:#706f6f}.cls-5{fill:#b2b2b2}.cls-6{fill:#a0eadd}.cls-7{fill:red}.cls-9{fill:#1565c0}.cls-10{fill:#f5f5f5}.cls-11{fill:#dd1f26}.cls-12{fill:#f2ce1c}.cls-13{fill:#bf880c}.cls-14{fill:#575756}.cls-15{fill:#e94e1b}.cls-16{fill:#ffe70b}.cls-17{fill:#c44121}.cls-18{fill:#c6c6c6}.cls-19{fill:#96230c}.cls-20{fill:#f6f6f6}</style></defs><title>service-item-4</title><circle id="Background_2" data-name="Background 2" class="cls-1" cx="77.06" cy="61.58" r="59.99"/><g id="Creative_Campaign" data-name="Creative Campaign"><g id="Computer"><path class="cls-2" d="M5480 701.1c0-.88-1-1.59-2.21-1.59h-15.57a2 2 0 0 0-2.21 1.59l-3.83 13.9a2 2 0 0 0 2.21 1.59h24.05a2 2 0 0 0 2.21-1.59z" transform="translate(-5385.89 -598.32)"/><rect class="cls-3" x="29.35" y="25.93" width="112.26" height="77.42" rx="2.21" ry="2.21"/><path class="cls-4" d="M29.35 30.21h112.26v62.3H29.35z"/><rect class="cls-5" x="59.72" y="112.6" width="49.89" height="6.65" rx="2.21" ry="2.21"/><path class="cls-6" d="M140.16 34.63H29.35v52.35h112.26V34.63h-1.45z"/></g><g id="Play"><path class="cls-7" d="M5474.73 602h-27.06a1.49 1.49 0 0 0-1.49 1.49v16.15a1.49 1.49 0 0 0 1.49 1.49h27.06a1.49 1.49 0 0 0 1.49-1.49v-16.12a1.49 1.49 0 0 0-1.49-1.52z" transform="translate(-5385.89 -598.32)"/><path class="cls-7" d="M5447.66 621.17h27.06a1.49 1.49 0 0 0 1.49-1.49v-10.17l-30-5.44v15.6a1.49 1.49 0 0 0 1.45 1.5z" transform="translate(-5385.89 -598.32)"/><path class="cls-8" d="M5466 610.2l-6.94-3.48a2.27 2.27 0 0 0-.91-.3.63.63 0 0 0-.64.73v7.31a.81.81 0 0 0 .83 1 2 2 0 0 0 .69-.15l7-3.57a1 1 0 0 0-.03-1.54z" transform="translate(-5385.89 -598.32)"/></g><g id="Chat"><path class="cls-9" d="M5500.82 659.28c-4.11-2.87-6.65-6.81-6.65-11.17 0-8.75 10.26-15.85 22.92-15.85s22.92 7.1 22.92 15.85-10.27 15.89-22.93 15.89a30.76 30.76 0 0 1-12-2.36 9 9 0 0 1-9 .15c2.92-.03 4.21-1.41 4.74-2.51z" transform="translate(-5385.89 -598.32)"/><circle class="cls-10" cx="120.18" cy="48.64" r="3.3"/><circle class="cls-10" cx="131.19" cy="48.64" r="3.3"/><circle class="cls-10" cx="142.2" cy="48.64" r="3.3"/><path class="cls-11" d="M5517.11 641.39c4.11-2.87 6.65-6.81 6.65-11.17 0-8.75-10.26-15.85-22.92-15.85s-22.92 7.1-22.92 15.85 10.26 15.85 22.92 15.85a30.76 30.76 0 0 0 12-2.36 9 9 0 0 0 9 .15c-2.96.01-4.21-1.37-4.73-2.47z" transform="translate(-5385.89 -598.32)"/><circle class="cls-10" cx="102.77" cy="31.58" r="3.3"/><circle class="cls-10" cx="113.78" cy="31.58" r="3.3"/><circle class="cls-10" cx="124.79" cy="31.58" r="3.3"/></g><g id="Email"><path class="cls-12" d="M88.49 81.18h44.4v28.9h-44.4z"/><path class="cls-13" d="M5474.85 708.27a.33.33 0 0 1-.21-.59l.51-.42a.33.33 0 0 1 .42.51l-.51.42a.33.33 0 0 1-.21.08zm1.5-1.27a.33.33 0 0 1-.21-.59l1-.81a.33.33 0 1 1 .42.51l-1 .81a.33.33 0 0 1-.21.08zm2-1.62a.33.33 0 0 1-.21-.59l1-.81a.33.33 0 0 1 .42.51l-1 .81a.33.33 0 0 1-.24.12zm2-1.62a.33.33 0 0 1-.21-.59l1-.81a.33.33 0 0 1 .42.51l-1 .81a.33.33 0 0 1-.27.13zm2-1.62a.33.33 0 0 1-.21-.59l1-.81a.33.33 0 0 1 .42.51l-1 .81a.33.33 0 0 1-.3.13zm2-1.62a.33.33 0 0 1-.35-.52l1-.81a.33.33 0 1 1 .42.51l-1 .81a.33.33 0 0 1-.19.06zm2-1.62a.33.33 0 0 1-.21-.59l1-.81a.33.33 0 1 1 .42.51l-1 .81a.33.33 0 0 1-.35.18zm2-1.62a.33.33 0 0 1-.21-.59l1-.81a.33.33 0 1 1 .42.51l-1 .81a.33.33 0 0 1-.38.14zm2-1.62a.33.33 0 0 1-.21-.59l1-.81a.33.33 0 0 1 .42.51l-1 .81a.33.33 0 0 1-.41.14zm2-1.62a.33.33 0 0 1-.21-.59l1-.81a.33.33 0 0 1 .42.51l-1 .81a.33.33 0 0 1-.44.14zm2-1.62a.33.33 0 0 1-.21-.59l1-.81a.33.33 0 0 1 .42.51l-1 .81a.33.33 0 0 1-.46.15zm2.74-1.55a.33.33 0 0 1-.21-.08l-.3-.25-.3.25a.33.33 0 1 1-.42-.51l.51-.42a.33.33 0 0 1 .42 0l.51.42a.33.33 0 0 1-.21.59zm19.59 16.13a.33.33 0 0 1-.21-.08l-1-.81a.33.33 0 0 1 .42-.51l1 .81a.33.33 0 0 1-.21.59zm-2-1.61a.33.33 0 0 1-.21-.08l-1-.81a.33.33 0 1 1 .53-.5l1 .81a.33.33 0 0 1-.28.59zm-2-1.61a.33.33 0 0 1-.21-.08l-1-.81a.33.33 0 1 1 .42-.51l1 .81a.33.33 0 0 1-.13.59zm-2-1.61a.33.33 0 0 1-.21-.08l-1-.81a.33.33 0 0 1 .42-.51l1 .81a.33.33 0 0 1-.08.59zm-2-1.61a.33.33 0 0 1-.21-.08l-1-.81a.33.33 0 0 1 .42-.51l1 .81a.33.33 0 0 1-.04.58zm-2-1.61a.33.33 0 0 1-.21-.08l-1-.81a.33.33 0 1 1 .42-.51l1 .81a.33.33 0 0 1 0 .58zm-2-1.61a.33.33 0 0 1-.21-.08l-1-.81a.33.33 0 0 1 .42-.51l1 .81a.33.33 0 0 1 .04.58zm-2-1.61a.33.33 0 0 1-.21-.08l-1-.81a.33.33 0 1 1 .42-.51l1 .81a.33.33 0 0 1 .11.57zm-2-1.61a.33.33 0 0 1-.21-.08l-1-.81a.33.33 0 1 1 .42-.51l1 .81a.33.33 0 0 1 .11.57zm-2-1.61a.33.33 0 0 1-.21-.08l-1-.81a.33.33 0 0 1 .42-.51l1 .81a.33.33 0 0 1 .11.57zm19.49 15.73a.33.33 0 0 1-.21-.08l-.51-.42a.33.33 0 0 1 .42-.51l.51.42a.33.33 0 0 1-.21.59z" transform="translate(-5385.89 -598.32)"/><path class="cls-13" d="M121.49 81.18h-33l22.2 14.46 22.2-14.46h-11.4z"/><path class="cls-12" d="M88.49 81.18l22.2-14.45 22.2 14.45h-44.4z"/></g><g id="Lamp"><path class="cls-14" d="M5412.46 641.29a.85.85 0 0 0 1.06.57l10.78-3.2a.85.85 0 0 0 .57-1.06.85.85 0 0 0-1.06-.57l-10.78 3.2a.85.85 0 0 0-.57 1.06zm.65 2.18a.85.85 0 0 0 1.06.57l10.78-3.2a.85.85 0 0 0 .57-1.06.85.85 0 0 0-1.06-.57l-10.78 3.2a.85.85 0 0 0-.57 1.06zm.65 2.17a.85.85 0 0 0 1.06.57l10.78-3.2a.85.85 0 0 0 .57-1.06.85.85 0 0 0-1.06-.57l-10.78 3.2a.85.85 0 0 0-.57 1.06z" transform="translate(-5385.89 -598.32)"/><path class="cls-15" d="M5424.48 647.44l-6.54 1.94c-.45.13-1.09-.67-1.22-1.12l8.17-2.43c.11.45.04 1.47-.41 1.61z" transform="translate(-5385.89 -598.32)"/><path class="cls-14" d="M5415 646.76l10.78-3.2a.85.85 0 0 1 .49 1.63l-1.42.42-8.17 2.43-1.2.36a.85.85 0 1 1-.48-1.64z" transform="translate(-5385.89 -598.32)"/><path class="cls-16" d="M5408 603.59a16.52 16.52 0 0 1 16.56 27.31l-.32 4.8a.63.63 0 0 1-.57.47l-3.09.92-1.09.32-2.87.85-1.09.32-2.91.86a.63.63 0 0 1-.73-.08l-2.86-3.86a16.52 16.52 0 0 1-1.03-31.91z" transform="translate(-5385.89 -598.32)"/><path class="cls-8" d="M5411.68 625.59a1.93 1.93 0 0 1-.46.21l-.58.17a1.93 1.93 0 0 1-2.4-1.3l-2.19-7.37a1.93 1.93 0 0 1 1.3-2.4l.58-.17a1.94 1.94 0 0 1 1.36.1 1.67 1.67 0 0 1 1-.79l1.36-.4a1.64 1.64 0 0 1 1.14.08 1.93 1.93 0 0 1 1-.72l.58-.17a1.93 1.93 0 0 1 2.4 1.3l2.19 7.37a1.93 1.93 0 0 1-1.3 2.4l-.58.17-.31.06 3.79 12.78.05.19-1.09.32v-.2l-4-13.61a.57.57 0 0 1 .77-.68.78.78 0 0 0 .55 0l.58-.17a.8.8 0 0 0 .54-1l-2.19-7.37a.8.8 0 0 0-1-.54l-.58.17a.8.8 0 0 0-.55.59.57.57 0 0 1-.39.42.56.56 0 0 1-.55-.13.72.72 0 0 0-.66-.24l-1.36.4a.81.81 0 0 0-.45.72.57.57 0 0 1-1 .26.8.8 0 0 0-.86-.29l-.58.17a.8.8 0 0 0-.54 1l2.19 7.37a.8.8 0 0 0 1 .54l.58-.17a.79.79 0 0 0 .51-.47.57.57 0 0 1 1.07 0l4.1 13.79a2 2 0 0 0 .07.19l-1.09.32-.06-.19zm-16.94-27.04a1 1 0 0 1 1.39.14l4.72 5.75a1 1 0 0 1-.14 1.39 1 1 0 0 1-1.39-.14l-4.72-5.75a1 1 0 0 1 .14-1.39zm-6.29 6.69a1 1 0 0 1 1.34-.4l6.55 3.52a1 1 0 0 1 .4 1.34 1 1 0 0 1-1.34.4l-6.55-3.52a1 1 0 0 1-.4-1.34zm-2.56 9.01a1 1 0 0 1 1-1l7.43.24a1 1 0 0 1 1 1 1 1 0 0 1-1 1l-7.43-.24a1 1 0 0 1-1-1z" transform="translate(-5385.89 -598.32)"/></g><g id="Loudspeaker"><path class="cls-11" d="M5409.2 676l-16.09 5.38c-4.55 1.52-6.72 7.27-4.86 12.84s7.06 8.86 11.61 7.34l.3-.1 15.07 19.54a1.33 1.33 0 0 0 1.86.24l5-3.86a1.33 1.33 0 0 0 .24-1.86l-13.16-17 6.79-2.27z" transform="translate(-5385.89 -598.32)"/><path class="cls-3" d="M5438.13 664.95l-4.41-13.19c-3.23 3.86-13.37 16-16.31 19.18-3.22 3.52-10.72 5.94-10.72 5.94a1.33 1.33 0 0 0-.84 1.68l5.91 17.66a1.33 1.33 0 0 0 1.68.84s2.15-.63 3.84-1.35a18.19 18.19 0 0 1 8.3-.35c4.05.9 19.4 3.72 24.27 4.61z" transform="translate(-5385.89 -598.32)"/><path class="cls-17" d="M5454.83 699.56l-13.27-39.68-4-11.83a1.35 1.35 0 0 0-1.69-.87l-2.1.7a1.35 1.35 0 0 0-.83 1.71l.73 2.17 4.41 13.19 11.71 35 .38 1.13a1.35 1.35 0 0 0 1.69.87l2.1-.7a1.35 1.35 0 0 0 .87-1.69z" transform="translate(-5385.89 -598.32)"/><path class="cls-18" d="M5433.72 651.76c-3.23 3.86-13.37 16-16.31 19.18-3.22 3.52-10.72 5.94-10.72 5.94a1.33 1.33 0 0 0-.84 1.68l5.91 17.66a1.33 1.33 0 0 0 1.68.84s2.15-.63 3.84-1.35l20.86-30.77z" transform="translate(-5385.89 -598.32)"/><path class="cls-19" d="M5437.61 648a1.35 1.35 0 0 0-1.69-.87l-2.1.7a1.35 1.35 0 0 0-.83 1.71l.73 2.17 4.41 13.19 1.87-2.76 1.56-2.3z" transform="translate(-5385.89 -598.32)"/><path class="cls-20" d="M5445.76 656.31a1.9 1.9 0 0 1-.56-3.72c.37-.12 8.62-2.88 9.66-14.11 1.13-12.21-4.73-15.59-5-15.73l1.75-3.38c.34.18 8.38 4.52 7 19.45a20.68 20.68 0 0 1-6.56 13.89 16.89 16.89 0 0 1-5.77 3.5 1.9 1.9 0 0 1-.52.1zm37.17 59.77a1.9 1.9 0 0 1-1.38-2.2c.07-.39 1.54-9-7.85-15.19-10.22-6.78-16-3.22-16.21-3.06l-2.15-3.14c.32-.22 8-5.24 20.44 3a20.68 20.68 0 0 1 9.13 12.35 16.9 16.9 0 0 1 .35 6.74 1.9 1.9 0 0 1-2.24 1.49zm31.47-38.71a1.9 1.9 0 0 1-1.56-.81 28.08 28.08 0 0 0-5.43-5.38 29.84 29.84 0 0 0-15.77-6.22c-13.87-1.22-21.41 7.57-21.49 7.66a1.9 1.9 0 1 1-2.91-2.44c.36-.43 8.92-10.4 24.74-9a34.2 34.2 0 0 1 24 13.22 1.9 1.9 0 0 1-1.58 2.97z" transform="translate(-5385.89 -598.32)"/></g></g></svg>