<svg id="Слой_1" xmlns="http://www.w3.org/2000/svg" xmlns:xlink="http://www.w3.org/1999/xlink" viewBox="0 0 150 150"><style>.st0{fill:#fff}.st1{fill:#2a455e}.st2{fill:#51677f}.st3{fill:#21374e}.st4{fill:#e1effa}.st5,.st6{fill-rule:evenodd;clip-rule:evenodd;fill:#fff}.st6{fill:#e1effa}.st7{clip-path:url(#SVGID_2_)}.st8{fill:#fee0b2}.st9{fill:#b8d1e6}</style><circle class="st0" cx="75" cy="75" r="75"/><path class="st1" d="M91.8 67h-3.4v-3c0-.6-.2-1.1-.6-1.5-.4-.4-.9-.6-1.5-.6H63.8c-.6 0-1.1.2-1.5.6-.4.4-.6.9-.6 1.5v3h-3.4v-3c0-1.5.6-2.9 1.6-3.9s2.4-1.6 3.9-1.6h22.5c1.5 0 2.9.6 3.9 1.6s1.6 2.4 1.6 3.9v3z"/><path class="st2" d="M113.1 122c0 1.3-1 2.3-2.3 2.3H39.1c-1.3 0-2.3-1-2.3-2.3V82c0-1.3 1-2.3 2.3-2.3h71.7c1.3 0 2.3 1 2.3 2.3v40z"/><path class="st3" d="M39.1 123.1c-.6 0-1.1-.5-1.1-1.1V82c0-.6.5-1.1 1.1-1.1h71.7c.6 0 1.1.5 1.1 1.1v40c0 .6-.5 1.1-1.1 1.1H39.1z"/><path class="st4" d="M109.3 122.2H107v-.4h2.3v.4zm-4.6 0h-2.3v-.4h2.3v.4zm-4.7 0h-2.3v-.4h2.3v.4zm-4.6 0h-2.3v-.4h2.3v.4zm-4.6 0h-2.3v-.4h2.3v.4zm-4.6 0h-2.3v-.4h2.3v.4zm-4.7 0h-2.3v-.4h2.3v.4zm-4.6 0h-2.3v-.4h2.3v.4zm-4.6 0H70v-.4h2.3v.4zm-4.6 0h-2.3v-.4h2.3v.4zm-4.7 0h-2.3v-.4H63v.4zm-4.6 0h-2.3v-.4h2.3v.4zm-4.6 0h-2.3v-.4h2.3v.4zm-4.6 0h-2.3v-.4h2.3v.4zm-4.6 0h-2.3v-.4h2.3v.4zm-4.7 0c-.5 0-1-.4-1-1v-1.1h.4v1.1c0 .3.3.6.6.6v.4zm71.1-1.3h-.4v-2.3h.4v2.3zm-71.7-3.1H39v-2.3h.4v2.3zm71.7-1.5h-.4V114h.4v2.3zm-71.7-3.1H39v-2.3h.4v2.3zm71.7-1.5h-.4v-2.3h.4v2.3zm-71.7-3.2H39v-2.3h.4v2.3zM111 107h-.4v-2.3h.4v2.3zm-71.7-3.1H39v-2.3h.4v2.3zm71.7-1.5h-.4v-2.3h.4v2.3zm-71.7-3.1H39V97h.4v2.3zm71.7-1.5h-.4v-2.3h.4v2.3zm-71.7-3.1H39v-2.3h.4v2.3zm71.7-1.5h-.4v-2.3h.4v2.3zM39.3 90H39v-2.3h.4V90zm71.7-1.5h-.4v-2.3h.4v2.3zm-71.7-3.1H39v-2.3h.4v2.3zm71.7-1.5h-.4v-1.1c0-.3-.3-.6-.6-.6v-.4c.5 0 1 .4 1 1v1.1zm-3.2-1.7h-2.3v-.4h2.3v.4zm-4.7 0h-2.3v-.4h2.3v.4zm-4.6 0h-2.3v-.4h2.3v.4zm-4.6 0h-2.3v-.4h2.3v.4zm-4.6 0H87v-.4h2.3v.4zm-4.6 0h-2.3v-.4h2.3v.4zm-4.7 0h-2.3v-.4H80v.4zm-4.6 0h-2.3v-.4h2.3v.4zm-4.6 0h-2.3v-.4h2.3v.4zm-4.6 0h-2.3v-.4h2.3v.4zm-4.7 0h-2.3v-.4h2.3v.4zm-4.6 0h-2.3v-.4h2.3v.4zm-4.6 0H50v-.4h2.3v.4zm-4.6 0h-2.3v-.4h2.3v.4zm-4.7 0h-2.3v-.4H43v.4z"/><path class="st2" d="M114.7 93.4c0 1.3-1 2.3-2.3 2.3H37.6c-1.3 0-2.3-1-2.3-2.3v-24c0-1.3 1-2.3 2.3-2.3h74.8c1.3 0 2.3 1 2.3 2.3v24z"/><path class="st1" d="M37.6 94.5c-.6 0-1.1-.5-1.1-1.1v-24c0-.6.5-1.1 1.1-1.1h74.8c.6 0 1.1.5 1.1 1.1v24c0 .6-.5 1.1-1.1 1.1H37.6z"/><path class="st4" d="M111.4 93.6h-2.3v-.4h2.3v.4zm-4.5 0h-2.3v-.4h2.3v.4zm-4.6 0H100v-.4h2.3v.4zm-4.6 0h-2.3v-.4h2.3v.4zm-4.5 0h-2.3v-.4h2.3v.4zm-4.6 0h-2.3v-.4h2.3v.4zm-4.6 0h-2.3v-.4H84v.4zm-4.5 0h-2.3v-.4h2.3v.4zm-4.6 0h-2.3v-.4h2.3v.4zm-4.6 0H68v-.4h2.3v.4zm-4.5 0h-2.3v-.4h2.3v.4zm-4.6 0h-2.3v-.4h2.3v.4zm-4.5 0h-2.3v-.4h2.3v.4zm-4.6 0h-2.3v-.4h2.3v.4zm-4.6 0h-2.3v-.4h2.3v.4zm-4.5 0h-2.3v-.4H43v.4zm-4.6 0c-.5 0-1-.4-1-1v-1.1h.4v1.1c0 .3.3.6.6.6v.4zm74.2-1.9h-.4v-2.3h.4v2.3zm-74.8-2.5h-.4V87h.4v2.2zm74.8-2.1h-.4v-2.3h.4v2.3zm-74.8-2.4h-.4v-2.3h.4v2.3zm74.8-2.1h-.4v-2.3h.4v2.3zm-74.8-2.5h-.4v-2.3h.4v2.3zm74.8-2.1h-.4v-2.3h.4V78zm-74.8-2.5h-.4v-2.3h.4v2.3zm74.8-2h-.4v-2.3h.4v2.3zM37.8 71h-.4v-.9c0-.5.4-1 1-1h.2v.4h-.2c-.3 0-.6.3-.6.6v.9zm73.8-1.5h-2.3v-.4h2.3v.4zm-4.6 0h-2.3v-.4h2.3v.4zm-4.5 0h-2.3v-.4h2.3v.4zm-4.6 0h-2.3v-.4h2.3v.4zm-4.5 0h-2.3v-.4h2.3v.4zm-4.6 0h-2.3v-.4h2.3v.4zm-4.6 0h-2.3v-.4h2.3v.4zm-4.5 0h-2.3v-.4h2.3v.4zm-4.6 0h-2.3v-.4h2.3v.4zm-4.6 0h-2.3v-.4h2.3v.4zm-4.5 0h-2.3v-.4H66v.4zm-4.6 0h-2.3v-.4h2.3v.4zm-4.6 0h-2.3v-.4h2.3v.4zm-4.5 0H50v-.4h2.3v.4zm-4.6 0h-2.3v-.4h2.3v.4zm-4.6 0h-2.3v-.4h2.3v.4z"/><path class="st5" d="M62.3 90.1c-.1-.1-.2-.2-.3-.2h-5.5c-.1 0-.3.1-.4.2-.1.1-.1.2-.1.3v10.5c0 .1.1.2.1.3.1.1.1.1.2.1h5.9c.1 0 .1-.1.2-.1.1-.1.1-.2.1-.3V90.4c0-.1-.1-.2-.2-.3zm-1.1 9.5h-4v-1.5h4v1.5z"/><path class="st6" d="M55.9 95.7v5.2c0 .1.1.2.1.3.1 0 .1.1.2.1h6c.1 0 .1-.1.2-.1.1-.1.1-.2.1-.3v-5.2h-6.6zm5.3 3.9h-4v-1.5h4v1.5z"/><path class="st5" d="M93.9 90.1c-.1-.1-.2-.2-.3-.2H88c-.1 0-.3.1-.4.2-.1.1-.1.2-.1.3v10.5c0 .1.1.2.1.3 0 .1.1.1.2.1h5.9c.1 0 .1-.1.2-.1.1-.1.1-.2.1-.3V90.4c.1-.1 0-.2-.1-.3zm-1.1 9.5h-4v-1.5h4v1.5z"/><path class="st6" d="M87.5 95.7v5.2c0 .1.1.2.1.3 0 0 .1.1.2.1h5.9c.1 0 .1-.1.2-.1.1-.1.1-.2.1-.3v-5.2h-6.5zm5.3 3.9h-4v-1.5h4v1.5z"/><defs><circle id="SVGID_1_" cx="75" cy="75" r="75"/></defs><clipPath id="SVGID_2_"><use xlink:href="#SVGID_1_" overflow="visible"/></clipPath><g class="st7"><path class="st8" d="M81.6 53.5h6.2v10c0 .8-.3 1.6-.9 2.2-.6.6-1.4.9-2.2.9-.8 0-1.6-.3-2.2-.9-.6-.6-.9-1.4-.9-2.2v-10zm-6.5 0h6.2v10c0 .8-.3 1.6-.9 2.2-.6.6-1.4.9-2.2.9-.8 0-1.6-.3-2.2-.9-.6-.6-.9-1.4-.9-2.2v-10zm-6.5 0h6.2v10c0 .8-.3 1.6-.9 2.2-.6.6-1.4.9-2.2.9-.8 0-1.6-.3-2.2-.9-.6-.6-.9-1.4-.9-2.2v-10zm-6.6 0h6.2v8.4c0 .8-.3 1.6-.9 2.2-.6.6-1.4.9-2.2.9-.8 0-1.6-.3-2.2-.9-.6-.6-.9-1.4-.9-2.2v-8.4z"/><path class="st0" d="M66.6 29.6h19.1v7.7H66.6z"/><path class="st8" d="M87.8 36.4v17.2H62V41.1c0-.9.1-1.9.4-2.8.3-.9.7-1.8 1.3-2.5l2.9-4h16.6l4.6 4.6z"/><path class="st8" d="M94.8 45.1c0-.5-.1-1-.3-1.5s-.5-1-.9-1.3L83.2 31.8l-4.4 4.4 9.8 9.8v5.7c0 1.2.5 2.4 1.4 3.3.9.9 2.1 1.4 3.3 1.4h.5c.3 0 .5-.1.7-.3s.3-.6.3-.9V45.1z"/><path class="st4" d="M65 24.9h22v4.7H65z"/><path class="st9" d="M65 24.9h11v4.7H65z"/><path class="st1" d="M62-7h27.9v32H62z"/><path class="st2" d="M76-7h13.9v29.8H76z"/><ellipse class="st0" cx="66.4" cy="20.6" rx="1" ry="1"/><circle class="st0" cx="66.4" cy="16.2" r="1"/><circle class="st0" cx="66.4" cy="11.9" r="1"/></g></svg>