<svg id="Слой_1" data-name="Слой 1" xmlns="http://www.w3.org/2000/svg" viewBox="0 0 145.65 140"><defs><style>.cls-1{fill:#fff;opacity:.35}.cls-2{fill:#be1622}.cls-3{fill:#16050f}.cls-4{fill:#f6f6f6}.cls-5{fill:#ffea00}.cls-6{fill:#ededed}.cls-7{fill:#c6c6c6}.cls-8{fill:#ffc00f}.cls-9{fill:#b2b2b2}.cls-10{fill:#29235c}.cls-11{fill:#1d71b8}.cls-12{fill:#fdeacf}.cls-13{fill:#3c3c3b}.cls-14{fill:#352f2d}.cls-15{fill:#ccfef8;opacity:.5}.cls-16{fill:#d02142}.cls-17{fill:#fad9aa}.cls-18{fill:#7f938d}.cls-19{fill:#496058}.cls-20{fill:#cc2445}.cls-21{fill:#6e0f04}.cls-22{fill:#eedbb0}.cls-23{fill:#82142d}.cls-24{fill:#f2f2f2}</style></defs><title>service-item-1</title><circle id="Background_2" data-name="Background 2" class="cls-1" cx="72.83" cy="70" r="61.39"/><g id="Search_Optimization" data-name="Search Optimization"><g id="Arrow"><circle class="cls-2" cx="7.57" cy="58.44" r="7.57"/><circle class="cls-3" cx="7.55" cy="58.42" r="5.57"/><path class="cls-3" d="M145.66 0l-17.05 1.12 4.82 5.9-33.8 27.46-10.72-22.13-25.65 38.52-22.95-31.68L6.68 56.38l1.74 3.42 31.4-34.12 24.79 32.76 23.7-38.56L99.04 41.1 135.86 10l4.16 5.09L145.66 0z"/></g><g id="Page"><rect class="cls-4" x="25.01" y="24.09" width="101.34" height="88.87" rx="1.92" ry="1.92"/><path class="cls-5" d="M5498.78 334.09h-97.5a1.92 1.92 0 0 0-1.92 1.92v5.65h101.34V336a1.92 1.92 0 0 0-1.92-1.91z" transform="translate(-5374.35 -310)"/><circle class="cls-6" cx="120.86" cy="27.87" r="1.65"/><circle class="cls-6" cx="114.47" cy="27.87" r="1.65"/><circle class="cls-6" cx="108.08" cy="27.87" r="1.65"/><path class="cls-6" d="M5427.17 337.87a1.65 1.65 0 0 1-1.65 1.65h-22a1.65 1.65 0 0 1-1.65-1.65 1.65 1.65 0 0 1 1.65-1.65h22a1.65 1.65 0 0 1 1.65 1.65z" transform="translate(-5374.35 -310)"/><path class="cls-7" d="M31.88 39.45h87.34v29.37H31.88z"/><path class="cls-2" d="M31.88 68.82l14.21-13.63 4.16 4.46 15.03-10.53 12.78 9.85 12.95-14.34 10.07 11.35 13.39-15.19 4.74 12.58v15.45H31.88z"/><path class="cls-8" d="M31.88 68.82l7.71-15.67 7.62 11.73 7.97-5.73 9.03 5.83L81.9 51.02 93.96 64l10.48-16.49 14.77 21.31H31.88zm0 13.67h11.23v13.93H31.88z"/><path class="cls-2" d="M47.9 82.49h11.51v13.93H47.9z"/><path class="cls-9" d="M31.88 98.98h11.23v1.17H31.88zm0 1.59h11.23v1.17H31.88zm15.98-1.59h11.23v1.17H47.86zm0 1.59h11.23v1.17H47.86z"/><path class="cls-10" d="M54.73 70.52h41.24v3.92H54.73z"/><path class="cls-11" d="M56.4 75.4h37.88v2.24H56.4z"/><path class="cls-9" d="M69.75 82.49h49.46v12.65H69.75zm0 13.93h49.46v1.92H69.75zm0 3.2h49.46v1.92H69.75zm0 3.19h49.46v1.92H69.75z"/></g><g id="Magnify"><path class="cls-12" d="M134.12 110.26l4.3-22.62-15.05-14.3-4.07 8.73 2.41 32.97h12.96l-.55-4.78z"/><path class="cls-7" d="M5504.48 344a14.13 14.13 0 0 0-16.91 1.68 14.3 14.3 0 0 0-1.27 1.33 14.15 14.15 0 1 0 18.18-3.01z" transform="translate(-5374.35 -310)"/><path class="cls-13" transform="rotate(-.66 -24108.889 466777.379)" d="M5493.95 374.76h5.43v13.25h-5.43z"/><path class="cls-2" d="M5497.31 370.25a14.11 14.11 0 0 0 9.6-3.91l-14.14-18.19-9.62 10a14.15 14.15 0 0 0 14.16 12.1z" transform="translate(-5374.35 -310)"/><g id="Magnifiy"><path class="cls-14" d="M5477.14 356.55a19.79 19.79 0 1 0 19.56-20 19.79 19.79 0 0 0-19.56 20zm5.85-.28a14.15 14.15 0 1 1 14.31 14 14.15 14.15 0 0 1-14.3-14z" transform="translate(-5374.35 -310)"/><path class="cls-15" d="M5490.93 353.88a1.39 1.39 0 0 1-.37 1.93l-.51.34a1.39 1.39 0 0 1-1.93-.37l-3.8-5.63a14.15 14.15 0 0 1 2-3.12zm7.74 2.71l-.79.53a2.15 2.15 0 0 1-3-.58l-7.33-10.86a14.14 14.14 0 0 1 4.45-2.78l7.22 10.7a2.15 2.15 0 0 1-.55 2.99z" transform="translate(-5374.35 -310)"/></g><path class="cls-16" d="M5491.62 415.62a5.17 5.17 0 1 0 10.31-.12l-.37-33.14-10.31.12z" transform="translate(-5374.35 -310)"/><path class="cls-17" d="M5499.88 408.59a3.38 3.38 0 0 1-4.46 1.69l-6.15-2.78a3.38 3.38 0 0 1-1.69-4.47 3.38 3.38 0 0 1 4.47-1.69l6.15 2.78a3.38 3.38 0 0 1 1.69 4.47z" transform="translate(-5374.35 -310)"/><path class="cls-17" d="M5500.27 401.89a3.46 3.46 0 0 1-4.57 1.73l-6.3-2.85a3.46 3.46 0 0 1-1.73-4.57 3.45 3.45 0 0 1 4.57-1.73l6.3 2.84a3.46 3.46 0 0 1 1.73 4.57zm-3.05 11.73a2.59 2.59 0 0 1-3.43 1.29l-4.72-2.13a2.59 2.59 0 0 1-1.29-3.43 2.59 2.59 0 0 1 3.43-1.29l4.72 2.13a2.59 2.59 0 0 1 1.29 3.43z" transform="translate(-5374.35 -310)"/><path class="cls-12" d="M5497.25 423.77l-4.76-18 2-10.3s-5.83 2.06-8.68.32c-3.34-2-2.56-4.62-.69-5.31s5.71-2 7.87-4.13 4.33-.79 5.9.79 8.86 11.12 8.86 11.12l.29 25.48h-10.82z" transform="translate(-5374.35 -310)"/><path class="cls-18" d="M130.72 116.67h-13.79V140h22.29v-23.33h-8.5z"/><path class="cls-6" d="M118.15 113.77h19.18v2.91h-19.18z"/><path class="cls-19" d="M116.93 116.67V140h6.79l7-23.33h-13.79z"/></g><g id="Gear"><path class="cls-3" d="M5407.75 444.94a21.47 21.47 0 0 0 3.59-2.52l-1.11-4.76a16.94 16.94 0 0 0 1.58-2.1l4.88-.25a21.35 21.35 0 0 0 1.42-4.15l-3.7-3.2a17.22 17.22 0 0 0 0-2.62l3.81-3.07a21.1 21.1 0 0 0-1.28-4.19l-4.88-.41c-.22-.37-.45-.74-.71-1.11s-.52-.71-.8-1l1.28-4.73a21 21 0 0 0-3.5-2.63l-4.18 2.53a17.26 17.26 0 0 0-2.48-.85l-1.74-4.57a21.39 21.39 0 0 0-4.38-.08l-1.9 4.5a17 17 0 0 0-2.51.77l-4.1-2.67a21.45 21.45 0 0 0-3.59 2.52l1.11 4.76a16.86 16.86 0 0 0-1.58 2.09l-4.88.25a21.32 21.32 0 0 0-1.42 4.15l3.7 3.2a17.29 17.29 0 0 0 0 2.62l-3.8 3.07a21 21 0 0 0 1.28 4.19l4.88.41c.22.37.45.74.71 1.11s.52.71.8 1l-1.28 4.72a21.14 21.14 0 0 0 3.5 2.63l4.18-2.53a17.1 17.1 0 0 0 2.48.85l1.74 4.57a21.33 21.33 0 0 0 4.38.08l1.9-4.5a17 17 0 0 0 2.51-.77z" transform="translate(-5374.35 -310)"/><circle class="cls-20" cx="5397.83" cy="426.38" r="7.24" transform="rotate(-38.59 2268.564 7946.712)"/><g id="Gear-2" data-name="Gear"><path class="cls-21" d="M5444 444.16a16.52 16.52 0 0 0 2.61-2.15l-1.14-3.59a13 13 0 0 0 1.09-1.71l3.74-.49a16.37 16.37 0 0 0 .84-3.27l-3-2.23a13.25 13.25 0 0 0-.12-2l2.74-2.59a16.24 16.24 0 0 0-1.24-3.14h-3.77c-.19-.27-.39-.54-.61-.81s-.44-.51-.68-.75l.7-3.71a16.22 16.22 0 0 0-2.85-1.81l-3.06 2.2a13.25 13.25 0 0 0-2-.5l-1.62-3.4a16.5 16.5 0 0 0-3.37.2L5431 418a13.1 13.1 0 0 0-1.88.74l-3.31-1.8a16.61 16.61 0 0 0-2.61 2.15l1.14 3.59a13 13 0 0 0-1.09 1.7l-3.74.49a16.42 16.42 0 0 0-.84 3.27l3 2.23a13.24 13.24 0 0 0 .12 2l-2.74 2.59a16.29 16.29 0 0 0 1.24 3.14h3.77c.19.27.39.54.61.81s.44.51.68.75l-.7 3.71a16.29 16.29 0 0 0 2.85 1.81l3.06-2.2a13.16 13.16 0 0 0 2 .5l1.62 3.4a16.35 16.35 0 0 0 3.37-.2l1.19-3.57a13 13 0 0 0 1.88-.74z" transform="translate(-5374.35 -310)"/><circle class="cls-22" cx="5434.89" cy="430.53" r="6.68" transform="rotate(-39.53 2315.969 7753.873)"/></g></g><g id="Search_Bar" data-name="Search Bar"><path class="cls-6" d="M5394.16 414.3a4.22 4.22 0 0 0-4.22 4.22v6.33a4.22 4.22 0 0 0 4.22 4.22h70.5V414.3h-70.5z" transform="translate(-5374.35 -310)"/><path d="M5397.41 423.06a1.62 1.62 0 0 0 .75-.13.45.45 0 0 0 .24-.42.56.56 0 0 0-.24-.48 3.79 3.79 0 0 0-.79-.4l-.51-.22a1.78 1.78 0 0 1-.42-.26 1.14 1.14 0 0 1-.28-.36 1.29 1.29 0 0 1 .34-1.49 1.92 1.92 0 0 1 1.23-.36h.39l.36.05.3.07.2.06-.15.71a2.07 2.07 0 0 0-.42-.15 2.69 2.69 0 0 0-.68-.08 1.26 1.26 0 0 0-.6.14.45.45 0 0 0-.26.43.58.58 0 0 0 .06.26.61.61 0 0 0 .18.21 1.44 1.44 0 0 0 .3.17l.42.17.58.24a1.84 1.84 0 0 1 .44.28 1.07 1.07 0 0 1 .28.38 1.4 1.4 0 0 1 .1.55 1.1 1.1 0 0 1-.47 1 2.35 2.35 0 0 1-1.35.33 3.52 3.52 0 0 1-1-.1l-.47-.15.15-.71.45.16a2.6 2.6 0 0 0 .87.1zm2.59-1.69a2.93 2.93 0 0 1 .18-1.06 2.22 2.22 0 0 1 .47-.76 1.91 1.91 0 0 1 .67-.45 2.1 2.1 0 0 1 .78-.15 1.77 1.77 0 0 1 1.42.58 2.66 2.66 0 0 1 .49 1.76v.14a1.24 1.24 0 0 1 0 .15h-3.14a1.68 1.68 0 0 0 .42 1.09 1.52 1.52 0 0 0 1.13.37 3 3 0 0 0 .73-.07 2.62 2.62 0 0 0 .45-.15l.11.69a2.44 2.44 0 0 1-.53.17 3.75 3.75 0 0 1-.85.09 2.71 2.71 0 0 1-1-.18 1.94 1.94 0 0 1-.72-.5 2 2 0 0 1-.42-.75 3.2 3.2 0 0 1-.19-.97zm3.15-.45a1.38 1.38 0 0 0-.28-.91 1 1 0 0 0-.79-.36 1.08 1.08 0 0 0-.5.11 1.18 1.18 0 0 0-.37.29 1.32 1.32 0 0 0-.23.41 2 2 0 0 0-.11.47h2.28zm3.55-1.97a2.38 2.38 0 0 1 .83.13 1.35 1.35 0 0 1 .55.36 1.37 1.37 0 0 1 .3.56 2.7 2.7 0 0 1 .09.71v2.87h-.3l-.43.06h-1.07a3 3 0 0 1-.72-.08 1.6 1.6 0 0 1-.57-.25 1.15 1.15 0 0 1-.38-.31 1.59 1.59 0 0 1-.13-.68 1.31 1.31 0 0 1 .15-.65 1.24 1.24 0 0 1 .42-.44 2 2 0 0 1 .62-.25 3.37 3.37 0 0 1 .74-.08h.84v-.23a1.85 1.85 0 0 0 0-.4.93.93 0 0 0-.16-.35.81.81 0 0 0-.31-.25 1.23 1.23 0 0 0-.52-.09 3.88 3.88 0 0 0-.71.06 2.5 2.5 0 0 0-.46.12l-.1-.68a2.52 2.52 0 0 1 .53-.14 4.57 4.57 0 0 1 .79.01zm.07 4.12h.52a2.22 2.22 0 0 0 .38 0v-1.37a1 1 0 0 0-.29-.07 3.2 3.2 0 0 0-.48 0h-.39a1.23 1.23 0 0 0-.38.11.82.82 0 0 0-.29.23.6.6 0 0 0-.11.38.66.66 0 0 0 .28.61 1.47 1.47 0 0 0 .76.1zm4.76-4.07h.91l-.14.72-.32-.08a2.83 2.83 0 0 0-.58 0 2.16 2.16 0 0 0-.45 0l-.3.07v3.86h-.82v-4.4a5.63 5.63 0 0 1 .72-.2 4.67 4.67 0 0 1 .98.03zm3.71 4.76a2.5 2.5 0 0 1-1-.18 2 2 0 0 1-.71-.49 2.06 2.06 0 0 1-.43-.76 3.13 3.13 0 0 1-.14-1 2.92 2.92 0 0 1 .15-1 2.29 2.29 0 0 1 .44-.76 2 2 0 0 1 .69-.5 2.24 2.24 0 0 1 .91-.18 3.65 3.65 0 0 1 .62.05 2.84 2.84 0 0 1 .59.17l-.19.7a2 2 0 0 0-.43-.14 2.43 2.43 0 0 0-.52-.05 1.31 1.31 0 0 0-1.06.43 1.91 1.91 0 0 0-.37 1.26 2.59 2.59 0 0 0 .08.68 1.41 1.41 0 0 0 .27.53 1.18 1.18 0 0 0 .46.34 1.77 1.77 0 0 0 .69.12 2.62 2.62 0 0 0 .59-.06 2.16 2.16 0 0 0 .41-.13l.12.69a.86.86 0 0 1-.2.08l-.3.07-.36.05zm2.11-.11v-6.71l.82-.14v2.35a2.77 2.77 0 0 1 .49-.14 2.83 2.83 0 0 1 .52 0 2.33 2.33 0 0 1 .91.15 1.42 1.42 0 0 1 .58.43 1.67 1.67 0 0 1 .3.67 3.88 3.88 0 0 1 .09.86v2.58h-.82v-2.4a3.93 3.93 0 0 0-.06-.72 1.23 1.23 0 0 0-.18-.58.75.75 0 0 0-.35-.27 1.55 1.55 0 0 0-.55-.08h-.92v3.82h-.82zm6.01-.47a.6.6 0 0 1-.16.42.62.62 0 0 1-.87 0 .62.62 0 0 1 0-.83.62.62 0 0 1 .87 0 .6.6 0 0 1 .16.41zm2.17 0a.6.6 0 0 1-.16.42.62.62 0 0 1-.87 0 .62.62 0 0 1 0-.83.62.62 0 0 1 .87 0 .6.6 0 0 1 .16.41zm2.18 0a.6.6 0 0 1-.16.42.62.62 0 0 1-.87 0 .62.62 0 0 1 0-.83.62.62 0 0 1 .87 0 .6.6 0 0 1 .16.41z" transform="translate(-5374.35 -310)"/><path class="cls-23" d="M5484.65 424.86v-6.33a4.22 4.22 0 0 0-4.22-4.22h-15.77v14.78h15.77a4.22 4.22 0 0 0 4.22-4.23z" transform="translate(-5374.35 -310)"/><path class="cls-24" d="M5474.8 416.78a3.67 3.67 0 1 0-.73 5.55l.82.9-.37.34 3.14 3.38a1 1 0 1 0 1.41-1.29l-3.14-3.38-.3.27-.8-.88a3.67 3.67 0 0 0-.03-4.89zm-4.65 4.18a2.62 2.62 0 1 1 3.71.18 2.62 2.62 0 0 1-3.72-.14z" transform="translate(-5374.35 -310)"/></g></g></svg>