<svg id="Слой_1" xmlns="http://www.w3.org/2000/svg" viewBox="0 0 150 126.7"><style>.st0{fill:#f18825}.st1{fill:#fff}.st2{fill:#56bfce}.st3{fill-rule:evenodd;clip-rule:evenodd;fill:#f3f9fe}.st4{fill:#0db3b8}.st5{fill:#cee2f2}.st6{fill:#ed6d43}.st7{fill:#e74919}.st8{fill:#2a455e}.st9{fill:#e1effa}.st10{fill:#21374e}.st11{fill:#b8d1e6}.st12{fill:#f3f9fe}.st13{fill:#51677f}</style><circle class="st0" cx="63.3" cy="63.3" r="63.3"/><path class="st1" d="M13 61.9c.3 0 .5 0 .7.1 0-3.2 2.6-5.9 5.9-5.9 2.7 0 5 1.9 5.7 4.4.3-.1.6-.1.9-.1 2.4 0 4.3 1.9 4.3 4.3S28.6 69 26.2 69H13c-1.9 0-3.5-1.6-3.5-3.5 0-2 1.6-3.6 3.5-3.6zm59.2-38.1v-.2c0-4.8 3.9-8.6 8.6-8.6 3.9 0 7.2 2.6 8.3 6.1.7-.3 1.4-.5 2.1-.5 2.8 0 5 2.3 5 5 0 .6-.1 1.3-.3 1.8h.2c1.8 0 3.2 1.4 3.2 3.2 0 1.8-1.4 3.2-3.2 3.2H72.2c-2.8 0-5-2.3-5-5-.1-2.8 2.2-5 5-5z"/><circle class="st2" cx="63.3" cy="63.3" r="36.1"/><path class="st3" d="M54.9 93.5c.1 0 .5-.1.6-.1-.3-.2-.9-.2-1.2-.4 0 0-1.1-.7-.8-.1.1.1.3 0 .4.1-.1.2-.2.1 0 .2 0 0-1.2-.7 0-.7-.9-.8.1-.5-.2-1-.2-.3.7-.7.2-.9-.2-.1-.5-.1-.7-.3-.3-.2 0-.7.3-.6 0 0 .2-.8.3-.9-.1 0-.7-.8-.6-1 .2-.2 1 .5 1.2 0 .1-.2-.3-.7-.3-.9.4 0 2.8.1 2.4-1.1-.1-.4-1.2-1-1.1-1.3.4.1 1 .6 1.3.4.3-.2.6.2.9-.2.1-.1.6-.7.4-.8-.2 0-.3.1-.3.3-.2-.3.1-.5.3-.6 0 .1.1.1.1.2.2-.3 1.3-1.8 1.4-1.8.6-.7.1-1.6.7-2.1.5-.5 1.1-.8 1.8-1.1.2-.1.9-.5 1.1-.4 1.2.4 1.1-1.1 1.8-1.7.8-.7.2-4 .8-4.3.3-.1 1.4-1.4 1.9-2 .5-.6.6-1.3.4-2-.3-1.1-.6-.5-1.4-.9-.6-.4-1.1-1.1-1.9-1.2-.5-.1-.9.1-1.4-.1-.2-.1-.7-.4-.9-.1l-.4.2c-.1 0 0-.6-.2-.7-.2-.2-1-.5-1.3-.5-.7-.2-.8.6-1-.3-.6-.2-1.1-.8-1-1 .1-.1-.9-2-1-1.8 0-.6-2-1.5-2.5-1.1-.5.3-1.3-.3-1.6-.6-.3-.3-.3-.7-.8-.9-.2-.1-.6-.1-.5-.4.1-.4-1-.5-1.1-.9.2 0 .3 0 .4-.1-.4.1-.9-.2-1.3.2-.6.5-1-.2-1.6-.1-.8.2-.3-.1-.8-.5.2.1-1-.5-.7-.5-.3 0 0 .4-.2.5-.4.2-.8.3-.5.8.5 1-1 .5-.3-.1.1-.1.2-1.4.3-1.3-.2-.1-1.5.8-1.7 1-.4-.7-1.2 1.7-1.4 1.7-.1-.6-.7-.8-1.2-1-.4-.2-.9.8-1.4.3-1-1-.6-2.6-.1-3.7.2-.5-1.8-.7-2-.5-.5.4.1-.8.1-.8.1-.5.2-.8.4-.8.1-.3.9-1.6.8-1.8-.3-.7-1.6.5-1.7.9-.1.3-.4.5-.5.8-.1.3-.4-.1-.6.1-.5.3-1.3.1-1.2-.6.1-1-.2-2.9.8-3.5.3-.2.4-1.2.8-1.5 0 0 1.1-.7 1-.8.2.2 1-.2 1.1.1.1.2.6.4.8.3l.1-.4s-.3 0-.3-.2c0-.1 1.1 0 1.1 0 .5 0 .8.4 1.2.2.6-.4.2 2.1.4 2.3.1.1 0 .4.3.4s.4-3.2 1.2-3.9c.6-.5 1.3-.9 1.9-1.3.2-.1.8-.4.9-.6 0-.1-.1-.2-.2-.1 0-.2.3-.1.4-.3.1-.2-.2-.3-.1-.3 0 0 .2-.4.1-.4.3.1-.1-.3-.1-.4.4.2.3-.5.7-.5-.3.1-.2.5-.2.7.1.5.5-.6.4-.6.4-.2 1-.5 1.5-.8h-.3c.4-.2.9-.1 1.4-.3 0-.4.2-.9.7-1 .8-.1 1.7-.6 2.4-.9-.1.3.1.1.3.2-.3-.7-1.6 1.2-1 .8.5-.3 2.4-.6 2.7-1.1l-.1-.4c-.5 0-.5.6-1.1.6-1 0-.4-.6-.6-.9-.2 0-.3 0-.5-.1.1 0 1.4-.3.7-.5-1.1-.2-1.8 1-2.7.9.7-.4 1.6-1.3 2.4-1.4.9-.1 2 .3 2.8-.2.7-.5 1.1-.1 1.5-.9.1-.2-.5-.5-.7-.5.1-.1.2 0 .3-.1-1-.4-1.2-.9-1.3-2.1-.5.4-2.2 1.2-1.3-.1-.3-.1-1.4-1-1.8-.4-.2.3-.5.7-.8.9-.7.3-.1.3-.3.7-.4.8-1.3.7-1.8 1.3-.3.4-.4.7-.8.9-.4.2-.5-.3-.3-.6.1.1.3.2.4.1 0-.2-.2-.1-.3-.1.1-.2.3-.4.5-.6-.1 0-1-.2-1-.4.1-.5-.6-.2-.7-.4.5-.7.5-1 1.5-1.5.4-.2 2.3-1.2 2.7-.9 0 .2-.3.2-.4.3.3.1 1.1.2 1.4 0-.1 0-.4-.6-.2-.7h.6c.3-.1.7-.1.8-.4.2-.3 1.2-.6 1.4-.5 1.3.8-1.8 1.6-1.9 1.5.1.2.9-.2 1.1.4.1.1 1 .5 1.1.3.1-.1-.3-.4-.3-.5 1 .5 1 .2.8-.4-.2-.7.6 0 .6.1.2.1.9-.3 1-.4-.2-.2-.7-.2-.9-.4-.2-.2.5-.2.3-.5-.3-.3-.8-.2-.6-.7-.2 0-.3 0-.5.1 0 .1.1 0 .2.1-.2.1-.4.1-.6.1.1-.1.2-.1.2-.3-.5-.1-.8.3-1.3.4.1-.2.3-.2.5-.4-.5.1-1 .3-1.4.6l.2.2c-.4.3-.9.4-1.4.7.1-.3.4-.2.5-.5-.2 0-.3 0-.5.1.2 0 .8-.6.9-.7-.8-.1-1.2 1-1.9.8.2-.2.5-.1.6-.4-.3 0-1.4.8-1.6.4 0 0 2-.8 2.2-1.1-.1 0-.3.1-.4 0 .1-.1.3-.1.4-.2-.7 0-2.6.8-2.5 1.2-.3.2-.5.3-.8.1.1-.2.5-.2.2-.5-.6.2-1.2.5-1.9.8-1.4.6-2.8 1.4-4.1 2.2-2.2 1.3-4 2.9-5.7 4.7-.9 1-4.6 5.2-4.6 6.1 0 .6-.4 1.2-.6 1.8-.2.5-.2 1.1-.5 1.6-.5.9-.3 2-.5 3.1.3-.2.9-5.1 1.4-5 .1 0-.3 2-.4 2.3-.4 1 .1 2.3-.2 3.4 0 .1-.2.7-.2.8-.5.4.1 1 .1 1.4 0 .2 1.3 1.4 1.5 1.5.5.3.6-.2 1.1-.1.4.1.6.9.8 1.2.3.5 1.5.4 1.7.6.1.2 0 1.1.6 1.2 0-.1 0-.4.1-.4.2-.1.5.5.4.6-.2 0-.3 0-.5-.2 0 .1-.1 1.3.3 1v-.2c.4.2.4.9.7 1 .4.1.8.7 1.1.8.3.2.2-1 .8-1.1.5 0 .7 1.1.9 1.4.2.4-.3 1.4 0 1.7.3.3-.8 1.1-.8 1.5 0 .3-.6.5-.6.6 0 .3-.1.7-.2.9-.3.7-.1.8.3 1.2 0 0-.9 1.8-.4 2.3.8.7 1.9 2.3 2.2 3.4.5 1.4 1.4 2.3 2.7 3 1.1.6 1.9 1.6 1.9 2.9 0 .8-.1 1.8.3 2.5.2.5-.2 1.4.1 1.8.2.3-.1.5.1.7.1.3.4.8.4 1.1v1.8c0 .2-.2.5-.1.6.1.2.9 2 .9 2.6 0 .1.6 0 .1-.6.6-.4.5 1.1.5 1.1-.6-.2-.2 0-.2.7 0 .4-.1.2.2.3.6.1 0 .5.2.8.4.6 1.1 1.2 1.5 1.6 1.1-.3 2.3-.4 3.2-.3.1.1-.2 0 0 0zm2.3-58.9c-.2.2-.4.2-.6.3.1-.2.4-.2.6-.3zm-1.9-.1c.1 0 .3 0 .3.1s-.8.1-.9.3c.2-.3.5-.3.6-.4.1.1-.1.1 0 0zm-1.8 1.3c.1.1-.3 0 0 0 0 0-.1 0 0 0zm-1.1-2c.1-.1.1-.1.2 0-.1.2-.1.1-.2 0 0 0 0 .1 0 0zm-1 3.1c-.3 0 .3 0 0 0-.1 0 0 0 0 0zm.3-1.2c-1 .9-.2 0-.5.3-.1 0 .5-.3.5-.3-.1.1-.2.1 0 0zm-.4-1.1c-.2.2-.2.2-.4.2.1-.1.3-.1.4-.2zm4.5-3.5h-.2c.3-.3.2 0 .2 0-.1 0 .1 0 0 0zm.7-.5c-.1.1-.3.1-.4.1.2-.3.2-.3.4-.1zm-4 .3c.1-.1.2-.1.3-.1.1.1-.7.2-.3.1 0-.1-.1 0 0 0zm-.2-.2c.1.1.1.1 0 .2-.1-.1-.1-.1 0-.2 0 0-.1 0 0 0zm-5.3 9s-1.6.6-1.5.2c0 .1.5-.4.4-.4.1-.1 1.2-.1 1.5-.1-.1.2-.2.2-.4.3-.3.1.2-.1 0 0zm1.3-.8c1.3.1-.8.5-1 .3.3-.2.6-.3 1-.3.1 0-.4 0 0 0zm-.2-8.1c.3-.2.7-.4 1.2-.5-.4.3-.8.4-1.2.5zm0 7.1c-.1.1-.1.1-.2 0 .2-.1.2-.1.2 0 .1 0 0-.1 0 0zm-.3.7c-.1 0-.2 0 0 0 0 0-.1 0 0 0zm-.4-.6c.5.2.2 1-.2.4 0 .3-.6.9-.9 1 .1-.1.2-.3.1-.4-.1-.1-.3.1-.4.1 0 .2.9-1.4.2-.9-.3.2-1.9 1.9-2 1.8-.2-.2.7-1.4.8-1.5.5-.5 1.7-.9 2.4-.5zm-.9-6.1c.1 0 .6-.4.7-.3.2.2-.8.5-.9.5 0-.1.1-.2.2-.2.1-.1-.1 0 0 0zm.1 4.3s-.2.4-.3.3c-.2-.2.2-.5.3-.3-.1.1 0-.1 0 0zm-1.2-3.3c.1 0 .9-.5.9-.3.1 0-1 .3-.9.3zm-.2.8c-.1.1-.1.1-.2.1 0 0 .1 0 .2-.1zm-.6 2.1c.1-.1.4-.5.3-.7.1.1-.5-.1-.2-.2.1 0 .8-.4.9-.3.2.2-.8 1.3-1 1.4-.1-.1-.1-.2 0-.2.2-.1-.1 0 0 0zm.6 1.3c.7-.2 1-.6 1.4-.1.2.2.1.7-.3.6.1 0-1.2-.1-.9-.2-.3.2-.8.3-1.1.1.3-.1.6-.3.9-.4.2 0-.3.1 0 0zm-1-1.3c.1.2 0 .3-.2.3.1-.2.1-.2.2-.3zM33.8 51.5c-.3 0 .2 0 0 0-.1 0 0 0 0 0zm4.2 3c-.1.1.2 0 0 0 0 .1 0 0 0 0zm10.2 3.4c-.2 0 .2 0 0 0zm1.7 30c-.3-.1.1-.3 0 0-.1 0 0 0 0 0zm.7-15c-.1-.1.1.1 0 0zm.1 9.3c-.2.1.2 0 0 0zm1 10.1c-.1-.1-.1-.1 0-.1s.1 0 0 .1c-.1 0 .1 0 0 0zm1.3.6c-.1 0-.1-.1 0-.2.2 0 .1.1 0 .2-.1 0 0-.1 0 0zm-2.8-3.8s0 .1 0 0c0 0 .1 0 0 0zM53.5 29zm-12.3 5.8zm.3-.3zm57.4 22.4c-.7-2.6-1.2-5.2-2.3-7.7-1.3-3-3-5.8-5-8.4-1.9-2.4-4.1-4.6-6.6-6.4-1.2-.9-2.4-1.7-3.7-2.5-.6-.4-1.3-.7-1.9-1-.3-.1-1.3-.4-1.4-.6 0 .1.6.4.6.5-.4-.1-1.4-.5-1.4-.6 0 0 .1 0 .1-.1-.6-.4-2.7-1.1-3.1-.6.1-.1 1.5 1.5 1.5 1.8.1.6 1.1 1.3 1.7 1.5.9.3.2-.1.6-.3.2-.1.4.4.7.3-.1-.1-.1-.2-.2-.4-.1 0 1.6 1.7 1.8 1.3-.2-.5-.5-1-.9-1.4-.4-.4-1.1-.4-1.5-.8-.2-.2-1-.8-1.1-1.1 1.1 0 2.3 2.3 3.4 1.4-.2-.1-.3-.2-.4-.3.2.1 1.1.3.8.7-.9-.2.7.7.8.8-.2 0-.3-.1-.4-.1.1.3.9.6 1 1.1-.5.1-.3-.3-.6.1-.1.1-.6.1-.8.1-.6 0-1.3-1-1.7-1.3.2.6.5.8 1.1 1.2.3.2-.4.3-.4.5l.2.1-.2-.1c.1 0-.1 1-.1 1 .5.6-.7.4-.7.4.1.1.3.2.3.4-.3 0-.6 0-.9.1.5.1 3.1 1.3 2.5 2.2-.2.3-1.9-.1-2.3-.1-.7 0 0 .6 0 .7.1.5.5.7.5 1.3 0 .4.4.4.5.8.1.3 0 .3.4.4.6.1.6 0 1.1.4.3.3.5-.3.9-.3 1 0 .2-.3.6-.4.6-.2-.2-1.1-.1-1.3 0-.3 0-.5.3-.6.5-.1-.1-.7-.2-.8-.1-.4 1.4.4 1.3-.7.9.3 1.8 1.1 2.6 1.5.5.3 1 .6 1.3 1 .4.5-.6.3-.7.5-.1.2.9.6 1.1.6 0-.1-.1-.7-.1-.7 0-.4-.6-.8-.6-1.1.2 0 .3.1.5.2-.5-.6-1.4-.7-1.9-1.2-.4-.3-.8-.5-1.2-.8 0 0-.6-.8-.2-.6.7.2 1.4.9 2.1 1.3.6.3.7.5 1.1 1 .2.2 1 1.2 1.2 1.2 0 0 .7.6 1 .7-.1-.3-.2-.7-.4-.9-.2-.3-1-.5-1-1 .2 0 .2-.2.6-.2-.2 0 .3-.3.2-.3-.7-.4-1.8-1.7-2-2.5.2 0 .3.3.5.1-.1-.1-.1-.3-.1-.4.1.1.8.7.6.8-.2 0-.4-.1-.5-.2.1.4.5.4.6.6 0-.1-.1-.2 0-.3.6.3 1.9 1.2 2.1 1.9-.3 0-.8-.5-1-.4-.1.1-.1.3 0 .4-.1 0-.2 0-.2.1.1.1.2.2.2.3-.4.3-.5.3-.6.3.1.3 1.9 2.1 2 1.9 0-.1-.1-.2 0-.3.1-.1.4.4.5.3.1-.1-.1-.2 0-.3.3-.1 1.4 2 1.5 2.3.5 1 .2.4-.2.5-.1.1-.1.2-.1.3-.6-.1-1.3-.5-1.9-.9-.8-.6.3 1.6-.2 1.3-.3-.2-.4-.4-.8-.4-.5 0-.6-.6-1.1-.7-.4-.1-1.9-.3-1.7-.9.2-.6-.6-1.1-.8-1.3-.1-.1-1.8.1-2.1.2-.5.1-1.2.3-1.4.7-.4.8-1.5-.3-1.9-.1-.2.1 0 .7-.1.9-.2.3-.6.3-.7.7-.2.7.3 1.2.1 1.9-.2.5-1.1.7-1.2 1.1 0 .2 0 .5-.2.6-.4.2 0 .8-.3 1.1-1.5 1.5.5 3 .1 4.6-.2.9-.3 1.1.1 1.9.1.2 0 1.6.8 1.1.1.8 1.2 1 1.4 1.8.2 1 1.2 1.4 1.9 1.9.3.2.5.5.9.7.6.3 1-.2 1.6-.3.5-.1 1-.1 1.5.1.3.1 2.3-1.3 2.9-1.1.4.2.4.7.6 1.1.3.5.8-.2 1.2 0 .7.3.9 2.8.3 3.2-.4.3.6 1.7.7 2 .4.8.7 2.1.6 3-.1.7.1 1.8-.3 2.4-.4.6-.6 1.3-.9 1.9-.8 1.8 0 3.8-.7 5.6-.4.9-.4 1.9-.6 2.9-.2.6-.9 1.5-.6 2.2.5-.4 1.2-.4 1.7-.6 1.1-.5 1.6-1.8 2.4-2.6.4-.4.7-1 .9-1.5.2-.5.7-.8.9-1.3.5-1.3 1-2.5 1.6-3.8 1.1-2.7 1.3-5.3 1.7-8.3.4-2.9.5-5.9-.1-8.9zm-2.7-7.2c-.1-.4-2.1-3.2-1.8-3.3.3-.2 4.4 7.1 3.9 8.3-.7-1.8-1.4-3.4-2.1-5-.1 0 .1.3 0 0zm1.7 12.9c-.1-.2 0-.4.1-.6.1.2 0 .4-.1.6zm-.2 1.1c0-.1 0-.2.1-.3 0 .1 0 .2-.1.3zm-.7 9.4c-.1 0-.1.1-.2.1s.2-.2.3-.2c-.1 0-.1 0-.1.1s0-.1 0 0zm.1-3.8c0-.3 0-.4.4-.6-.1.2-.3.3-.4.6zm.4-1.8c0-.6 0-1.4.1-2 0 1.1.1 2.2 0 3.2-.1-.2-.1-.9-.1-1.2 0-.2 0 .2 0 0zm.6 2c0 .6-.1 2.2-.5 2.6 0-1 .4-1.9.4-2.8.1.1.1.2.1.2 0 .1 0 0 0 0zm.4-5.9c-.2.7 0 .9-.4 1.3 0-.5-.2-1.5.3-1.8.1.2.2.3.1.5 0 .3.1-.2 0 0zM75.8 97.2c.1.1-4.5 1.4-5 1.5-1.9.4-3.8.7-5.8.8-3.7.2-7.6-.2-11.2-1.2.5 0 1 .3 1.5.2-.4-.3-1-.2-1.4-.5 1.5.2 2.9.1 4.3.3-.1-.2-1.4-.5-1.4-.6.2 0 1.1 0 1.2-.1.5-.3-.7-.3-.6-.6 0-.1.4 0 .5-.1.2-.2 0-.4.1-.5.1-.1 1.9-.4 2-.3-.2.1-.5 0-.4.3-.2 0-.7 0-.8.2 0-.1.6.8.6.8.2.3.9.5 1 .9.1.7 3.5.6 4.1.5 1.3-.1 2.5-.6 3.7-.8.7-.1 1.5-.3 2.3-.4.4 0 1.5-.4 1.8-.4.2.7 2.9-.1 3.5 0 .1 0-.1 0 0 0zm20.9-20c.1-.4.3-.8.4-1.1-.1.4-.3.8-.4 1.1zm.6-1.5s0-.1.1-.1l-.1.1zM57.7 28.4h-.6c.1-.1.7-.1.4-.3.8-.5 2.6-.6 3.5-.5 1.1.1 2.2-.2 3.2 0 .4.1.8.1 1.2.1.4 0-.1.4.4.5.2 0 .7.6 1 .5 0 .4-.2.1-.1.5 0 .1.5.3.5.4 0 .1-1.2 0-1.2 0-.1 0 0 .2.1.2.2.1.8 0 1 0-.6.5-1.5.5-2.2.9-.4.3-1 .2-1.5.4 0 .5-.4 1-.7 1.5-.2.3-1.7-.4-1.9-.6-.3-.4-1.1-1.5-.3-1.8 1-.4 0-.1-.3-.3.2-.3.5-.2.9-.2-.2-.3-.4-.3-.7-.2-.1-.3.4-.5 0-.9-.2-.1-1.3 0-1.3-.2-.1-.5 1.3-.2 1.5-.6-.8-.2-1.9.8-2.9.6-.2 0 .2.1 0 0zm19.1 6.9c.2 0-.2-.5-.3-.6h.3c-.1-.2-1.1-.8-1.2-.8-.4.2-.9-.9-.9-1 .7-.1 1.1.6 1.7.9.5.3 2.4 1.2 2.5 1.7 0 .3-1.4.2-1.6.5-.2-.4.4-.4.3-.5-.1-.2-.8-.2-.8-.2-.1 0 .2 0 0 0zm-19.3.5c-.1.1-1.4 1.3-1.3 1.4 0 .1 1.3 0 1.6.2 0 .1-.2.1-.2.2.2 0 .7-.3.8-.2v.2c.6.6.5-.7.5-.7-.4-.1.1-.6-.6-.4l-.7-.2c-.1-.1.6-.6.6-.7-.5 0-.5.1-.7.2-.2.2.1 0 0 0zm1.3 1.4s-.1 0 0 0zm-.3 0s.3-.1.1 0c0 0-.2.1-.1 0 0-.1-.1 0 0 0zm-.9-1.5zm-1.2 1.1c.1 0 .1 0 0 0 .1.1-.1.1 0 0 .1 0 0 0 0 0zM43.9 51.9c-.4 0 .2-.3.2-.4-.2-.5-1.9-.7-2-1.1.1 0 .1-.1.1-.1-.6-.2-.8.5-1.4.4 1.1-1.8 3.7.3 4.7 1.1-.5 0-1.1 0-1.6.1-.1 0 .3 0 0 0zm1.3 1c-.3-.1.9-.1 1-.2-.2-.3 0-.5-.5-.7.4-.5 1.7.1 2.1.3 0 .1-.1 0-.2.1 0 0 .9.7.3.5-.6-.3-1 .1-1.4.4-.2-.6-.8-.2-1.3-.4 0-.1.1 0 0 0zm30.6-18.3c.6.6-.3 1.1-.8.7-.2-.2-.1-.7-.6-.9.1 0 .3-.1.4-.1-.2-.8.9.1 1 .3.2.1 0-.1 0 0zm-8-3.9c0-.1.9-.1 1-.1.2 0 2.1.1 1.4.4-.5.2-1.2.5-1.7 0 0 0-.7-.2-.7-.3 0-.1.1.1 0 0zm16.8 9.1c.2 0 .7.8.7 1-.3.4-.7-.6-.9-.8l.2-.2zM56 28.7c.6-.5.8-.2 1.5-.1-.2.2-.8.2-1.5.1.1-.2.7.1 0 0zm13.8-.6c-.5-.1-.9-.1-1.4-.3.5-.1 1.2.1 1.6.3h-.2c-.5-.1 0 0 0 0zm-1.4-.3h-.2.2c-.1 0 0 0 0 0zM44 52.9c.1 0 .2.1.2.2-.1.3-.9-.1-1-.2.3-.2.6-.1.8 0zm5.8 0c-.4 1-1.5-.8 0 0 0 .1-.2-.1 0 0zm1.7 5.1s.1-.1 0 0c.1 0 .1 0 0 0zm.2 0s.1-.4.4-.5c.3.2-.3.5-.4.5-.1 0 .3 0 0 0zm3.4-29.5c-.3.2-.6.1-.9.2.4-.4.6-.3.9-.2-.3.1-.1-.1 0 0zM44.2 49.6c-.1-.4-.3-.4 0-.8.2.4.2.7 0 .8 0-.1.2-.1 0 0zm-7.8 15c0 .2-.1.2-.2.2s-.1-.6 0-.7c.1.1.1.3.2.5 0 .1-.1-.2 0 0zm18.1-28.3c.3 0 .6.1.9.3-.4.1-.6 0-.9-.3zm29.9 3.4c-.1 0-.7-.4-.4-.6.2-.1.4.5.4.6zm6.1 3c-.1-.1-.4 0-.4-.3.2.1.4.1.6.2-.1.1-.1.1-.2.1-.1-.1.1 0 0 0zm-34.9-14c-.1-.1-.2 0-.2-.1.2-.2.4-.1.6-.2 0 0-.3.4-.4.3-.1-.1 0 0 0 0zm-1 .2c-.3.2-.5.4-.9.4.2-.3.6-.4.9-.4zm-.1 8.9h.3c-.4.4-.8-.2-.7-.2-.1 0 .4.2.4.2.1 0-.1 0 0 0zm.1-8.7c.2-.2.5-.2.8-.2-.2.1-.4.2-.8.2zm28.3 11.6c-.3 0 .5-.3.2.1 0-.1-.1-.1-.2-.1 0 0 .1 0 0 0zm9 2c-.2-.1-.2-.2-.2-.4.2.1.3.3.2.4zM55.3 30.4c.1-.2.2-.2.6-.2-.2.1-.4.2-.6.2zm-2.6 1.2c-.2.1-.4.2-.6.2.1-.2.3-.2.6-.2zm21.6 1.5c0 .1 0 .1.1.2-.1 0-.3-.3-.1-.4.1 0 .1.1 0 .2 0 0 .1-.1 0 0zM41.7 50.8c0 .1-.1.2-.2.2-.1-.2.1-.5.2-.2 0 0-.1-.1 0 0zm12.1 37.5c.1 0 .2.1.2.2 0 .3-.6-.2-.2-.2.1 0-.1 0 0 0zM53 31.8c-.1.1-.2.2-.3.2.1-.2.2-.2.3-.2zM36.7 64.5c-.1.4-.1-.3 0 0 0 .1-.1 0 0 0zm18.7-32.1s-.1 0 0 0zm-1.6-3.5h-.1.1zm-.1 0c-.1 0 0 0 0 0zm-.2.1zm0 0c0-.1.1 0 .2 0h-.2zm1.1.1zm0 0c0 .1-.1.1-.1.1 0-.1.1-.2.1-.1zm-13.3 37c0-.1.1 0 0 0 0 0 .1 0 0 0zM80 31.9c.2.1 0 0 0 0zm-5.6 1.4zm-19.9-4.2zm-.1 0c.1 0 .1 0 0 0 .1.1.1.1 0 0 .1 0 .1 0 0 0zm33 11.2zM58.7 63.6c-.1-.1.1-.1 0 0zm17.2 33.6c-.1 0 0 0 0 0zm-.1 0zM47 38s.4 0 .2.1c-.1.1-.2 0-.2-.1 0 0 0 .1 0 0zm-2.1-2.9c-.1-.1-.1-.1.1-.2 0 0 0 .1-.1.2-.1 0 0 0 0 0z"/><path class="st4" d="M78.5 30.5c8.3 6.3 13.7 16.2 13.7 27.4 0 18.9-15.3 34.3-34.3 34.3-11.2 0-21.1-5.4-27.4-13.7 5.7 12.4 18.3 21 32.8 21 20 0 36.1-16.2 36.1-36.1.1-14.6-8.5-27.1-20.9-32.9z"/><path class="st5" d="M91.9 42.7c-.2-.1-.2-.2-.2-.4.2.1.3.3.2.4zm-37 50.8c-.9-.2-2.1-.1-2.8-.8-.4-.4-.8-.8-1.2-1.3.9.2 1.7.3 2.6.4-.1.1 0 .2.4.6-1.2 0 0 .7 0 .7-.1-.1-.1 0 0-.2-.1-.1-.3.1-.4-.1-.2-.6.9.1.8.1.3.2.9.2 1.2.4-.1.1-.5.3-.6.2-.1 0-.1 0 0 0zm-3.2-1.4c-.1 0-.1.1 0 .1s.1 0 0-.1zm1.3.6c-.2.1-.2.1 0 .2.1-.1.2-.2 0-.2zm37.7-50.1c-.2-.2-.4-.1-.6-.2.1.2.3.2.4.3-.1-.1 0 0 0 0 .1 0 .1 0 .2-.1zm-3.4-2.4s.1 0 .1.1l-.1-.1c-.1 0-.1 0 0 0zm.1.1zM54.9 93.5c0 .1 0 0 0 0zm41.3-43.7c0-.1-.1-.1 0 0 0-.1 0-.1 0 0zM75.8 97.2c-.7-.1-3.3.7-3.5.1-.3-.1-1.4.3-1.8.4-.8.1-1.5.3-2.3.4-1.3.2-2.5.7-3.7.8-.5.1-3.9.1-4.1-.5-.1-.4-.8-.6-1-.9 0 0-.6-.9-.6-.8 0-.2.6-.3.8-.2-.1-.5.2-.4.4-.5-.2-.1-2 .2-2 .3-.1.1.1.2-.1.5-.1.1-.4 0-.5.1-.1.3 1.1.2.6.6 0 0-1 .1-1.2.1 0 .1 1.2.4 1.4.6-1.4-.2-2.8-.1-4.3-.3.4.4.9.3 1.4.5-.5.1-1-.2-1.5-.2 3.6 1.1 7.5 1.4 11.2 1.2 2-.1 3.9-.3 5.8-.8.5 0 5.1-1.3 5-1.4zm22.7-33.6c0 .2 0 .1 0 0zm-.8-11.1c.2.6.4 1.3.5 1.9.1-.3-.1-1-.5-1.9zM99 66c-.4 2.9-.6 5.5-1.7 8.3-.5 1.3-1 2.5-1.6 3.8-.2.5-.7.8-.9 1.3-.2.5-.5 1.1-.9 1.5-.8.8-1.3 2.1-2.4 2.6-.5.3-1.2.2-1.7.6-.3-.7.5-1.6.6-2.2.2-1 .2-2 .6-2.9.7-1.8-.1-3.9.7-5.6.3-.7.5-1.3.9-1.9.4-.6.2-1.7.3-2.4.1-.9-.2-2.2-.6-3-.1-.3-1.1-1.6-.7-2 .4-.3.4-1.4.2-2.2.1-1.3.2-2.6.2-3.9 0-4.7-.9-9.1-2.6-13.2.1 0 .1.1.2.1.4 0 .5.3.8.4.5.3-.6-1.9.2-1.3.5.4 1.2.7 1.9.9 0-.1.1-.2.1-.3.4-.1.8.5.2-.5-.1-.3-1.2-2.4-1.5-2.3-.1.1.1.2 0 .3-.1.1-.4-.4-.5-.3 0 0 .1.2 0 .3-.1.2-2-1.6-2-1.9.1 0 .2-.1.3-.1 0-.1-.1-.2-.2-.3.1 0 .1-.1.2-.1-.1-.1-.1-.3 0-.4.2-.1.7.4 1 .4-.2-.7-1.4-1.7-2.1-1.9-.1.1 0 .2 0 .3-.1-.2-.5-.3-.6-.6.1.2.3.2.5.2.1-.1-.6-.7-.6-.8 0 .2 0 .3.1.4-.2.1-.3-.1-.5-.1.3.8 1.3 2.1 2 2.5 0 0-.4.3-.2.3-.4 0-.4.2-.6.2 0 .5.8.6 1 1 .1.2.3.6.4.9-.3-.1-1-.7-1-.7-.2 0-1.1-1-1.2-1.2-.3-.4-.5-.6-.8-.8-1.7-2.6-3.8-5-6.2-7.1 0-.2-.3-.3-.5-.4-.4-.3-.8-.6-1.2-1 .3.1.5.2.6.2.6.3 1.3.7 1.9 1 1.3.7 2.5 1.6 3.7 2.5 2.5 1.8 4.7 4 6.6 6.4 2 2.5 3.7 5.4 5 8.4.5 1.1.8 2.2 1.2 3.4-1-2.5-3.2-6.3-3.4-6.2-.2.2 1.7 3 1.8 3.3.1.2.1.2 0 .1.7 1.6 1.4 3.2 2 4.8v-.1l.6 2.4c.9 2.8.8 5.8.4 8.9zm-1.1-3.4c0-.2.2-.4.1-.6-.1.2-.2.4-.1.6zm-.2 1.1c.1-.1.1-.2.1-.3-.1.1-.1.2-.1.3zm-.6 9.3s-.4.2-.3.2c.1 0 .2 0 .2-.1-.1.1 0 0 0 0 0-.1 0-.1.1-.1zm.4-4.3c-.3.2-.4.2-.4.6.1-.3.3-.4.4-.6zm0-1.2c0 .3 0 1 .2 1.2v-3.2c-.2.6-.2 1.4-.2 2 0-.2 0 .2 0 0zm.6 2c0-.1 0-.1-.1-.2 0 1-.4 1.9-.4 2.8.4-.4.5-2 .5-2.6 0 .1 0 0 0 0zm.4-5.9c.1-.2 0-.3-.1-.5-.5.3-.3 1.3-.3 1.8.4-.4.3-.6.4-1.3 0 0 .1-.1 0 0zM75.9 97.2s-.1 0 0 0zm21.4-21.6s0 .1-.1.1c.1 0 .1 0 .1-.1zm-.2.5c-.2.4-.3.7-.4 1.1.1-.3.3-.7.4-1.1z"/><path class="st1" d="M111.2 53.1c-3.6 3.5-7.5 7-11.7 10.4l-4.2 3.3C75.8 81.6 54.7 91.3 41 91.8h-.9c-5.2 0-9-1.4-11.1-4.2-2.5-3.3-2.5-8.3-.4-14.2-.1-.3-.2-.7-.3-1-2.5 6.5-2.7 12 .1 15.6 2.3 3 6.2 4.5 11.7 4.5.6 0 1.2 0 1.8-.1 13.8-.8 34.6-10.4 53.8-25 1.3-1 2.5-2 3.8-3 4.4-3.5 8.5-7.2 12.2-10.8.9-.9 1.7-1.7 2.5-2.6l.9-1.9c-1.3 1.4-2.6 2.7-3.9 4z"/><path class="st1" d="M106.4 42.1c-.9.8-1.7 1.6-2.6 2.5-2.1 1.9-4.3 3.9-6.6 5.9-2.8 2.4-5.8 4.8-8.9 7.1-20.6 15.6-41.6 26-52.4 26-1 0-1.8-.1-2.6-.3-1.4-.3-2.5-1-3.2-1.9-1.1-1.4-1.2-3.4-.7-5.8-.1-.4-.3-.8-.4-1.1-.9 3.1-.8 5.6.5 7.4.9 1.2 2.4 2 4.4 2.3.6.1 1.3.1 2 .1C46.8 84.3 68 73.8 88.6 58c3-2.3 6-4.7 8.7-7 2.4-2 4.7-4 6.9-6 1.3-1.2 2.5-2.3 3.7-3.5l-1.5.6z"/><path class="st6" d="M107.1 49.4c-1.2-1.3-3-1.6-6.4 1.3-1.6 1.4-4.3 4.7-7.4 10.7 6.4-2.2 9.9-4.4 11.6-5.8 3.4-3 3.3-4.9 2.2-6.2z"/><path class="st7" d="M107.1 49.4c-.7-.8-1.9-1-4 .8-1 .9-2.7 2.9-4.6 6.7 4-1.4 6.2-2.7 7.2-3.6 2.1-1.9 2.1-3.1 1.4-3.9z"/><path class="st8" d="M112.4 44.7c4.8 5.5 6.2 12.5 3.8 17.1 1.3-.7 2.6-1.5 3.8-2.6 7.2-6.3 8.3-16.7 2.5-23.4-5.8-6.6-16.3-6.9-23.5-.6-1.2 1-2.2 2.2-3 3.4 4.8-1.7 11.5.6 16.4 6.1z"/><path class="st9" d="M115.7 49.8c5.5-1.7 10.8-4.6 15.5-8.7 7.8-6.8 12.5-15.7 14.2-25.2-9.6.3-19.1 3.9-26.9 10.6-4.6 4.1-8.2 8.9-10.7 14.1l7.9 9.2z"/><path class="st6" d="M109.4 37.6c-.6 1-1.2 2.1-1.7 3.2l7.9 9.1c1.1-.4 2.3-.8 3.4-1.2l-9.6-11.1z"/><path class="st8" d="M112.5 54.6l-9.9-11.4 5.8-1.8 6.7 7.8z"/><path class="st10" d="M113.3 42.1c-3.2 2.8-5.8 5.8-7.3 8.2 2.6-1.1 5.9-3.3 9.1-6.1 3.2-2.8 5.8-5.8 7.3-8.2-2.6 1.1-5.8 3.3-9.1 6.1z"/><ellipse transform="rotate(-41.123 130.042 29.317)" class="st8" cx="130" cy="29.3" rx="5" ry="5"/><ellipse transform="rotate(-41.097 130.04 29.325)" class="st11" cx="130" cy="29.3" rx="3.7" ry="3.7"/><path class="st12" d="M132.8 26.9c-1.3-1.5-3.7-1.7-5.2-.4-1.5 1.3-1.7 3.7-.4 5.2l5.6-4.8z"/><path class="st6" d="M145.3 16c-4.3.2-8.7 1-12.8 2.4l8.7 10c2-3.9 3.4-8.1 4.1-12.4z"/><path class="st8" d="M150 11.9l-4.9 5.1-.8-1z"/><path class="st13" d="M122.4 36c-2.6 1.1-5.9 3.3-9.1 6.1-3.2 2.8-5.8 5.8-7.3 8.2L122.4 36z"/></svg>