<svg id="Слой_1" xmlns="http://www.w3.org/2000/svg" viewBox="0 0 50 50"><style>.st0{fill:#010202}.st1{fill:#f18825}</style><path class="st0" d="M50 25C50 11.2 38.8 0 25 0S0 11.2 0 25c0 7.6 3.4 14.4 8.8 19 .1.1.1.1.3.2 4.3 3.6 9.9 5.8 16 5.8 6 0 11.5-2.2 15.9-5.7.3-.1.4-.3.6-.4C46.7 39.2 50 32.5 50 25z"/><path class="st1" d="M2.3 25C2.3 12.5 12.5 2.3 25 2.3S47.7 12.5 47.7 25c0 6.1-2.4 11.7-6.4 15.8-.6-3-2.6-8.1-8.4-11.4 1.3-1.7 2.1-3.8 2.1-6.1 0-5.5-4.5-10-10-10s-10 4.5-10 10c0 2.3.8 4.4 2.1 6.1-5.9 3.3-7.8 8.4-8.4 11.4-3.9-4.1-6.4-9.7-6.4-15.8z"/><path class="st1" d="M17.3 23.3c0-4.2 3.4-7.7 7.7-7.7 4.2 0 7.7 3.4 7.7 7.7 0 4.2-3.4 7.7-7.7 7.7-4.2-.1-7.7-3.5-7.7-7.7zm-6.5 19.4c.1-1.8 1.1-8.1 8-11.6 1.7 1.3 3.8 2.1 6.1 2.1s4.5-.8 6.2-2.2c6.8 3.5 7.9 9.6 8.1 11.6-3.9 3.1-8.9 5-14.2 5-5.4.1-10.3-1.7-14.2-4.9z"/></svg>